<?xml version="1.0" standalone="no"?>
<!DOCTYPE svg PUBLIC "-//W3C//DTD SVG 1.1//EN" "http://www.w3.org/Graphics/SVG/1.1/DTD/svg11.dtd" >
<svg>
<metadata>
Created by FontForge 20120731 at Tue Aug 27 14:48:15 2019
 By www
(c) Copyright 2012 Hewlett-Packard Development Company, L.P.
</metadata>
<defs>
<font id="HPSimplified-Regular" horiz-adv-x="378" >
  <font-face 
    font-family="HP Simplified"
    font-weight="400"
    font-stretch="normal"
    units-per-em="1000"
    panose-1="2 11 6 6 2 2 4 2 2 4"
    ascent="813"
    descent="-187"
    x-height="509"
    cap-height="693"
    bbox="-158 -199 1080 919"
    underline-thickness="90"
    underline-position="-55"
    unicode-range="U+0008-FB04"
  />
<missing-glyph horiz-adv-x="500" 
d="M50 0v750h400v-750h-400zM400 50v650h-300v-650h300z" />
    <glyph glyph-name="f_f" unicode="ff" horiz-adv-x="615" 
d="M190 509h173v71q0 74 32 111.5t108 37.5q16 0 39 -2.5t38 -8.5q11 -5 15 -12.5t4 -17.5v-44q-25 3 -38.5 4t-31.5 1q-22 0 -35 -5t-19.5 -15t-8.5 -23.5t-2 -31.5v-65h102q23 0 23 -23v-57h-125v-429h-77q-11 0 -17.5 6t-6.5 17v406h-173v-429h-77q-23 0 -23 23v406h-35
q-24 0 -24 23v57h59v71q0 74 31 111.5t102 37.5q14 0 35.5 -2.5t36.5 -8.5q11 -5 14.5 -12.5t3.5 -17.5v-43q-21 2 -32.5 3t-25.5 1q-22 0 -35 -5t-19.5 -15t-8.5 -23.5t-2 -31.5v-65z" />
    <glyph glyph-name="f_i" unicode="fi" horiz-adv-x="528" 
d="M464 0h-77q-11 0 -17.5 6t-6.5 17v406h-173v-429h-77q-23 0 -23 23v406h-35q-16 0 -20 9t-4 26v45h59v51q0 40 5.5 71.5t20 53.5t38.5 33t62 11q11 0 25.5 -1t27.5 -5.5t22 -12.5t9 -22v-43q-20 2 -30.5 3t-22.5 1q-38 0 -47.5 -19.5t-9.5 -54.5v-66h250q24 0 24 -23
v-486zM414 589q-33 0 -47.5 12.5t-14.5 42.5q0 29 14.5 42t47.5 13q32 0 47 -13t15 -42q0 -30 -15 -42.5t-47 -12.5z" />
    <glyph glyph-name="f_l" unicode="fl" horiz-adv-x="564" 
d="M464 118q0 -27 9 -35t32 -9q16 -1 24.5 -5t8.5 -19v-46q-17 -5 -34 -7.5t-37 -2.5q-59 0 -81.5 37t-22.5 112v286h-173v-429h-77q-23 0 -23 23v406h-35q-24 0 -24 23v57h59v51q0 40 5.5 71.5t20 53.5t38.5 33t62 11q10 0 24 -1t27.5 -5t23 -12.5t9.5 -22.5v-43
q-20 2 -30.5 3t-22.5 1q-38 0 -47.5 -19.5t-9.5 -54.5v-66h173v209h77q24 0 24 -23v-577z" />
    <glyph glyph-name="f_f_i" unicode="ffi" horiz-adv-x="801" 
d="M363 580q0 75 30 112t97 37q14 0 32.5 -2t34.5 -9q17 -8 17 -30v-43q-20 2 -30.5 3t-22.5 1q-38 0 -47.5 -19.5t-9.5 -54.5v-66h250q11 0 17.5 -6t6.5 -17v-486h-77q-24 0 -24 23v406h-173v-429h-77q-11 0 -17.5 6t-6.5 17v406h-173v-429h-77q-23 0 -23 23v406h-35
q-24 0 -24 23v57h59v77q0 68 30.5 105.5t102.5 37.5q14 0 35.5 -2.5t36.5 -8.5q11 -5 14.5 -12.5t3.5 -17.5v-43q-21 2 -32 3t-26 1q-22 0 -35 -5t-19.5 -14t-8.5 -21.5t-2 -27.5v-72h173v71zM688 589q-33 0 -47.5 12.5t-14.5 42.5q0 29 14.5 42t47.5 13q32 0 46.5 -13
t14.5 -42q0 -30 -14.5 -42.5t-46.5 -12.5z" />
    <glyph glyph-name="f_f_l" unicode="ffl" horiz-adv-x="837" 
d="M363 560q0 40 6 71.5t20.5 53.5t39 33t61.5 11q10 0 24.5 -1t27.5 -5t22.5 -12.5t9.5 -22.5v-43q-20 2 -30.5 3t-22.5 1q-22 0 -33.5 -6.5t-17 -18.5t-6 -29t-0.5 -39v-47h173v209h77q11 0 17.5 -6t6.5 -17v-577q0 -27 9 -35t32 -9q16 -1 24 -5t8 -19v-46
q-16 -5 -33 -7.5t-37 -2.5q-60 0 -82 37t-22 112v286h-173v-429h-77q-11 0 -17.5 6t-6.5 17v406h-173v-429h-77q-23 0 -23 23v406h-35q-24 0 -24 23v57h59v55q0 36 5 66t19.5 52t40.5 34.5t68 12.5q12 0 27.5 -1t29.5 -5.5t23.5 -12.5t9.5 -22v-43q-21 2 -32 3t-26 1
q-26 0 -39.5 -6.5t-19 -18.5t-6 -28.5t-0.5 -35.5v-51h173v51z" />
    <glyph glyph-name=".notdef" horiz-adv-x="500" 
d="M50 0v750h400v-750h-400zM400 50v650h-300v-650h300z" />
    <glyph glyph-name=".null" horiz-adv-x="0" 
 />
    <glyph glyph-name=".null" horiz-adv-x="0" 
 />
    <glyph glyph-name=".null" horiz-adv-x="0" 
 />
    <glyph glyph-name="nonmarkingreturn" unicode="&#x9;" horiz-adv-x="202" 
 />
    <glyph glyph-name="nonmarkingreturn" unicode="&#xd;" horiz-adv-x="202" 
 />
    <glyph glyph-name="space" unicode=" " horiz-adv-x="202" 
 />
    <glyph glyph-name="exclam" unicode="!" horiz-adv-x="263" 
d="M93 233q-4 37 -6.5 77.5t-4 80t-2 77.5t-0.5 71v154h79q17 0 20.5 -15t3.5 -30v-110q0 -78 -3.5 -163.5t-11.5 -165.5h-52q-20 0 -23 24zM199 58q0 -35 -16 -49.5t-51 -14.5q-36 0 -51.5 14.5t-15.5 49.5q0 34 16 48.5t51 14.5t51 -14.5t16 -48.5z" />
    <glyph glyph-name="quotedbl" unicode="&#x22;" horiz-adv-x="352" 
d="M283 693q22 0 22 -21t-1 -46.5t-2.5 -52.5t-3.5 -54t-5 -49h-54q-18 0 -20 18q-5 42 -7 91.5t-4 113.5h75zM121 693q22 0 22 -21t-1 -46.5t-2.5 -52.5t-3.5 -54t-5 -49h-54q-18 0 -20 18q-5 42 -7 91.5t-4 113.5h75z" />
    <glyph glyph-name="numbersign" unicode="#" horiz-adv-x="579" 
d="M212 248h136l19 185h-136zM170 672h62q11 0 16 -6.5t4 -16.5l-14 -138h137l16 161h62q11 0 16 -6.5t4 -16.5l-14 -138h47q11 0 17.5 -6t6.5 -17v-55h-79l-19 -185h74q11 0 17.5 -6t6.5 -17v-54h-105l-17 -171h-62q-11 0 -16 6.5t-4 16.5l15 148h-137l-17 -171h-62
q-11 0 -16 6.5t-4 16.5l15 148h-47q-11 0 -17.5 6t-6.5 17v54h79l19 185h-74q-11 0 -17.5 6t-6.5 17v55h105z" />
    <glyph glyph-name="dollar" unicode="$" horiz-adv-x="536" 
d="M388 190q0 24 -5 40t-16.5 27t-29.5 19.5t-45 17.5l-16 -211q65 2 88.5 30.5t23.5 76.5zM148 497q0 -44 21.5 -64.5t71.5 -36.5l15 199q-61 -3 -84.5 -28t-23.5 -70zM210 2q-67 5 -105 16t-38 35v45q26 -3 66.5 -8t82.5 -6l18 224q-40 13 -72 28t-54.5 36t-35 50.5
t-12.5 71.5q0 90 51.5 134t151.5 46l7 94h39q21 0 19 -20l-6 -74q130 -9 130 -50v-41q-29 4 -64 7t-72 5l-16 -214q42 -13 74.5 -27t55.5 -34.5t35 -51t12 -76.5q0 -52 -14.5 -88t-41 -58.5t-65 -32.5t-86.5 -11l-8 -100h-39q-21 0 -19 20z" />
    <glyph glyph-name="percent" unicode="%" horiz-adv-x="784" 
d="M117 501q0 -64 14 -93.5t52 -29.5q39 0 52.5 29.5t13.5 93.5t-13.5 93.5t-52.5 29.5q-38 0 -52 -29.5t-14 -93.5zM328 501q0 -53 -11 -88.5t-30 -57.5t-46 -31.5t-58 -9.5q-32 0 -58 9.5t-45.5 31.5t-30 57.5t-10.5 88.5q0 52 10.5 88t30 58t45.5 31.5t58 9.5
q31 0 58 -9.5t46 -31.5t30 -58t11 -88zM553 677h56q19 0 19 -17q0 -7 -4 -14l-394 -646h-56q-20 0 -20 17q0 6 5 14zM535 177q0 -64 14 -93.5t52 -29.5q39 0 52.5 29.5t13.5 93.5t-13.5 93.5t-52.5 29.5q-38 0 -52 -29.5t-14 -93.5zM746 177q0 -53 -11 -88.5t-30 -57.5
t-46 -31.5t-58 -9.5q-32 0 -58 9.5t-45.5 31.5t-30 57.5t-10.5 88.5q0 52 10.5 88t30 58t45.5 31.5t58 9.5q31 0 58 -9.5t46 -31.5t30 -58t11 -88z" />
    <glyph glyph-name="ampersand" unicode="&#x26;" horiz-adv-x="639" 
d="M264 69q51 0 88.5 20t64.5 53q-38 49 -82 92.5t-90 84.5q-24 -13 -43.5 -26t-33 -28.5t-20.5 -35.5t-7 -47q0 -62 35.5 -87.5t87.5 -25.5zM196 542q0 -19 4 -35t12.5 -31t21.5 -30t32 -33q25 14 45 27t33.5 28t21 33.5t7.5 43.5q0 44 -22 64t-67 20q-39 0 -63.5 -18.5
t-24.5 -68.5zM527 149q29 -36 52 -76.5t37 -72.5h-68q-16 0 -25 6t-18 20l-38 58q-42 -48 -94 -72t-122 -24q-46 0 -84.5 11t-66 34t-42.5 58.5t-15 83.5q0 69 34 114.5t109 84.5q-45 45 -64 84t-19 84q0 32 9.5 61t31 51.5t57 36t86.5 13.5q52 0 86.5 -13t55 -34.5t29 -50
t8.5 -58.5q0 -63 -35 -104.5t-107 -80.5q41 -36 76 -72.5t70 -77.5q16 31 26.5 61t15.5 80h59q14 0 18.5 -6t4.5 -20q0 -19 -6.5 -43t-16.5 -48.5t-22 -47.5t-22 -40z" />
    <glyph glyph-name="quotesingle" unicode="'" horiz-adv-x="190" 
d="M121 693q22 0 22 -21t-1 -46.5t-2.5 -52.5t-3.5 -54t-5 -49h-54q-18 0 -20 18q-5 42 -7 91.5t-4 113.5h75z" />
    <glyph glyph-name="parenleft" unicode="(" horiz-adv-x="300" 
d="M179 -58q-61 95 -89 191.5t-28 209.5q0 118 30 219.5t101 205.5h53q8 0 14.5 -4.5t6.5 -14.5q0 -7 -4 -16q-25 -50 -43.5 -94.5t-31 -90t-18.5 -95t-6 -107.5t6 -109.5t20 -102.5t36 -103.5t54 -112.5h-64q-15 0 -22 6t-15 18z" />
    <glyph glyph-name="parenright" unicode=")" horiz-adv-x="300" 
d="M120 744q59 -96 88.5 -192.5t29.5 -208.5q0 -59 -7 -113.5t-23 -106t-41 -102.5t-61 -103h-52q-9 0 -15 4.5t-6 14.5q0 7 4 16q25 49 43.5 94t30.5 90.5t18 94.5t6 108q0 58 -6 109.5t-19.5 102.5t-36 103.5t-54.5 112.5h65q15 0 21.5 -6t14.5 -18z" />
    <glyph glyph-name="asterisk" unicode="*" horiz-adv-x="406" 
d="M227 693q12 0 15.5 -6.5t1.5 -18.5l-12 -111l125 54l19 -58q4 -11 -1.5 -16.5t-16.5 -7.5l-110 -23l90 -102l-49 -35q-10 -8 -16.5 -4.5t-12.5 13.5l-55 97l-71 -118l-48 36q-11 8 -10 15t9 16l77 82l-134 31l20 57q4 12 11 13.5t18 -3.5l101 -48l-12 137h61z" />
    <glyph glyph-name="plus" unicode="+" horiz-adv-x="536" 
d="M313 384h132q23 0 23 -23v-61h-155v-168h-67q-23 0 -23 24v144h-131q-24 0 -24 23v61h155v168h67q23 0 23 -24v-144z" />
    <glyph glyph-name="comma" unicode="," horiz-adv-x="250" 
d="M191 59q0 -20 -7 -40.5t-22 -55.5l-39 -87h-45q-17 0 -17 13q0 6 3 14l39 99q-25 6 -35 20t-10 36q0 34 16 48.5t51 14.5t50.5 -15t15.5 -47z" />
    <glyph glyph-name="hyphen" unicode="-" horiz-adv-x="385" 
d="M317 318q24 0 24 -23v-67h-273q-24 0 -24 23v67h273z" />
    <glyph glyph-name="period" unicode="." horiz-adv-x="250" 
d="M192 58q0 -35 -16 -49.5t-51 -14.5q-36 0 -51.5 14.5t-15.5 49.5q0 34 16 48.5t51 14.5t51 -14.5t16 -48.5z" />
    <glyph glyph-name="slash" unicode="/" horiz-adv-x="367" 
d="M44 -83q-14 0 -17.5 9.5t-0.5 20.5l225 821h69q13 0 17.5 -8.5t0.5 -21.5l-225 -821h-69z" />
    <glyph glyph-name="zero" unicode="0" horiz-adv-x="536" 
d="M147 341q0 -74 5 -125t18.5 -82.5t37 -45t60.5 -13.5t60.5 13.5t37 45t18.5 82.5t5 126q0 74 -5 125t-18.5 82t-37 44.5t-60.5 13.5t-60.5 -13.5t-37 -45t-18.5 -82t-5 -125.5zM43 341q0 106 15.5 174.5t45 108t71 54.5t93.5 15t93.5 -14.5t70.5 -53.5t45 -107.5
t16 -176.5t-16 -176.5t-45 -107.5t-70.5 -53.5t-93.5 -14.5t-93.5 14.5t-71 53.5t-45 107.5t-15.5 176.5z" />
    <glyph glyph-name="one" unicode="1" horiz-adv-x="536" 
d="M266 0q-24 0 -24 23v558l-116 -45q-10 -4 -15.5 -5t-8.5 -1q-18 0 -18 18v58l47 21q83 36 126.5 51t62.5 15q14 0 19.5 -6.5t5.5 -16.5v-670h-79z" />
    <glyph glyph-name="two" unicode="2" horiz-adv-x="536" 
d="M326 303q-26 -20 -53 -41.5t-49.5 -47.5t-37.5 -57.5t-17 -70.5h272q23 0 23 -23v-63h-374q-11 0 -18.5 6.5t-7.5 18.5v37q0 51 13.5 92.5t36 75t52.5 61.5t64 53q34 26 59 45.5t41.5 37.5t24 37t7.5 44q0 47 -30 72.5t-104 25.5q-48 0 -82 -5.5t-47 -5.5
q-14 0 -19.5 6.5t-5.5 17.5v45q30 11 75.5 20t102.5 9q109 0 161 -47t52 -131q0 -39 -11 -69t-30 -55t-44.5 -46t-53.5 -42z" />
    <glyph glyph-name="three" unicode="3" horiz-adv-x="536" 
d="M182 307q-24 0 -24 23v63h64q38 0 61.5 10.5t36.5 26.5t17.5 35t4.5 37q0 53 -29.5 78.5t-102.5 25.5q-45 0 -76 -5.5t-49 -5.5q-14 0 -19 6.5t-5 17.5v44q29 11 72.5 20.5t100.5 9.5q107 0 157.5 -49t50.5 -131q0 -109 -98 -156q60 -20 86 -62t26 -102
q0 -101 -59 -152.5t-172 -51.5q-13 0 -32.5 1.5t-41 4t-42 6t-33.5 8.5q-14 5 -18.5 12.5t-4.5 17.5v51q29 -5 71 -9t80 -4q43 0 72 8t46 23.5t24.5 38t7.5 50.5q0 61 -33 85.5t-101 24.5h-38z" />
    <glyph glyph-name="four" unicode="4" horiz-adv-x="536" 
d="M404 677q24 0 24 -23v-405h38q24 0 24 -23v-59h-62v-167h-74q-24 0 -24 23v144h-268q-24 0 -24 23v62q16 55 43 114.5t62.5 115.5t77.5 106.5t88 88.5h95zM330 249v340q-37 -32 -69 -73t-58 -86.5t-46 -92t-33 -88.5h206z" />
    <glyph glyph-name="five" unicode="5" horiz-adv-x="536" 
d="M241 -11q-13 0 -32 1.5t-39.5 4t-40 6t-32.5 8.5q-14 5 -18.5 12.5t-4.5 17.5v51q29 -5 69 -9t83 -4q81 0 113 30.5t32 94.5q0 36 -9 60.5t-26.5 38.5t-44 20t-61.5 6h-117q-11 0 -18.5 5.5t-6.5 21.5l19 323h323q23 0 23 -23v-63h-260l-11 -181h70q60 0 102 -14
t68.5 -41t38.5 -65t12 -86q0 -57 -15.5 -97.5t-45.5 -66.5t-73 -38.5t-98 -12.5z" />
    <glyph glyph-name="six" unicode="6" horiz-adv-x="536" 
d="M280 343q-33 0 -65.5 -9t-59.5 -28q0 -62 5.5 -106t20 -72.5t38.5 -42t60 -13.5q60 0 86 35t26 105q0 29 -5 53t-17.5 41.5t-34 27t-54.5 9.5zM323 607q-45 0 -76.5 -11t-51 -37t-29.5 -69t-11 -107q26 18 60.5 30.5t84.5 12.5q92 0 140.5 -52.5t48.5 -160.5
q0 -50 -11.5 -91.5t-37 -71t-65.5 -45.5t-97 -16q-64 0 -106.5 21.5t-68.5 63.5t-37 104.5t-11 145.5q0 105 16.5 176t47.5 113.5t76 60.5t102 18q37 0 72 -5t58 -14q16 -6 19.5 -15t3.5 -20v-41q-37 5 -66 7.5t-61 2.5z" />
    <glyph glyph-name="seven" unicode="7" horiz-adv-x="536" 
d="M163 96q16 61 40 128t50.5 132.5t54 126t52.5 107.5h-282q-24 0 -24 23v64h382q12 0 19.5 -5t7.5 -19v-54q-77 -152 -131 -301.5t-84 -297.5h-75q-24 0 -24 27q0 24 14 69z" />
    <glyph glyph-name="eight" unicode="8" horiz-adv-x="536" 
d="M269 -11q-108 0 -166.5 48t-58.5 148q0 57 22.5 100.5t79.5 69.5q-45 23 -64.5 65t-19.5 90q0 88 51.5 135.5t154.5 47.5t154.5 -47.5t51.5 -135.5q0 -48 -19.5 -90t-64.5 -65q57 -26 79.5 -69t22.5 -101q0 -100 -57.5 -148t-165.5 -48zM268 72q60 0 92 27.5t32 91.5
q0 25 -5 47.5t-18.5 38.5t-38 25.5t-62.5 9.5t-62.5 -9.5t-38 -25.5t-18.5 -38.5t-5 -47.5q0 -64 32 -91.5t92 -27.5zM268 393q36 0 58 9.5t33.5 25t15 36t3.5 41.5q0 56 -26.5 82t-83.5 26t-83.5 -26t-26.5 -82q0 -21 3.5 -41.5t15 -36t33.5 -25t58 -9.5z" />
    <glyph glyph-name="nine" unicode="9" horiz-adv-x="536" 
d="M261 347q28 0 61 9t59 28q0 118 -27 172t-96 54q-59 0 -86 -34t-27 -99q0 -30 5 -54t18.5 -41t35.5 -26t57 -9zM212 75q46 0 77.5 11t51.5 37.5t29.5 71t10.5 112.5q-26 -17 -60.5 -30t-83.5 -13q-92 0 -141 52t-49 157q0 49 12 89.5t37.5 69.5t65.5 45t96 16
q64 0 106.5 -21t68.5 -63t37 -104.5t11 -144.5q0 -107 -15.5 -178.5t-46 -114t-77 -60t-108.5 -17.5q-38 0 -73.5 5t-58.5 14q-16 6 -19.5 15t-3.5 20v42q37 -5 66 -8t67 -3z" />
    <glyph glyph-name="colon" unicode=":" horiz-adv-x="250" 
d="M192 446q0 -35 -16 -49.5t-51 -14.5q-36 0 -51.5 14.5t-15.5 49.5q0 34 16 48.5t51 14.5t51 -14.5t16 -48.5zM192 58q0 -35 -16 -49.5t-51 -14.5q-36 0 -51.5 14.5t-15.5 49.5q0 34 16 48.5t51 14.5t51 -14.5t16 -48.5z" />
    <glyph glyph-name="semicolon" unicode=";" horiz-adv-x="250" 
d="M191 59q0 -20 -7 -40.5t-22 -55.5l-39 -87h-45q-17 0 -17 13q0 6 3 14l39 99q-25 6 -35 20t-10 36q0 34 16 48.5t51 14.5t50.5 -15t15.5 -47zM192 446q0 -35 -16 -49.5t-51 -14.5q-36 0 -51.5 14.5t-15.5 49.5q0 34 16 48.5t51 14.5t51 -14.5t16 -48.5z" />
    <glyph glyph-name="less" unicode="&#x3c;" horiz-adv-x="536" 
d="M423 232q12 -5 15 -11.5t3 -18.5v-75l-335 167q-14 7 -18 12.5t-4 19.5v52l322 166q9 5 18 5q17 0 17 -19v-65l-260 -123z" />
    <glyph glyph-name="equal" unicode="=" horiz-adv-x="536" 
d="M441 479q24 0 24 -23v-61h-369q-24 0 -24 23v61h369zM441 280q24 0 24 -23v-61h-369q-24 0 -24 23v61h369z" />
    <glyph glyph-name="greater" unicode="&#x3e;" horiz-adv-x="536" 
d="M113 451q-12 5 -15 11.5t-3 18.5v75l335 -167q14 -7 18 -12.5t4 -19.5v-52l-322 -166q-9 -5 -18 -5q-17 0 -17 19v65l260 123z" />
    <glyph glyph-name="question" unicode="?" horiz-adv-x="426" 
d="M155 209q-29 0 -29 50q0 23 5 41t15.5 35t27 34.5t38.5 38.5q20 19 33.5 33.5t21.5 27t11.5 25t3.5 29.5q0 49 -26.5 69.5t-82.5 20.5q-37 0 -68 -5.5t-45 -5.5q-13 0 -17 6t-4 17v49q29 11 68.5 20t89.5 9q37 0 70.5 -7.5t59.5 -26t41.5 -50.5t15.5 -81q0 -30 -6 -54
t-17.5 -44.5t-27.5 -38t-35 -35.5q-29 -26 -46 -43.5t-27 -33.5t-14 -34t-5 -46h-51zM242 58q0 -35 -16 -49.5t-51 -14.5q-36 0 -51.5 14.5t-15.5 49.5q0 34 16 48.5t51 14.5t51 -14.5t16 -48.5z" />
    <glyph glyph-name="at" unicode="@" horiz-adv-x="835" 
d="M532 49q-9 0 -16 5t-9 19l-4 29q-20 -24 -49.5 -41.5t-74.5 -17.5q-72 0 -103.5 49.5t-31.5 149.5q0 49 9.5 96t34 83t67.5 58t110 22q27 0 53.5 -3.5t47.5 -8.5q12 -3 21.5 -8.5t8.5 -25.5l-19 -334q37 0 62 17t40 47t21.5 69.5t6.5 84.5q0 139 -59 207t-196 68
q-63 0 -120.5 -16t-101.5 -56.5t-70.5 -110t-26.5 -176.5q0 -96 22.5 -160t65 -102t104.5 -54t142 -16q63 0 99 6t53 6q22 0 22 -25v-36q-25 -9 -76.5 -16.5t-114.5 -7.5q-83 0 -155.5 18.5t-126.5 64.5t-85.5 124.5t-31.5 198.5q0 125 33.5 208t89 132.5t128 70t150.5 20.5
q63 0 124 -14.5t108 -52.5t76 -105t29 -172q0 -65 -12.5 -119t-39 -93t-69 -60.5t-102.5 -21.5h-34zM452 427q-39 0 -63 -15.5t-37 -41.5t-17.5 -59t-4.5 -69q0 -70 16 -97.5t61 -27.5q29 0 50 10.5t37 29.5l14 264q-11 3 -27.5 4.5t-28.5 1.5z" />
    <glyph glyph-name="A" unicode="A" horiz-adv-x="553" 
d="M416 23q-7 45 -14.5 86.5t-15.5 83.5h-223q-10 -48 -18 -97t-15 -96h-77q-22 0 -21 25q3 30 9 59q18 97 40 185.5t45 166t46.5 142.5t44.5 115h100q12 0 18 -5t10 -16q21 -51 46 -122t49.5 -158t46.5 -186.5t38 -205.5h-85q-21 0 -24 23zM274 607q-24 -71 -49.5 -153.5
t-48.5 -178.5h197q-23 96 -48.5 178.5t-50.5 153.5z" />
    <glyph glyph-name="B" unicode="B" horiz-adv-x="557" 
d="M172 83h115q32 0 55.5 5.5t39 18.5t23 35t7.5 56q0 39 -10 62.5t-30.5 35.5t-50.5 15.5t-70 3.5h-79v-232zM172 395h111q28 0 49 4.5t35.5 17t21.5 34t7 55.5t-7.5 55.5t-23 34t-39.5 17.5t-58 5q-25 0 -52 -2t-44 -5v-216zM70 681q44 8 100 13.5t101 5.5q50 0 91.5 -9.5
t71 -31t46 -57.5t16.5 -88q0 -59 -21.5 -98t-67.5 -59q60 -22 83.5 -65.5t23.5 -103.5q0 -54 -16.5 -90.5t-46 -58t-69.5 -30.5t-87 -9h-201q-24 0 -24 23v658z" />
    <glyph glyph-name="C" unicode="C" horiz-adv-x="503" 
d="M310 703q35 0 72.5 -5.5t58.5 -14.5q12 -5 16.5 -13t4.5 -21v-47q-29 4 -64.5 7.5t-73.5 3.5q-45 0 -76 -12.5t-50 -42.5t-27 -80.5t-8 -126.5q0 -84 10 -137t29.5 -82.5t49.5 -40.5t71 -11q42 0 73 5t47 5q25 0 25 -24v-49q-29 -11 -69.5 -19.5t-93.5 -8.5
q-66 0 -113 20t-77.5 63.5t-44.5 111t-14 162.5q0 96 14 164t44.5 111t78.5 62.5t117 19.5z" />
    <glyph glyph-name="D" unicode="D" horiz-adv-x="602" 
d="M272 616q-23 0 -51 -2t-46 -5v-525h95q43 0 75 9.5t53 38.5t31 82.5t10 141.5q0 78 -8.5 128.5t-28 80t-51.5 40.5t-79 11zM94 0q-24 0 -24 23v658q23 4 49.5 7.5t54 6t53.5 4t49 1.5q71 0 122 -18t84 -59t48.5 -108t15.5 -164t-15.5 -164t-47.5 -108.5t-82.5 -60
t-120.5 -18.5h-186z" />
    <glyph glyph-name="E" unicode="E" horiz-adv-x="513" 
d="M438 693q23 0 23 -23v-63h-286v-213h237q23 0 23 -23v-64h-260v-221h274q11 0 17.5 -6t6.5 -17v-63h-379q-24 0 -24 23v670h368z" />
    <glyph glyph-name="F" unicode="F" horiz-adv-x="484" 
d="M450 607h-275v-217h220q23 0 23 -23v-64h-243v-303h-81q-24 0 -24 23v670h357q23 0 23 -23v-63z" />
    <glyph glyph-name="G" unicode="G" horiz-adv-x="572" 
d="M492 366q24 0 24 -23v-324q-37 -14 -82.5 -22t-98.5 -8q-78 0 -131.5 20t-86 63.5t-47 110.5t-14.5 162q0 100 15.5 168.5t48.5 110.5t84 60.5t123 18.5q51 0 89.5 -7.5t56.5 -15.5q12 -5 15.5 -12t3.5 -21v-45q-29 4 -70.5 7.5t-77.5 3.5q-51 0 -86 -10.5t-56 -39.5
t-30.5 -80t-9.5 -132q0 -88 11 -141.5t33 -83t55.5 -39.5t78.5 -10q23 0 43.5 1.5t36.5 4.5v197h-86q-9 0 -15 6t-6 17v63h179z" />
    <glyph glyph-name="H" unicode="H" horiz-adv-x="607" 
d="M513 693q24 0 24 -23v-670h-81q-11 0 -17.5 6t-6.5 17v288h-257v-311h-81q-24 0 -24 23v670h81q11 0 17.5 -6t6.5 -17v-271h257v294h81z" />
    <glyph glyph-name="I" unicode="I" horiz-adv-x="245" 
d="M94 0q-24 0 -24 23v670h81q24 0 24 -23v-670h-81z" />
    <glyph glyph-name="J" unicode="J" horiz-adv-x="379" 
d="M288 693q24 0 24 -23v-448q0 -59 -9 -102t-30.5 -72t-57.5 -43t-91 -14q-32 0 -50.5 3t-31.5 8q-10 5 -12.5 12.5t-2.5 16.5v51q20 -2 35 -2.5t35 -0.5q37 0 59 10t33 27.5t14.5 42t3.5 53.5v481h81z" />
    <glyph glyph-name="K" unicode="K" horiz-adv-x="553" 
d="M509 652q-38 -63 -102.5 -141t-149.5 -152q36 -30 75 -71t76 -88t71.5 -98t61.5 -102h-98q-16 0 -23.5 8.5t-12.5 18.5q-54 83 -116 158.5t-116 126.5v-312h-81q-24 0 -24 23v670h81q24 0 24 -23v-275q31 29 63.5 63t64 72.5t61 79.5t55.5 83h76q21 0 21 -19q0 -8 -7 -22
z" />
    <glyph glyph-name="L" unicode="L" horiz-adv-x="472" 
d="M94 0q-24 0 -24 23v670h81q11 0 17.5 -6t6.5 -17v-582h246q24 0 24 -23v-65h-351z" />
    <glyph glyph-name="M" unicode="M" horiz-adv-x="714" 
d="M551 23q-1 59 -2.5 127.5t-3.5 139t-4 139.5t-4 130l-137 -383h-71q-13 0 -17.5 6.5t-8.5 16.5l-129 360q-2 -63 -4 -135t-4 -145.5t-3.5 -145t-1.5 -133.5h-76q-24 0 -24 23q2 163 9.5 327.5t17.5 342.5h105q19 0 27 -23l138 -388l146 411h99q12 0 17 -6t6 -17
q11 -165 18 -330.5t9 -339.5h-78q-24 0 -24 23z" />
    <glyph glyph-name="N" unicode="N" horiz-adv-x="613" 
d="M543 0h-83q-17 0 -27 23q-16 34 -38 78t-47 92t-51 97.5t-50 94t-44 81t-33 59.5v-525h-76q-24 0 -24 23v670h84q11 0 17 -6.5t12 -16.5q13 -23 32.5 -58t43 -77t48.5 -89t49.5 -93.5t47 -90t39.5 -78.5v509h76q24 0 24 -23v-670z" />
    <glyph glyph-name="O" unicode="O" horiz-adv-x="613" 
d="M163 346q0 -77 6.5 -128.5t23 -83t44 -45t69.5 -13.5t69.5 13.5t44 45t23.5 83t7 128.5t-7 128.5t-23.5 83t-44 45t-69.5 13.5t-69.5 -13.5t-44 -45t-23 -83t-6.5 -128.5zM557 346q0 -111 -18 -181t-51 -109t-79.5 -53.5t-102.5 -14.5t-102 14.5t-79 53.5t-51 109
t-18 181t18 181t51 109t79 53.5t102 14.5t102.5 -14.5t79.5 -53.5t51 -109t18 -181z" />
    <glyph glyph-name="P" unicode="P" horiz-adv-x="551" 
d="M94 0q-24 0 -24 23v658q44 8 99 13.5t103 5.5q121 0 178 -52t57 -174q0 -62 -15.5 -105t-43.5 -70t-68.5 -39.5t-89.5 -12.5q-26 0 -55 3.5t-61 10.5v-261h-80zM174 341q26 -5 52 -8.5t52 -3.5q32 0 56 6.5t39.5 23t23.5 44.5t8 71q0 46 -8.5 74t-25.5 43.5t-41.5 21
t-55.5 5.5q-30 0 -56.5 -2t-43.5 -5v-270z" />
    <glyph glyph-name="Q" unicode="Q" horiz-adv-x="613" 
d="M557 346q0 -69 -7 -121t-20.5 -91t-33 -65.5t-43.5 -43.5q25 -28 55.5 -69t54.5 -85h-91q-14 0 -19.5 6t-13.5 17q-15 25 -36 53.5t-37 45.5q-14 -3 -29.5 -4t-30.5 -1q-56 0 -102 14.5t-79 53.5t-51 109t-18 181t18 181t51 109t79 53.5t102 14.5t102.5 -14.5t79.5 -53.5
t51 -109t18 -181zM163 346q0 -77 6.5 -128.5t23 -83t44 -45t69.5 -13.5t69.5 13.5t44 45t23.5 83t7 128.5t-7 128.5t-23.5 83t-44 45t-69.5 13.5t-69.5 -13.5t-44 -45t-23 -83t-6.5 -128.5z" />
    <glyph glyph-name="R" unicode="R" horiz-adv-x="567" 
d="M94 0q-24 0 -24 23v658q44 8 99 13.5t111 5.5q120 0 174 -52.5t54 -158.5q0 -75 -34.5 -122t-91.5 -67q24 -29 48.5 -68t46 -80t39 -81t27.5 -71h-87q-14 0 -20.5 5.5t-10.5 16.5q-9 25 -24.5 57.5t-34 67t-40.5 69t-45 62.5h-107v-278h-80zM174 359h110q26 0 48.5 5.5
t39 19.5t25.5 39.5t9 64.5t-8 64t-23.5 40t-39.5 20.5t-56 5.5q-34 0 -61 -2t-44 -5v-252z" />
    <glyph glyph-name="S" unicode="S" horiz-adv-x="515" 
d="M48 512q0 95 54 143t167 48q42 0 84 -5.5t65 -13.5q16 -7 19.5 -15.5t3.5 -19.5v-46q-37 5 -76 8.5t-80 3.5q-39 0 -65 -6.5t-41.5 -18.5t-22 -30t-6.5 -42q0 -27 7 -44.5t23.5 -30.5t43 -23.5t65.5 -24.5q40 -15 72.5 -30t56 -37.5t36 -55t12.5 -82.5q0 -108 -58 -154.5
t-168 -46.5q-48 0 -93 6.5t-70 15.5q-13 5 -18 13t-5 20v50q35 -5 77.5 -10t90.5 -5q42 0 69.5 7.5t43 21t21.5 33.5t6 45q0 28 -6.5 46t-22.5 30.5t-42.5 23.5t-66.5 25q-42 15 -74.5 31t-55 38.5t-34.5 54t-12 77.5z" />
    <glyph glyph-name="T" unicode="T" horiz-adv-x="525" 
d="M210 605h-159q-24 0 -24 23v65h448q11 0 17.5 -6t6.5 -17v-65h-184v-605h-81q-24 0 -24 23v582z" />
    <glyph glyph-name="U" unicode="U" horiz-adv-x="594" 
d="M528 245q0 -132 -53.5 -194t-175.5 -62q-56 0 -99.5 12.5t-73 42t-45 78.5t-15.5 123v448h81q24 0 24 -23v-436q0 -36 5.5 -65t19.5 -49.5t38.5 -31t63.5 -10.5q38 0 62 10.5t38 30.5t19.5 49t5.5 67v458h81q11 0 17.5 -6t6.5 -17v-425z" />
    <glyph glyph-name="V" unicode="V" horiz-adv-x="552" 
d="M497 693q28 0 23 -25l-11 -65q-11 -64 -29.5 -142.5t-41.5 -159.5t-49.5 -159.5t-53.5 -141.5h-96q-14 0 -20.5 5.5t-10.5 15.5q-28 69 -55 151t-51 169.5t-43 177t-31 174.5h90q21 0 24 -23q7 -50 18 -113.5t27.5 -136.5t39 -153t52.5 -162q30 84 53 165.5t39.5 157
t28 142.5t18.5 123h79z" />
    <glyph glyph-name="W" unicode="W" horiz-adv-x="793" 
d="M429 637q11 0 17.5 -6.5t8.5 -17.5l104 -489q34 138 59.5 282t36.5 287h78q23 0 21 -25q-1 -14 -2.5 -28t-3.5 -33q-8 -63 -20.5 -138.5t-29.5 -155.5t-38 -160t-45 -153h-88q-12 0 -18 6t-9 19l-103 471l-109 -496h-85q-14 0 -19.5 5t-10.5 17q-23 69 -45 153t-40 173.5
t-31.5 178t-20.5 166.5h85q21 0 23 -25q11 -132 35.5 -268t56.5 -275l112 512h81z" />
    <glyph glyph-name="X" unicode="X" horiz-adv-x="557" 
d="M61 0q-11 0 -18 5t-7 17q0 7 5 20q25 73 67 153.5t105 162.5q-24 33 -50 73.5t-50 85t-44.5 89.5t-32.5 87h93q11 0 16.5 -6t8.5 -17q10 -31 24.5 -65.5t31.5 -69t35 -66.5t35 -57q18 27 37.5 61t37.5 71t33 75.5t24 73.5h75q10 0 17.5 -4.5t7.5 -17.5q0 -5 -2 -11
t-4 -13q-12 -34 -31 -72t-41 -76.5t-46 -75t-46 -67.5q72 -92 117 -185.5t68 -170.5h-93q-12 0 -17.5 7t-9.5 20q-19 59 -50 130t-81 142q-53 -76 -85.5 -154.5t-53.5 -144.5h-76z" />
    <glyph glyph-name="Y" unicode="Y" horiz-adv-x="525" 
d="M234 0q-24 0 -24 23v240q-34 57 -62 109.5t-51 105t-42.5 105.5t-35.5 110h91q15 0 19.5 -6.5t8.5 -20.5q9 -32 22 -69t28.5 -77.5t34.5 -83t42 -84.5q23 43 44.5 91.5t39 95t30.5 87t18 67.5h78q14 0 20 -9.5t1 -23.5q-18 -57 -37 -107t-41 -97.5t-47.5 -94.5t-55.5 -98
v-263h-81z" />
    <glyph glyph-name="Z" unicode="Z" horiz-adv-x="524" 
d="M478 608q-47 -69 -93 -140t-88 -138.5t-78.5 -129t-64.5 -112.5h308q24 0 24 -23v-65h-424q-24 0 -24 23v59q31 55 70 121t82 135t87 138t86 129h-293q-24 0 -24 23v65h409q23 0 23 -23v-62z" />
    <glyph glyph-name="bracketleft" unicode="[" horiz-adv-x="324" 
d="M273 768q24 0 24 -23v-56h-133v-693h109q24 0 24 -23v-56h-204q-24 0 -24 23v828h204z" />
    <glyph glyph-name="backslash" unicode="\" horiz-adv-x="367" 
d="M93 768q13 0 19.5 -6t10.5 -21l226 -824h-76q-12 0 -18.5 6t-10.5 21l-226 824h75z" />
    <glyph glyph-name="bracketright" unicode="]" horiz-adv-x="324" 
d="M51 -83q-24 0 -24 23v56h133v693h-109q-24 0 -24 23v56h204q24 0 24 -23v-828h-204z" />
    <glyph glyph-name="asciicircum" unicode="^" horiz-adv-x="536" 
d="M149 337h-68q-14 0 -16 10t3 18l160 316h61q12 0 17.5 -3t10.5 -14l163 -327h-67q-17 0 -25 4t-13 15l-108 221z" />
    <glyph glyph-name="underscore" unicode="_" horiz-adv-x="504" 
d="M504 -45v-84h-504v84h504z" />
    <glyph glyph-name="grave" unicode="`" horiz-adv-x="434" 
d="M92 721h93q13 0 20 -4.5t12 -17.5q25 -60 51 -126h-55q-20 0 -31 18z" />
    <glyph glyph-name="a" unicode="a" horiz-adv-x="498" 
d="M234 243q-30 0 -50 -6.5t-31.5 -18t-16 -27.5t-4.5 -35q0 -46 22 -67t67 -21q40 0 69 15.5t50 35.5v124h-106zM195 -9q-78 0 -116 43t-38 119q0 47 14.5 78t41 49.5t62.5 26t78 7.5h103v34q0 52 -27 71t-92 19q-44 0 -79 -4.5t-46 -4.5q-13 0 -18.5 6.5t-5.5 16.5v43
q35 11 79 18t90 7q57 0 95 -12.5t61 -35.5t32.5 -56t9.5 -73v-343h-61q-17 0 -21 7.5t-6 17.5l-4 30q-26 -25 -62.5 -44.5t-89.5 -19.5z" />
    <glyph glyph-name="b" unicode="b" horiz-adv-x="521" 
d="M132 718q30 0 30 -29v-210q23 16 54.5 29t75.5 13q43 0 76.5 -15.5t56.5 -48t35 -83.5t12 -122t-12.5 -120.5t-39.5 -81.5t-69.5 -46.5t-101.5 -14.5q-57 0 -100.5 10t-65.5 19q-12 5 -17 12.5t-5 21.5v666h71zM162 78q20 -5 40 -8t46 -3q31 0 54 7t38 27.5t22.5 56.5
t7.5 94q0 54 -6.5 90t-20 57.5t-33.5 31t-48 9.5q-32 0 -56.5 -9.5t-43.5 -23.5v-329z" />
    <glyph glyph-name="c" unicode="c" horiz-adv-x="424" 
d="M388 14q-23 -10 -59 -17.5t-76 -7.5q-56 0 -95 17.5t-63 51t-35 83t-11 112.5q0 140 49.5 203.5t152.5 63.5q34 0 67 -5.5t48 -12.5q11 -5 15.5 -13t4.5 -19v-43q-32 5 -61 7.5t-50 2.5q-34 0 -57.5 -8.5t-38.5 -29.5t-21.5 -55.5t-6.5 -85.5q0 -57 8 -93t23 -56.5
t37 -28t51 -7.5t55.5 3.5t38.5 3.5q24 0 24 -24v-42z" />
    <glyph glyph-name="d" unicode="d" horiz-adv-x="521" 
d="M359 424q-19 8 -40.5 13t-47.5 5q-35 0 -58.5 -10t-37 -32.5t-19 -58t-5.5 -86.5q0 -95 21 -138t78 -43q40 0 66.5 15.5t42.5 31.5v303zM220 -9q-90 0 -130.5 66.5t-40.5 192.5q0 144 49.5 206.5t149.5 62.5q42 0 69.5 -8t41.5 -16v223h77q11 0 17.5 -6t6.5 -17v-695h-61
q-11 0 -18.5 5t-9.5 20l-4 31q-23 -25 -58.5 -45t-88.5 -20z" />
    <glyph glyph-name="e" unicode="e" horiz-adv-x="496" 
d="M145 217q2 -40 9 -68t23.5 -45.5t44.5 -25.5t72 -8q39 0 71 4t44 4q23 0 23 -22v-42q-24 -10 -65.5 -17.5t-95.5 -7.5q-57 0 -99 14t-69.5 45.5t-40.5 82t-13 122.5t13 123t39.5 83.5t65.5 47t91 14.5q58 0 95 -16.5t58 -44.5t29 -65.5t8 -80.5q0 -29 -3 -56t-8 -41h-292
zM356 288q1 10 1 15v13q0 64 -19.5 96.5t-76.5 32.5q-34 0 -56 -11t-35 -31t-18.5 -49.5t-6.5 -65.5h211z" />
    <glyph glyph-name="f" unicode="f" horiz-adv-x="341" 
d="M292 509q11 0 17.5 -6t6.5 -17v-57h-125v-429h-78q-23 0 -23 23v406h-35q-24 0 -24 23v57h59v77q0 68 31 105.5t108 37.5q16 0 40 -2.5t38 -8.5q11 -5 14.5 -12.5t3.5 -17.5v-44q-25 3 -38 4t-31 1q-22 0 -35 -5t-19.5 -14t-8.5 -21.5t-2 -27.5v-72h101z" />
    <glyph glyph-name="g" unicode="g" horiz-adv-x="519" 
d="M49 259q0 75 14.5 124.5t44.5 79t75.5 41.5t107.5 12q40 0 83 -4t73 -9q19 -3 28.5 -9t9.5 -24v-43h-38q3 -63 4 -124.5t1 -121.5v-179q0 -88 -49 -134t-152 -46q-16 0 -36 1.5t-40.5 4t-39 6t-30.5 8.5q-13 5 -16.5 12.5t-3.5 18.5v42q35 -5 70 -8t67 -3
q73 0 101.5 20.5t28.5 70.5v62q-29 -20 -58.5 -31t-69.5 -11q-52 0 -85.5 18t-53.5 50.5t-28 77t-8 98.5zM150 261q0 -47 6 -79t18.5 -52t32.5 -28.5t47 -8.5q32 0 54.5 9.5t43.5 23.5v308q-16 2 -32.5 2.5t-30.5 0.5q-37 0 -63 -7t-43 -26.5t-25 -53.5t-8 -89z" />
    <glyph glyph-name="h" unicode="h" horiz-adv-x="524" 
d="M388 0q-11 0 -17.5 6t-6.5 17v315q0 52 -22 74.5t-64 22.5q-41 0 -70 -16.5t-46 -33.5v-385h-77q-24 0 -24 23v695h77q11 0 17.5 -6t6.5 -17v-237q29 31 68.5 46.5t84.5 15.5q80 0 115 -47t35 -127v-346h-77z" />
    <glyph glyph-name="i" unicode="i" horiz-adv-x="227" 
d="M164 0h-77q-24 0 -24 23v486h77q24 0 24 -23v-486zM114 589q-33 0 -47.5 12.5t-14.5 42.5q0 29 14.5 42t47.5 13q32 0 47 -13t15 -42q0 -30 -15 -42.5t-47 -12.5z" />
    <glyph glyph-name="j" unicode="j" horiz-adv-x="227" 
d="M164 -56q0 -55 -29.5 -86.5t-92.5 -31.5q-14 0 -30 1.5t-25 6.5q-5 2 -10.5 9t-5.5 18v45q12 -1 22.5 -1h21.5q26 0 37 13t11 40v551h77q24 0 24 -23v-542zM114 589q-33 0 -47.5 12.5t-14.5 42.5q0 29 14.5 42t47.5 13q32 0 47 -13t15 -42q0 -30 -15 -42.5t-47 -12.5z
" />
    <glyph glyph-name="k" unicode="k" horiz-adv-x="491" 
d="M61 718h77q11 0 17.5 -6t6.5 -17v-396q68 56 113 109.5t79 100.5h75q17 0 17 -18q0 -11 -10 -25q-8 -13 -26 -35.5t-43 -49.5t-55 -56t-61 -53q37 -30 67.5 -60.5t57.5 -63.5t51.5 -69.5t48.5 -78.5h-93q-14 0 -20.5 6t-11.5 17q-18 29 -37 55.5t-42 52.5t-50 53t-60 56
v-240h-77q-24 0 -24 23v695z" />
    <glyph glyph-name="l" unicode="l" horiz-adv-x="261" 
d="M162 118q0 -27 9 -35t32 -9q16 -1 24 -5t8 -19v-46q-16 -5 -33 -7.5t-37 -2.5q-31 0 -51 9.5t-32 28.5t-16.5 47.5t-4.5 66.5v572h77q11 0 17.5 -6t6.5 -17v-577z" />
    <glyph glyph-name="m" unicode="m" horiz-adv-x="805" 
d="M377 0q-11 0 -17.5 6t-6.5 17v315q0 52 -21 74.5t-60 22.5q-38 0 -65.5 -16t-44.5 -33v-386h-77q-24 0 -24 23v486h61q11 0 18.5 -5t9.5 -20l4 -31q28 31 64.5 49t87.5 18q42 0 76.5 -16t52.5 -57q24 27 64 50t100 23q70 0 108.5 -41.5t38.5 -132.5v-346h-78
q-23 0 -23 23v315q0 52 -21 74.5t-60 22.5q-40 0 -68 -17.5t-45 -34.5q3 -26 3 -52v-331h-77z" />
    <glyph glyph-name="n" unicode="n" horiz-adv-x="524" 
d="M85 0q-24 0 -24 23v486h61q11 0 18.5 -5t9.5 -20l4 -31q62 67 159 67q82 0 117 -47.5t35 -126.5v-346h-77q-11 0 -17.5 6t-6.5 17v315q0 52 -22 74.5t-64 22.5q-41 0 -70 -16.5t-46 -33.5v-385h-77z" />
    <glyph glyph-name="o" unicode="o" horiz-adv-x="526" 
d="M263 -12q-113 0 -163.5 64t-50.5 203q0 138 50.5 202t163.5 64t163.5 -64t50.5 -202q0 -139 -50.5 -203t-163.5 -64zM375 255q0 54 -6.5 90t-20 57.5t-35 30.5t-50.5 9t-50.5 -9t-35 -30.5t-20 -57.5t-6.5 -90q0 -55 6.5 -91.5t20 -58t35 -30t50.5 -8.5t50.5 8.5t35 30
t20 58t6.5 91.5z" />
    <glyph glyph-name="p" unicode="p" horiz-adv-x="524" 
d="M287 -6q-43 0 -71 10t-48 21v-195h-77q-24 0 -24 23v337q0 57 1 117t4 120h-18q-20 0 -20 22v48q15 3 37.5 6.5t48.5 6t55 4.5t56 2q64 0 110 -12.5t76 -42.5t44 -79.5t14 -124.5q0 -136 -46 -199.5t-142 -63.5zM259 73q30 0 51.5 8.5t35.5 29.5t20.5 56.5t6.5 89.5
q0 49 -6 83.5t-22 56t-43.5 31t-70.5 9.5q-12 0 -30 -0.5t-33 -2.5v-339q20 -10 41 -16t50 -6z" />
    <glyph glyph-name="q" unicode="q" horiz-adv-x="524" 
d="M224 -6q-91 0 -133 61t-42 192q0 79 15 131t45.5 83t76.5 43t108 12q40 0 84 -4t74 -9q19 -3 28.5 -9t9.5 -24v-43h-38q3 -60 4 -120t1 -117v-360h-77q-11 0 -17.5 6t-6.5 17v184q-26 -18 -56.5 -30.5t-75.5 -12.5zM356 434q-15 2 -32.5 2.5t-31.5 0.5q-37 0 -63.5 -7
t-44 -27.5t-25.5 -57.5t-8 -96q0 -50 6 -83.5t18 -54t31.5 -29.5t46.5 -9q32 0 57.5 10.5t45.5 24.5v326z" />
    <glyph glyph-name="r" unicode="r" horiz-adv-x="351" 
d="M292 512q20 0 27 -6.5t7 -17.5v-67q-7 1 -14 1h-13q-41 0 -74.5 -13t-62.5 -44v-365h-77q-24 0 -24 23v486h61q13 0 19 -5.5t9 -19.5l4 -44q23 28 59 50t79 22z" />
    <glyph glyph-name="s" unicode="s" horiz-adv-x="442" 
d="M45 83q32 -4 71 -7.5t76 -3.5q66 0 89 17t23 54q0 17 -4.5 28.5t-16.5 20t-32.5 15.5t-52.5 15q-35 9 -64.5 18.5t-50.5 25.5t-32.5 40.5t-11.5 63.5q0 81 47 115.5t132 34.5q17 0 37 -1.5t39 -4t35.5 -6t27.5 -7.5q11 -5 15.5 -11t4.5 -19v-43q-45 5 -78.5 7.5
t-60.5 2.5q-57 0 -79.5 -15t-22.5 -48q0 -18 6 -29.5t19 -19.5t34 -14.5t50 -13.5q34 -9 63 -18.5t50 -25t32.5 -41t11.5 -65.5q0 -44 -13.5 -74.5t-38.5 -49.5t-59.5 -27t-76.5 -8q-18 0 -39.5 1.5t-42.5 4.5t-39 6.5t-28 7.5q-12 5 -16 12.5t-4 18.5v43z" />
    <glyph glyph-name="t" unicode="t" horiz-adv-x="349" 
d="M313 3q-23 -6 -43.5 -9t-42.5 -3q-72 0 -104.5 32t-32.5 101v305h-35q-24 0 -24 23v57h61l5 132h70q24 0 24 -23v-109h98q11 0 17.5 -6t6.5 -17v-57h-122v-300q0 -27 9 -42t36 -15q17 0 28.5 0.5t21.5 0.5q27 0 27 -23v-47z" />
    <glyph glyph-name="u" unicode="u" horiz-adv-x="524" 
d="M439 509q24 0 24 -23v-486h-61q-11 0 -18.5 5t-9.5 20l-4 31q-62 -67 -159 -67q-41 0 -70 12.5t-47 35t-26.5 55t-8.5 71.5v346h77q11 0 17.5 -6t6.5 -17v-315q0 -52 22 -74.5t64 -22.5q41 0 70 16.5t46 33.5v385h77z" />
    <glyph glyph-name="v" unicode="v" horiz-adv-x="476" 
d="M205 0q-14 0 -19.5 5.5t-10.5 16.5q-54 118 -94 241t-55 246h82q21 0 24 -23q6 -48 17 -100t24.5 -104.5t30.5 -102.5t35 -92q19 43 36 96t31.5 109.5t25.5 112t17 104.5h76q21 0 21 -22q-1 -11 -3 -24.5t-5 -30.5q-20 -107 -57.5 -215.5t-89.5 -216.5h-86z" />
    <glyph glyph-name="w" unicode="w" horiz-adv-x="700" 
d="M368 467q16 0 23 -5t12 -22l90 -334q13 44 25 96.5t22 106.5t17 106t12 94h73q14 0 18 -6.5t3 -17.5q-1 -12 -3 -26.5t-4 -29.5q-15 -100 -43 -211.5t-70 -217.5h-78q-11 0 -16.5 5.5t-8.5 16.5l-90 328l-96 -350h-76q-14 0 -19 5.5t-9 16.5q-22 57 -40.5 118
t-33.5 123.5t-26 124.5t-17 121h79q22 0 24 -23q4 -41 10.5 -89t16 -98.5t21 -100t24.5 -92.5l98 361h62z" />
    <glyph glyph-name="x" unicode="x" horiz-adv-x="479" 
d="M370 0q-14 0 -18 7t-7 15q-21 53 -45 98.5t-62 93.5q-42 -52 -70 -109t-46 -105h-70q-9 0 -17 3.5t-8 14.5q0 8 7 24q24 57 60 113.5t84 107.5q-20 23 -42.5 52.5t-43.5 62t-38.5 66.5t-27.5 65h88q12 0 17.5 -6t9.5 -16q12 -29 22.5 -51.5t22 -42.5t25 -40.5t31.5 -44.5
q32 42 62 95t48 106h68q10 0 17.5 -3.5t7.5 -14.5q0 -3 -1.5 -8.5t-6.5 -18.5q-9 -23 -24.5 -49.5t-34 -53.5t-38.5 -52.5t-38 -45.5q61 -65 100 -135t57 -128h-89z" />
    <glyph glyph-name="y" unicode="y" horiz-adv-x="480" 
d="M133 486q10 -58 19 -101t21 -85t30 -90t46 -114q38 91 62.5 196t38.5 217h75q13 0 17 -5.5t4 -13.5q0 -9 -2.5 -25t-4.5 -29q-17 -100 -43 -186.5t-52 -150.5q-33 -83 -63 -135.5t-59.5 -83.5t-59 -42.5t-60.5 -11.5q-12 0 -27 1.5t-22 5.5q-17 8 -17 27v46q12 -1 21 -1
h17q25 0 43.5 6.5t32.5 19t26 32t26 45.5q-33 57 -61 119.5t-50.5 127t-39 128.5t-24.5 126h81q15 0 19 -7.5t6 -15.5z" />
    <glyph glyph-name="z" unicode="z" horiz-adv-x="457" 
d="M46 509h340q28 0 28 -29v-46q-37 -46 -73.5 -94t-70.5 -94t-64 -88.5t-54 -77.5h242q11 0 17.5 -6t6.5 -17v-57h-354q-24 0 -24 23v49q25 39 57 84.5t66.5 92.5t70 93t68.5 87h-233q-23 0 -23 23v57z" />
    <glyph glyph-name="braceleft" unicode="{" horiz-adv-x="338" 
d="M133 345q32 -16 43 -44t11 -60v-164q0 -44 11 -65t53 -21q11 0 23 0.5t15 0.5q14 0 18 -6.5t4 -16.5v-38q-10 -6 -22.5 -9.5t-25 -5.5t-24.5 -2.5t-21 -0.5q-39 0 -63.5 10t-38 28.5t-18.5 43.5t-5 55v194q0 27 -10.5 39t-25.5 16t-15 18v67q19 1 35 12.5t16 45.5v193
q0 30 5 55t18.5 43.5t38.5 28.5t64 10q17 0 37.5 -2t37.5 -8q11 -5 14 -12.5t3 -17.5v-40q-16 2 -34 2h-26q-42 0 -53 -21t-11 -66v-159q0 -32 -11 -60t-43 -43z" />
    <glyph glyph-name="bar" unicode="|" horiz-adv-x="288" 
d="M191 -83h-71q-11 0 -17.5 6t-6.5 17v828h71q24 0 24 -23v-828z" />
    <glyph glyph-name="braceright" unicode="}" horiz-adv-x="338" 
d="M205 341q-32 16 -43 44t-11 60v163q0 44 -11 65t-53 21q-11 0 -23 -0.5t-15 -0.5q-14 0 -18 6.5t-4 16.5v38q10 6 22.5 9.5t25 5.5t24.5 2.5t21 0.5q39 0 63.5 -10t38 -28.5t18.5 -43.5t5 -55v-193q0 -27 10.5 -39t25.5 -16q8 -2 11.5 -6t3.5 -12v-67q-19 -1 -35 -12.5
t-16 -45.5v-194q0 -30 -5 -55t-18.5 -43.5t-38.5 -28.5t-64 -10q-17 0 -37.5 2t-37.5 8q-11 5 -14 12.5t-3 17.5v40q16 -2 34 -2h26q42 0 53 21t11 66v160q0 32 11 60t43 43z" />
    <glyph glyph-name="asciitilde" unicode="~" horiz-adv-x="536" 
d="M479 382q0 -55 -26.5 -91.5t-86.5 -36.5q-33 0 -57.5 11t-51.5 29l-40.5 27t-36.5 11q-28 0 -34.5 -21t-6.5 -55h-58q-16 0 -19.5 7t-3.5 21q0 55 26.5 91.5t86.5 36.5q33 0 57.5 -11t51.5 -29l40.5 -27t36.5 -11q28 0 34.5 21t6.5 55h58q16 0 19.5 -7t3.5 -21z" />
    <glyph glyph-name="uni00A0" unicode="&#xa0;" horiz-adv-x="202" 
 />
    <glyph glyph-name="exclamdown" unicode="&#xa1;" horiz-adv-x="263" 
d="M170 289q4 -38 6.5 -78t4 -79.5t2 -77.5t0.5 -71v-154h-79q-17 0 -20.5 15t-3.5 30v110q0 78 3.5 163.5t11.5 165.5h52q20 0 23 -24zM64 464q0 35 16 49.5t51 14.5q36 0 51.5 -14.5t15.5 -49.5q0 -34 -16 -48.5t-51 -14.5t-51 14.5t-16 48.5z" />
    <glyph glyph-name="cent" unicode="&#xa2;" horiz-adv-x="536" 
d="M328 165q30 0 58.5 4t41.5 4q27 0 27 -25v-41q-23 -9 -57.5 -15.5t-76.5 -8.5l-8 -95h-39q-19 0 -19 20l6 79q-45 7 -76.5 27t-50.5 52.5t-27.5 77.5t-8.5 101q0 139 50 202.5t159 63.5l8 82h38q19 0 19 -16l-7 -70q47 -5 67.5 -15t20.5 -30v-42q-23 3 -47 5.5t-47 3.5z
M190 350q0 -45 5 -77t15 -53t24.5 -32.5t34.5 -16.5l31 358q-30 -3 -50.5 -13t-34 -30.5t-19.5 -53.5t-6 -82z" />
    <glyph glyph-name="sterling" unicode="&#xa3;" horiz-adv-x="536" 
d="M86 87q32 38 53.5 83.5t21.5 102.5q0 16 -3 34h-60q-24 0 -24 23v53h71q-8 29 -12 57.5t-4 52.5q0 96 47.5 148t150.5 52q27 0 53.5 -2.5t47.5 -8.5t34 -16t13 -25v-48q-27 5 -60.5 8t-67.5 3q-66 0 -92.5 -28.5t-26.5 -91.5q0 -23 4 -48t11 -53h143q24 0 24 -22v-54
h-155q1 -8 1.5 -15t0.5 -15q0 -104 -69 -190h282q16 0 20 -10t4 -27v-50h-384q-24 0 -24 23v64z" />
    <glyph glyph-name="currency" unicode="&#xa4;" horiz-adv-x="536" 
d="M268 452q-57 0 -83.5 -31.5t-26.5 -81.5q0 -49 26.5 -80.5t83.5 -31.5t83.5 31.5t26.5 80.5q0 50 -26.5 81.5t-83.5 31.5zM268 151q-61 0 -104 25l-71 -71l-45 44q-12 11 -1 22l58 60q-30 43 -30 108t30 109l-69 69l42 43q12 14 24 2l62 -60q44 26 104 26t104 -26l71 71
l42 -41q15 -13 2 -26l-56 -58q30 -44 30 -109t-30 -108l69 -69l-42 -44q-13 -13 -24 -1l-62 60q-44 -26 -104 -26z" />
    <glyph glyph-name="yen" unicode="&#xa5;" horiz-adv-x="536" 
d="M180 326q-51 88 -89.5 171.5t-65.5 179.5h88q13 0 17 -6t9 -20q29 -87 59 -160.5t65 -136.5q22 41 43 86t38 88.5t30 82t19 66.5h73q22 0 22 -18q0 -8 -3.5 -19.5t-7.5 -22.5q-12 -35 -42 -108.5t-96 -182.5h101q23 0 23 -21v-45h-155v-92h133q22 0 22 -21v-44h-155v-103
h-73q-23 0 -23 22v81h-133q-22 0 -22 21v44h155v92h-133q-22 0 -22 22v44h123z" />
    <glyph glyph-name="brokenbar" unicode="&#xa6;" horiz-adv-x="288" 
d="M191 -83h-71q-11 0 -17.5 6t-6.5 17v310h71q24 0 24 -23v-310zM191 435h-71q-11 0 -17.5 6t-6.5 17v310h71q24 0 24 -23v-310z" />
    <glyph glyph-name="section" unicode="&#xa7;" horiz-adv-x="523" 
d="M384 304q0 23 -7.5 39t-26 28.5t-51 23.5t-82.5 24q-41 -17 -58 -42t-17 -62q0 -23 7 -39t26 -28.5t51 -23t83 -23.5q39 17 57 41.5t18 61.5zM147 455q-34 18 -51 42.5t-17 66.5q0 40 14 67t38.5 43.5t58.5 24t73 7.5q19 0 40 -1.5t40.5 -4.5t35.5 -6.5t26 -7.5
q11 -5 16 -11t5 -20v-43q-49 5 -82.5 8t-62.5 3q-53 0 -80.5 -12t-27.5 -47q0 -18 7.5 -28.5t22 -18t36 -14t48.5 -14.5q45 -14 80.5 -27.5t60.5 -33t38 -47.5t13 -70q0 -54 -24 -87t-76 -59q36 -18 55 -44.5t19 -71.5t-16.5 -74t-45.5 -45.5t-67.5 -23t-83.5 -6.5
q-29 0 -59 2.5t-55 8.5t-41 16.5t-16 25.5v44q38 -6 83 -9.5t82 -3.5q60 0 91.5 13t31.5 53q0 18 -7 29t-21 19.5t-37 15.5t-54 16q-51 15 -87.5 30.5t-59.5 36t-33.5 47.5t-10.5 64q0 54 23.5 87.5t76.5 59.5z" />
    <glyph glyph-name="dieresis" unicode="&#xa8;" horiz-adv-x="434" 
d="M181 644q0 -29 -13.5 -41.5t-43.5 -12.5q-31 0 -44.5 12.5t-13.5 41.5t13.5 41.5t44.5 12.5q30 0 43.5 -12.5t13.5 -41.5zM368 644q0 -29 -13.5 -41.5t-43.5 -12.5q-31 0 -44.5 12.5t-13.5 41.5t13.5 41.5t44.5 12.5q30 0 43.5 -12.5t13.5 -41.5z" />
    <glyph glyph-name="copyright" unicode="&#xa9;" horiz-adv-x="786" 
d="M123 346q0 -62 14.5 -114.5t46.5 -91t83.5 -60.5t125.5 -22t125.5 22t83.5 60.5t46.5 91t14.5 114.5q0 61 -14.5 114t-46.5 91.5t-83.5 60.5t-125.5 22t-125.5 -22t-83.5 -60.5t-46.5 -91.5t-14.5 -114zM506 170q-15 -7 -43 -12.5t-61 -5.5q-84 0 -123 46t-39 148
q0 105 42 150t122 45q20 0 38.5 -1.5t32 -5.5t21.5 -11t8 -18v-39q-25 3 -43 4t-37 1q-24 0 -43 -5t-31.5 -19t-19 -38t-6.5 -62q0 -42 7.5 -67t20 -37.5t30 -16.5t38.5 -4q24 0 38 2t28 2q20 0 20 -19v-37zM736 346q0 -84 -23 -150.5t-67.5 -112.5t-108 -70t-144.5 -24
t-144.5 24t-108 70t-67.5 112.5t-23 150.5t23 150.5t67.5 112.5t108 70t144.5 24t144.5 -24t108 -70t67.5 -112.5t23 -150.5z" />
    <glyph glyph-name="ordfeminine" unicode="&#xaa;" horiz-adv-x="364" 
d="M236 529h-61q-37 0 -52.5 -14t-15.5 -38q0 -48 52 -48q25 0 46.5 12t30.5 25v63zM286 313q11 0 17.5 -6t6.5 -17v-39h-235q-11 0 -17.5 5.5t-6.5 16.5v40h235zM242 419q-19 -18 -44 -32t-57 -14q-48 0 -75 25t-27 74q0 59 36.5 82.5t99.5 23.5h61v19q0 33 -21 41t-53 8
q-27 0 -46.5 -3t-33.5 -3q-11 0 -15 5t-4 11v34q22 7 52 11.5t61 4.5q73 0 103.5 -29.5t30.5 -78.5v-220h-44q-8 0 -13 3.5t-8 14.5z" />
    <glyph glyph-name="guillemotleft" unicode="&#xab;" horiz-adv-x="436" 
d="M217 69h-69q-18 0 -26.5 17t-15.5 32l-66 141l93 190h64q10 0 15 -7t0 -16l-77 -167zM398 69h-69q-18 0 -26.5 17t-15.5 32l-66 141l93 190h64q10 0 15 -7t0 -16l-77 -167z" />
    <glyph glyph-name="logicalnot" unicode="&#xac;" horiz-adv-x="536" 
d="M436 442q23 0 23 -23v-231h-64q-23 0 -23 23v147h-280q-24 0 -24 23v61h368z" />
    <glyph glyph-name="uni00AD" unicode="&#xad;" horiz-adv-x="385" 
d="M317 318q24 0 24 -23v-67h-273q-24 0 -24 23v67h273z" />
    <glyph glyph-name="registered" unicode="&#xae;" horiz-adv-x="491" 
d="M214 528h29q17 0 25.5 6.5t8.5 26.5q0 21 -9 26.5t-28 5.5h-12t-14 -1v-64zM181 414q-14 0 -14 14v195q17 3 39.5 5t37.5 2q82 0 82 -69q0 -22 -9.5 -36t-26.5 -22q15 -20 29 -46t21 -43h-40q-10 0 -13 3t-5 8q-6 14 -16.5 34.5t-19.5 33.5h-32v-79h-33zM245 353
q76 0 117 43t41 123t-41 123t-117 43t-117 -43t-41 -123t41 -123t117 -43zM245 307q-97 0 -152.5 56.5t-55.5 155.5t55.5 155.5t152.5 56.5t152.5 -56.5t55.5 -155.5t-55.5 -155.5t-152.5 -56.5z" />
    <glyph glyph-name="macron" unicode="&#xaf;" horiz-adv-x="434" 
d="M320 679q24 0 24 -23v-53h-230q-24 0 -24 23v53h230z" />
    <glyph glyph-name="degree" unicode="&#xb0;" horiz-adv-x="341" 
d="M171 494q36 0 52 20t16 52t-16 52t-52 20q-35 0 -52 -20t-17 -52q0 -36 16.5 -54t52.5 -18zM171 435q-60 0 -96 34t-36 97q0 59 35.5 95t96.5 36q60 0 95.5 -36t35.5 -95t-35.5 -95t-95.5 -36z" />
    <glyph glyph-name="plusminus" unicode="&#xb1;" horiz-adv-x="536" 
d="M445 82q23 0 23 -23v-59h-376q-24 0 -24 23v59h377zM92 319q-24 0 -24 23v59h155v163h67q23 0 23 -24v-139h131q24 0 24 -23v-59h-155v-163h-67q-23 0 -23 24v139h-131z" />
    <glyph glyph-name="twosuperior" unicode="&#xb2;" 
d="M82 613q-14 0 -18.5 6t-4.5 16v31q19 7 51.5 12.5t65.5 5.5q25 0 51 -4.5t47 -16.5t34.5 -32.5t13.5 -52.5q0 -35 -16 -60t-48 -47q-20 -14 -42 -27t-41.5 -28t-32.5 -32.5t-15 -39.5h175q23 0 23 -20v-43h-250q-10 0 -16.5 6t-6.5 15v22q0 30 8.5 53.5t23 43t34 35.5
t41.5 30q18 11 33.5 20.5t27 19t18.5 21t7 26.5q0 22 -16 35t-60 13q-29 0 -51 -4t-36 -4z" />
    <glyph glyph-name="threesuperior" unicode="&#xb3;" 
d="M134 453q-23 0 -23 21v41h56q21 0 34 5.5t20 13.5t9.5 18t2.5 19q0 26 -17.5 38t-57.5 12q-25 0 -49 -3t-35 -3q-14 0 -18.5 5.5t-4.5 15.5v31q19 7 50 12t66 5q75 0 108.5 -28t33.5 -77q0 -32 -13 -53.5t-39 -35.5q32 -16 46.5 -39t14.5 -58q0 -60 -39 -89.5t-114 -29.5
q-10 0 -23.5 0.5t-27 2t-26 3.5t-21.5 5q-14 5 -18 11t-4 15v35q26 -4 52.5 -6.5t50.5 -2.5q56 0 74 16t18 43q0 32 -19 44.5t-59 12.5h-28z" />
    <glyph glyph-name="acute" unicode="&#xb4;" horiz-adv-x="434" 
d="M183 573q-10 0 -14 6.5t1 16.5q14 34 29 65t32 60h82q17 0 17 -13q0 -7 -4 -14t-10 -15l-82 -106h-51z" />
    <glyph glyph-name="mu" unicode="&#xb5;" horiz-adv-x="526" 
d="M85 -170q-24 0 -24 23v656h77q11 0 17.5 -6t6.5 -17v-315q0 -51 22 -74t64 -23q41 0 70 16.5t46 33.5v385h77q24 0 24 -23v-486h-61q-12 0 -19 5.5t-9 19.5l-4 31q-20 -22 -53 -42t-85 -20q-14 0 -34.5 4.5t-37.5 21.5v-190h-77z" />
    <glyph glyph-name="paragraph" unicode="&#xb6;" horiz-adv-x="577" 
d="M489 -83h-59q-11 0 -18.5 6t-7.5 17v676q-14 1 -33 1.5t-39 0.5h-17.5t-19.5 -2v-699h-59q-11 0 -18.5 6t-7.5 17v334q-39 5 -69 18t-51 36.5t-32 59.5t-11 88q0 64 17.5 107t52 69t86.5 36.5t122 10.5q21 0 43.5 -1t44 -3t40 -4.5t31.5 -4.5q21 -4 33.5 -13.5
t12.5 -29.5v-29h-41v-697z" />
    <glyph glyph-name="periodcentered" unicode="&#xb7;" horiz-adv-x="250" 
d="M192 340q0 -34 -16 -48.5t-51 -14.5q-36 0 -51.5 14.5t-15.5 48.5t16 49t51 15t51 -15t16 -49z" />
    <glyph glyph-name="cedilla" unicode="&#xb8;" horiz-adv-x="434" 
d="M234 5l-24 -60l14 -3q35 -8 50.5 -23.5t15.5 -45.5q0 -15 -4.5 -28t-16.5 -23t-32.5 -15.5t-52.5 -5.5q-13 0 -22.5 1t-18.5 4q-13 4 -13 18v26h32q34 0 46 5t12 22q0 13 -8.5 18.5t-29.5 10.5l-9 2q-11 2 -15.5 5.5t-4.5 12.5q0 6 2 12t10 27l16 40h53z" />
    <glyph glyph-name="onesuperior" unicode="&#xb9;" 
d="M192 281q-10 0 -16 6t-6 15v295l-71 -26q-10 -4 -20 -4q-7 0 -12 4.5t-5 13.5v42l42 17q31 13 51 21l32.5 13t20.5 7t17 2q15 0 20.5 -9.5t5.5 -20.5v-376h-59z" />
    <glyph glyph-name="ordmasculine" unicode="&#xba;" horiz-adv-x="364" 
d="M287 313q24 0 24 -23v-39h-235q-23 0 -23 23v39h234zM182 433q35 0 50.5 22.5t15.5 84.5q0 61 -15.5 84t-50.5 23t-50.5 -23t-15.5 -84q0 -62 15.5 -84.5t50.5 -22.5zM182 373q-70 0 -105.5 38t-35.5 129q0 90 35.5 128t105.5 38t105.5 -38t35.5 -128q0 -91 -35.5 -129
t-105.5 -38z" />
    <glyph glyph-name="guillemotright" unicode="&#xbb;" horiz-adv-x="436" 
d="M218 449h69q9 0 16 -5t11.5 -12.5t8.5 -16.5t7 -16l65 -140l-92 -190h-62q-10 0 -15 6t0 16l74 168zM37 449h69q17 0 23.5 -11.5t12.5 -23.5l72 -155l-92 -190h-62q-10 0 -15 6t0 16l74 168z" />
    <glyph glyph-name="onequarter" unicode="&#xbc;" horiz-adv-x="901" 
d="M192 281q-10 0 -16 6t-6 15v295l-71 -26q-10 -4 -20 -4q-7 0 -12 4.5t-5 13.5v42l42 17q31 13 51 21l32.5 13t20.5 7t17 2q15 0 20.5 -9.5t5.5 -20.5v-376h-59zM607 677h56q19 0 19 -17q0 -7 -4 -14l-394 -646h-56q-20 0 -20 17q0 6 5 14zM798 397q22 0 22 -21v-227h21
q21 0 21 -21v-36h-42v-91h-49q-22 0 -22 21v70h-169q-22 0 -22 21v35q9 27 25.5 60t39.5 67t52 65.5t63 56.5h60zM749 149v182q-46 -39 -78.5 -88t-47.5 -94h126z" />
    <glyph glyph-name="onehalf" unicode="&#xbd;" horiz-adv-x="901" 
d="M192 281q-10 0 -16 6t-6 15v295l-71 -26q-10 -4 -20 -4q-7 0 -12 4.5t-5 13.5v42l42 17q31 13 51 21l32.5 13t20.5 7t17 2q15 0 20.5 -9.5t5.5 -20.5v-376h-59zM584 677h56q19 0 19 -17q0 -7 -4 -14l-394 -646h-56q-20 0 -20 17q0 6 5 14zM605 333q-14 0 -18.5 6t-4.5 16
v31q19 7 51.5 12.5t65.5 5.5q25 0 51 -4.5t47 -16.5t34.5 -32.5t13.5 -52.5q0 -35 -16 -60t-48 -47q-20 -14 -42 -27t-41.5 -28t-32.5 -32.5t-15 -39.5h175q23 0 23 -20v-43h-250q-10 0 -16.5 6t-6.5 15v22q0 30 8.5 53.5t23 43t34 35.5t41.5 30q18 11 33.5 20.5t27 19
t18.5 21t7 26.5q0 22 -16 35t-60 13q-29 0 -51 -4t-36 -4z" />
    <glyph glyph-name="threequarters" unicode="&#xbe;" horiz-adv-x="901" 
d="M134 453q-23 0 -23 21v41h56q21 0 34 5.5t20 13.5t9.5 18t2.5 19q0 26 -17.5 38t-57.5 12q-25 0 -49 -3t-35 -3q-14 0 -18.5 5.5t-4.5 15.5v31q19 7 50 12t66 5q75 0 108.5 -28t33.5 -77q0 -32 -13 -53.5t-39 -35.5q32 -16 46.5 -39t14.5 -58q0 -60 -39 -89.5t-114 -29.5
q-10 0 -23.5 0.5t-27 2t-26 3.5t-21.5 5q-14 5 -18 11t-4 15v35q26 -4 52.5 -6.5t50.5 -2.5q56 0 74 16t18 43q0 32 -19 44.5t-59 12.5h-28zM625 677h56q19 0 19 -17q0 -7 -4 -14l-394 -646h-56q-20 0 -20 17q0 6 5 14zM798 397q22 0 22 -21v-227h21q21 0 21 -21v-36h-42
v-91h-49q-22 0 -22 21v70h-169q-22 0 -22 21v35q9 27 25.5 60t39.5 67t52 65.5t63 56.5h60zM749 149v182q-46 -39 -78.5 -88t-47.5 -94h126z" />
    <glyph glyph-name="questiondown" unicode="&#xbf;" horiz-adv-x="426" 
d="M271 314q29 0 29 -50q0 -23 -5 -41t-15.5 -35t-27 -34.5t-38.5 -38.5q-20 -20 -33.5 -34t-21.5 -26.5t-11.5 -25t-3.5 -29.5q0 -49 26.5 -69.5t82.5 -20.5q37 0 68 5.5t45 5.5q13 0 17 -6t4 -17v-49q-29 -11 -68.5 -20t-89.5 -9q-37 0 -70.5 7.5t-59.5 26t-41.5 50.5
t-15.5 81q0 30 6 54t17.5 44.5t27 38t35.5 35.5q28 26 45.5 43.5t27.5 33.5t13.5 34t5.5 46h51zM184 465q0 35 16 49.5t51 14.5q36 0 51.5 -14.5t15.5 -49.5q0 -34 -16 -48.5t-51 -14.5t-51 14.5t-16 48.5z" />
    <glyph glyph-name="Agrave" unicode="&#xc0;" horiz-adv-x="553" 
d="M416 23q-7 45 -14.5 86.5t-15.5 83.5h-223q-10 -48 -18 -97t-15 -96h-77q-22 0 -21 25q3 30 9 59q18 97 40 185.5t45 166t46.5 142.5t44.5 115h100q12 0 18 -5t10 -16q21 -51 46 -122t49.5 -158t46.5 -186.5t38 -205.5h-85q-21 0 -24 23zM274 607q-24 -71 -49.5 -153.5
t-48.5 -178.5h197q-23 96 -48.5 178.5t-50.5 153.5zM146 883h99q14 0 20 -6t16 -23q14 -24 27.5 -51.5t24.5 -57.5h-60q-11 0 -17.5 4t-13.5 13z" />
    <glyph glyph-name="Aacute" unicode="&#xc1;" horiz-adv-x="553" 
d="M416 23q-7 45 -14.5 86.5t-15.5 83.5h-223q-10 -48 -18 -97t-15 -96h-77q-22 0 -21 25q3 30 9 59q18 97 40 185.5t45 166t46.5 142.5t44.5 115h100q12 0 18 -5t10 -16q21 -51 46 -122t49.5 -158t46.5 -186.5t38 -205.5h-85q-21 0 -24 23zM274 607q-24 -71 -49.5 -153.5
t-48.5 -178.5h197q-23 96 -48.5 178.5t-50.5 153.5zM239 745q-22 0 -14 22q2 6 8.5 19t16 29.5t20 34.5t21.5 33h83q18 0 18 -14q0 -12 -12 -25l-87 -99h-54z" />
    <glyph glyph-name="Acircumflex" unicode="&#xc2;" horiz-adv-x="553" 
d="M416 23q-7 45 -14.5 86.5t-15.5 83.5h-223q-10 -48 -18 -97t-15 -96h-77q-22 0 -21 25q3 30 9 59q18 97 40 185.5t45 166t46.5 142.5t44.5 115h100q12 0 18 -5t10 -16q21 -51 46 -122t49.5 -158t46.5 -186.5t38 -205.5h-85q-21 0 -24 23zM274 607q-24 -71 -49.5 -153.5
t-48.5 -178.5h197q-23 96 -48.5 178.5t-50.5 153.5zM166 745q-14 0 -15 8.5t4 18.5q3 6 11.5 18.5t19.5 28.5t23 33t23 31h72q11 0 17.5 -4t11.5 -11q7 -9 17.5 -24t21.5 -32.5t21.5 -35t18.5 -31.5h-60q-11 0 -16.5 3.5t-13.5 14.5l-46 61l-60 -79h-50z" />
    <glyph glyph-name="Atilde" unicode="&#xc3;" horiz-adv-x="553" 
d="M416 23q-7 45 -14.5 86.5t-15.5 83.5h-223q-10 -48 -18 -97t-15 -96h-77q-22 0 -21 25q3 30 9 59q18 97 40 185.5t45 166t46.5 142.5t44.5 115h100q12 0 18 -5t10 -16q21 -51 46 -122t49.5 -158t46.5 -186.5t38 -205.5h-85q-21 0 -24 23zM274 607q-24 -71 -49.5 -153.5
t-48.5 -178.5h197q-23 96 -48.5 178.5t-50.5 153.5zM429 848q0 -43 -20 -70.5t-64 -27.5q-28 0 -46.5 10t-34.5 22q-12 9 -20 14.5t-13 8.5t-9.5 4t-10.5 1q-10 0 -15 -5t-7.5 -13t-3 -18.5t-0.5 -21.5h-44q-11 0 -14.5 5.5t-3.5 18.5q0 43 20 70.5t64 27.5q28 0 46.5 -10
t34.5 -22q12 -9 20 -14.5t13 -8.5t9.5 -4t10.5 -1q19 0 22.5 18t3.5 40h44q11 0 14.5 -5.5t3.5 -18.5z" />
    <glyph glyph-name="Adieresis" unicode="&#xc4;" horiz-adv-x="553" 
d="M416 23q-7 45 -14.5 86.5t-15.5 83.5h-223q-10 -48 -18 -97t-15 -96h-77q-22 0 -21 25q3 30 9 59q18 97 40 185.5t45 166t46.5 142.5t44.5 115h100q12 0 18 -5t10 -16q21 -51 46 -122t49.5 -158t46.5 -186.5t38 -205.5h-85q-21 0 -24 23zM274 607q-24 -71 -49.5 -153.5
t-48.5 -178.5h197q-23 96 -48.5 178.5t-50.5 153.5zM240 812q0 -29 -13.5 -41.5t-43.5 -12.5q-31 0 -44.5 12.5t-13.5 41.5t13.5 41.5t44.5 12.5q30 0 43.5 -12.5t13.5 -41.5zM427 812q0 -29 -13.5 -41.5t-43.5 -12.5q-31 0 -44.5 12.5t-13.5 41.5t13.5 41.5t44.5 12.5
q30 0 43.5 -12.5t13.5 -41.5z" />
    <glyph glyph-name="Aring" unicode="&#xc5;" horiz-adv-x="553" 
d="M416 23q-7 45 -14.5 86.5t-15.5 83.5h-223q-10 -48 -18 -97t-15 -96h-77q-22 0 -21 25q3 30 9 59q18 97 40 185.5t45 166t46.5 142.5t44.5 115h100q12 0 18 -5t10 -16q21 -51 46 -122t49.5 -158t46.5 -186.5t38 -205.5h-85q-21 0 -24 23zM274 607q-24 -71 -49.5 -153.5
t-48.5 -178.5h197q-23 96 -48.5 178.5t-50.5 153.5zM276 773q50 0 50 50q0 49 -50 49t-50 -49q0 -50 50 -50zM276 726q-52 0 -77 26.5t-25 70.5q0 43 25 69.5t77 26.5t77 -26.5t25 -69.5q0 -44 -25 -70.5t-77 -26.5z" />
    <glyph glyph-name="AE" unicode="&#xc6;" horiz-adv-x="798" 
d="M52 0q-11 0 -16.5 6.5t-3.5 16.5q4 15 8 29.5t9 28.5q30 94 65.5 182t72.5 166.5t74.5 145.5t71.5 118h390q24 0 24 -23v-67h-264v-207h214q24 0 24 -23v-68h-238v-215h250q25 0 25 -23v-67h-351q-24 0 -24 23v170h-194q-18 -51 -34 -99.5t-28 -93.5h-75zM383 615
q-51 -83 -93 -168t-74 -168h167v336z" />
    <glyph glyph-name="Ccedilla" unicode="&#xc7;" horiz-adv-x="503" 
d="M310 703q35 0 72.5 -5.5t58.5 -14.5q12 -5 16.5 -13t4.5 -21v-47q-29 4 -64.5 7.5t-73.5 3.5q-45 0 -76 -12.5t-50 -42.5t-27 -80.5t-8 -126.5q0 -84 10 -137t29.5 -82.5t49.5 -40.5t71 -11q42 0 73 5t47 5q25 0 25 -24v-49q-26 -11 -62.5 -18.5t-83.5 -9.5l-17 -44
l14 -3q35 -8 50.5 -23.5t15.5 -45.5q0 -15 -4.5 -28t-16.5 -23t-32.5 -15.5t-52.5 -5.5q-13 0 -22.5 1t-18.5 4q-13 4 -13 18v26h32q34 0 46 5t12 21q0 14 -8.5 19.5t-29.5 10.5l-9 2q-11 2 -15.5 5.5t-4.5 13.5q0 5 2 11.5t10 26.5l10 26q-57 5 -97.5 28t-66.5 66
t-38 107.5t-12 153.5q0 96 14 164t44.5 111t78.5 62.5t117 19.5z" />
    <glyph glyph-name="Egrave" unicode="&#xc8;" horiz-adv-x="513" 
d="M438 693q23 0 23 -23v-63h-286v-213h237q23 0 23 -23v-64h-260v-221h274q11 0 17.5 -6t6.5 -17v-63h-379q-24 0 -24 23v670h368zM135 883h99q14 0 20 -6t16 -23q14 -24 27.5 -51.5t24.5 -57.5h-60q-11 0 -17.5 4t-13.5 13z" />
    <glyph glyph-name="Eacute" unicode="&#xc9;" horiz-adv-x="513" 
d="M438 693q23 0 23 -23v-63h-286v-213h237q23 0 23 -23v-64h-260v-221h274q11 0 17.5 -6t6.5 -17v-63h-379q-24 0 -24 23v670h368zM228 745q-22 0 -14 22q2 6 8.5 19t16 29.5t20 34.5t21.5 33h83q18 0 18 -14q0 -12 -12 -25l-87 -99h-54z" />
    <glyph glyph-name="Ecircumflex" unicode="&#xca;" horiz-adv-x="513" 
d="M438 693q23 0 23 -23v-63h-286v-213h237q23 0 23 -23v-64h-260v-221h274q11 0 17.5 -6t6.5 -17v-63h-379q-24 0 -24 23v670h368zM155 745q-14 0 -15 8.5t4 18.5q3 6 11.5 18.5t19.5 28.5t23 33t23 31h72q11 0 17.5 -4t11.5 -11q7 -9 17.5 -24t21.5 -32.5t21.5 -35
t18.5 -31.5h-60q-11 0 -16.5 3.5t-13.5 14.5l-46 61l-60 -79h-50z" />
    <glyph glyph-name="Edieresis" unicode="&#xcb;" horiz-adv-x="513" 
d="M438 693q23 0 23 -23v-63h-286v-213h237q23 0 23 -23v-64h-260v-221h274q11 0 17.5 -6t6.5 -17v-63h-379q-24 0 -24 23v670h368zM229 812q0 -29 -13.5 -41.5t-43.5 -12.5q-31 0 -44.5 12.5t-13.5 41.5t13.5 41.5t44.5 12.5q30 0 43.5 -12.5t13.5 -41.5zM416 812
q0 -29 -13.5 -41.5t-43.5 -12.5q-31 0 -44.5 12.5t-13.5 41.5t13.5 41.5t44.5 12.5q30 0 43.5 -12.5t13.5 -41.5z" />
    <glyph glyph-name="Igrave" unicode="&#xcc;" horiz-adv-x="245" 
d="M94 0q-24 0 -24 23v670h81q24 0 24 -23v-670h-81zM-6 883h99q14 0 20 -6t16 -23q14 -24 27.5 -51.5t24.5 -57.5h-60q-11 0 -17.5 4t-13.5 13z" />
    <glyph glyph-name="Iacute" unicode="&#xcd;" horiz-adv-x="245" 
d="M94 0q-24 0 -24 23v670h81q24 0 24 -23v-670h-81zM86 745q-22 0 -14 22q2 6 8.5 19t16 29.5t20 34.5t21.5 33h83q18 0 18 -14q0 -12 -12 -25l-87 -99h-54z" />
    <glyph glyph-name="Icircumflex" unicode="&#xce;" horiz-adv-x="245" 
d="M94 0q-24 0 -24 23v670h81q24 0 24 -23v-670h-81zM14 745q-14 0 -15 8.5t4 18.5q3 6 11.5 18.5t19.5 28.5t23 33t23 31h72q11 0 17.5 -4t11.5 -11q7 -9 17.5 -24t21.5 -32.5t21.5 -35t18.5 -31.5h-60q-11 0 -16.5 3.5t-13.5 14.5l-46 61l-60 -79h-50z" />
    <glyph glyph-name="Idieresis" unicode="&#xcf;" horiz-adv-x="245" 
d="M94 0q-24 0 -24 23v670h81q24 0 24 -23v-670h-81zM88 812q0 -29 -13.5 -41.5t-43.5 -12.5q-31 0 -44.5 12.5t-13.5 41.5t13.5 41.5t44.5 12.5q30 0 43.5 -12.5t13.5 -41.5zM275 812q0 -29 -13.5 -41.5t-43.5 -12.5q-31 0 -44.5 12.5t-13.5 41.5t13.5 41.5t44.5 12.5
q30 0 43.5 -12.5t13.5 -41.5z" />
    <glyph glyph-name="Eth" unicode="&#xd0;" horiz-adv-x="628" 
d="M96 393v288q46 8 103 13.5t105 5.5q70 0 121 -18t83.5 -59.5t48 -108.5t15.5 -166q0 -96 -15.5 -162t-47.5 -107.5t-82.5 -60t-120.5 -18.5h-186q-24 0 -24 23v298h-54q-22 0 -22 21v51h76zM300 616q-26 0 -53 -2t-46 -5v-216h97q23 0 23 -21v-51h-120v-237h95
q43 0 75 10t53 38.5t31 81t10 136.5q0 81 -8.5 132.5t-28 81t-51 41t-77.5 11.5z" />
    <glyph glyph-name="Ntilde" unicode="&#xd1;" horiz-adv-x="613" 
d="M543 0h-83q-17 0 -27 23q-16 34 -38 78t-47 92t-51 97.5t-50 94t-44 81t-33 59.5v-525h-76q-24 0 -24 23v670h84q11 0 17 -6.5t12 -16.5q13 -23 32.5 -58t43 -77t48.5 -89t49.5 -93.5t47 -90t39.5 -78.5v509h76q24 0 24 -23v-670zM457 848q0 -43 -20 -70.5t-64 -27.5
q-28 0 -46.5 10t-34.5 22q-12 9 -20 14.5t-13 8.5t-9.5 4t-10.5 1q-10 0 -15 -5t-7.5 -13t-3 -18.5t-0.5 -21.5h-44q-11 0 -14.5 5.5t-3.5 18.5q0 43 20 70.5t64 27.5q28 0 46.5 -10t34.5 -22q12 -9 20 -14.5t13 -8.5t9.5 -4t10.5 -1q19 0 22.5 18t3.5 40h44q11 0 14.5 -5.5
t3.5 -18.5z" />
    <glyph glyph-name="Ograve" unicode="&#xd2;" horiz-adv-x="613" 
d="M163 346q0 -77 6.5 -128.5t23 -83t44 -45t69.5 -13.5t69.5 13.5t44 45t23.5 83t7 128.5t-7 128.5t-23.5 83t-44 45t-69.5 13.5t-69.5 -13.5t-44 -45t-23 -83t-6.5 -128.5zM557 346q0 -111 -18 -181t-51 -109t-79.5 -53.5t-102.5 -14.5t-102 14.5t-79 53.5t-51 109
t-18 181t18 181t51 109t79 53.5t102 14.5t102.5 -14.5t79.5 -53.5t51 -109t18 -181zM176 883h99q14 0 20 -6t16 -23q14 -24 27.5 -51.5t24.5 -57.5h-60q-11 0 -17.5 4t-13.5 13z" />
    <glyph glyph-name="Oacute" unicode="&#xd3;" horiz-adv-x="613" 
d="M163 346q0 -77 6.5 -128.5t23 -83t44 -45t69.5 -13.5t69.5 13.5t44 45t23.5 83t7 128.5t-7 128.5t-23.5 83t-44 45t-69.5 13.5t-69.5 -13.5t-44 -45t-23 -83t-6.5 -128.5zM557 346q0 -111 -18 -181t-51 -109t-79.5 -53.5t-102.5 -14.5t-102 14.5t-79 53.5t-51 109
t-18 181t18 181t51 109t79 53.5t102 14.5t102.5 -14.5t79.5 -53.5t51 -109t18 -181zM269 745q-22 0 -14 22q2 6 8.5 19t16 29.5t20 34.5t21.5 33h83q18 0 18 -14q0 -12 -12 -25l-87 -99h-54z" />
    <glyph glyph-name="Ocircumflex" unicode="&#xd4;" horiz-adv-x="613" 
d="M163 346q0 -77 6.5 -128.5t23 -83t44 -45t69.5 -13.5t69.5 13.5t44 45t23.5 83t7 128.5t-7 128.5t-23.5 83t-44 45t-69.5 13.5t-69.5 -13.5t-44 -45t-23 -83t-6.5 -128.5zM557 346q0 -111 -18 -181t-51 -109t-79.5 -53.5t-102.5 -14.5t-102 14.5t-79 53.5t-51 109
t-18 181t18 181t51 109t79 53.5t102 14.5t102.5 -14.5t79.5 -53.5t51 -109t18 -181zM196 745q-14 0 -15 8.5t4 18.5q3 6 11.5 18.5t19.5 28.5t23 33t23 31h72q11 0 17.5 -4t11.5 -11q7 -9 17.5 -24t21.5 -32.5t21.5 -35t18.5 -31.5h-60q-11 0 -16.5 3.5t-13.5 14.5l-46 61
l-60 -79h-50z" />
    <glyph glyph-name="Otilde" unicode="&#xd5;" horiz-adv-x="613" 
d="M163 346q0 -77 6.5 -128.5t23 -83t44 -45t69.5 -13.5t69.5 13.5t44 45t23.5 83t7 128.5t-7 128.5t-23.5 83t-44 45t-69.5 13.5t-69.5 -13.5t-44 -45t-23 -83t-6.5 -128.5zM557 346q0 -111 -18 -181t-51 -109t-79.5 -53.5t-102.5 -14.5t-102 14.5t-79 53.5t-51 109
t-18 181t18 181t51 109t79 53.5t102 14.5t102.5 -14.5t79.5 -53.5t51 -109t18 -181zM459 848q0 -43 -20 -70.5t-64 -27.5q-28 0 -46.5 10t-34.5 22q-12 9 -20 14.5t-13 8.5t-9.5 4t-10.5 1q-10 0 -15 -5t-7.5 -13t-3 -18.5t-0.5 -21.5h-44q-11 0 -14.5 5.5t-3.5 18.5
q0 43 20 70.5t64 27.5q28 0 46.5 -10t34.5 -22q12 -9 20 -14.5t13 -8.5t9.5 -4t10.5 -1q19 0 22.5 18t3.5 40h44q11 0 14.5 -5.5t3.5 -18.5z" />
    <glyph glyph-name="Odieresis" unicode="&#xd6;" horiz-adv-x="613" 
d="M163 346q0 -77 6.5 -128.5t23 -83t44 -45t69.5 -13.5t69.5 13.5t44 45t23.5 83t7 128.5t-7 128.5t-23.5 83t-44 45t-69.5 13.5t-69.5 -13.5t-44 -45t-23 -83t-6.5 -128.5zM557 346q0 -111 -18 -181t-51 -109t-79.5 -53.5t-102.5 -14.5t-102 14.5t-79 53.5t-51 109
t-18 181t18 181t51 109t79 53.5t102 14.5t102.5 -14.5t79.5 -53.5t51 -109t18 -181zM270 812q0 -29 -13.5 -41.5t-43.5 -12.5q-31 0 -44.5 12.5t-13.5 41.5t13.5 41.5t44.5 12.5q30 0 43.5 -12.5t13.5 -41.5zM457 812q0 -29 -13.5 -41.5t-43.5 -12.5q-31 0 -44.5 12.5
t-13.5 41.5t13.5 41.5t44.5 12.5q30 0 43.5 -12.5t13.5 -41.5z" />
    <glyph glyph-name="multiply" unicode="&#xd7;" horiz-adv-x="536" 
d="M329 341l120 -120l-44 -44q-16 -16 -34 0l-103 104l-120 -119l-44 44q-16 16 0 33l103 102l-120 121l45 44q16 16 33 0l103 -104l119 120l45 -44q8 -8 7.5 -16.5t-8.5 -16.5z" />
    <glyph glyph-name="Oslash" unicode="&#xd8;" horiz-adv-x="613" 
d="M542 726q10 0 13.5 -6.5t-1.5 -14.5l-51 -91q26 -41 40 -106t14 -163q0 -110 -18 -179.5t-51 -109t-79 -54t-102 -14.5q-46 0 -84.5 9t-69.5 32l-37 -64h-46q-11 0 -14.5 7t1.5 16l51 91q-25 42 -38.5 106.5t-13.5 160.5q0 111 18 181t51 109t78.5 53.5t100.5 14.5
q47 0 85 -8.5t69 -31.5l37 62h47zM450 344q0 53 -3 94t-10 67l-232 -391q17 -21 41.5 -29.5t58.5 -8.5q42 0 70 13.5t44.5 44.5t23.5 82.5t7 127.5zM163 345q0 -49 2.5 -88.5t9.5 -66.5l232 388q-17 21 -42 29.5t-59 8.5q-42 0 -69.5 -13t-44 -44.5t-23 -83.5t-6.5 -130z
" />
    <glyph glyph-name="Ugrave" unicode="&#xd9;" horiz-adv-x="594" 
d="M528 245q0 -132 -53.5 -194t-175.5 -62q-56 0 -99.5 12.5t-73 42t-45 78.5t-15.5 123v448h81q24 0 24 -23v-436q0 -36 5.5 -65t19.5 -49.5t38.5 -31t63.5 -10.5q38 0 62 10.5t38 30.5t19.5 49t5.5 67v458h81q11 0 17.5 -6t6.5 -17v-425zM167 883h99q14 0 20 -6t16 -23
q14 -24 27.5 -51.5t24.5 -57.5h-60q-11 0 -17.5 4t-13.5 13z" />
    <glyph glyph-name="Uacute" unicode="&#xda;" horiz-adv-x="594" 
d="M528 245q0 -132 -53.5 -194t-175.5 -62q-56 0 -99.5 12.5t-73 42t-45 78.5t-15.5 123v448h81q24 0 24 -23v-436q0 -36 5.5 -65t19.5 -49.5t38.5 -31t63.5 -10.5q38 0 62 10.5t38 30.5t19.5 49t5.5 67v458h81q11 0 17.5 -6t6.5 -17v-425zM260 745q-22 0 -14 22q2 6 8.5 19
t16 29.5t20 34.5t21.5 33h83q18 0 18 -14q0 -12 -12 -25l-87 -99h-54z" />
    <glyph glyph-name="Ucircumflex" unicode="&#xdb;" horiz-adv-x="594" 
d="M528 245q0 -132 -53.5 -194t-175.5 -62q-56 0 -99.5 12.5t-73 42t-45 78.5t-15.5 123v448h81q24 0 24 -23v-436q0 -36 5.5 -65t19.5 -49.5t38.5 -31t63.5 -10.5q38 0 62 10.5t38 30.5t19.5 49t5.5 67v458h81q11 0 17.5 -6t6.5 -17v-425zM187 745q-14 0 -15 8.5t4 18.5
q3 6 11.5 18.5t19.5 28.5t23 33t23 31h72q11 0 17.5 -4t11.5 -11q7 -9 17.5 -24t21.5 -32.5t21.5 -35t18.5 -31.5h-60q-11 0 -16.5 3.5t-13.5 14.5l-46 61l-60 -79h-50z" />
    <glyph glyph-name="Udieresis" unicode="&#xdc;" horiz-adv-x="594" 
d="M528 245q0 -132 -53.5 -194t-175.5 -62q-56 0 -99.5 12.5t-73 42t-45 78.5t-15.5 123v448h81q24 0 24 -23v-436q0 -36 5.5 -65t19.5 -49.5t38.5 -31t63.5 -10.5q38 0 62 10.5t38 30.5t19.5 49t5.5 67v458h81q11 0 17.5 -6t6.5 -17v-425zM261 812q0 -29 -13.5 -41.5
t-43.5 -12.5q-31 0 -44.5 12.5t-13.5 41.5t13.5 41.5t44.5 12.5q30 0 43.5 -12.5t13.5 -41.5zM448 812q0 -29 -13.5 -41.5t-43.5 -12.5q-31 0 -44.5 12.5t-13.5 41.5t13.5 41.5t44.5 12.5q30 0 43.5 -12.5t13.5 -41.5z" />
    <glyph glyph-name="Yacute" unicode="&#xdd;" horiz-adv-x="525" 
d="M234 0q-24 0 -24 23v240q-34 57 -62 109.5t-51 105t-42.5 105.5t-35.5 110h91q15 0 19.5 -6.5t8.5 -20.5q9 -32 22 -69t28.5 -77.5t34.5 -83t42 -84.5q23 43 44.5 91.5t39 95t30.5 87t18 67.5h78q14 0 20 -9.5t1 -23.5q-18 -57 -37 -107t-41 -97.5t-47.5 -94.5t-55.5 -98
v-263h-81zM226 745q-22 0 -14 22q2 6 8.5 19t16 29.5t20 34.5t21.5 33h83q18 0 18 -14q0 -12 -12 -25l-87 -99h-54z" />
    <glyph glyph-name="Thorn" unicode="&#xde;" horiz-adv-x="544" 
d="M94 0q-24 0 -24 23v670h79q11 0 17.5 -6t6.5 -17v-97q14 2 43.5 5t65.5 3q113 0 170 -49t57 -169q0 -119 -54 -173t-155 -54q-27 0 -61 3.5t-66 9.5v-149h-79zM173 231q26 -5 52.5 -8.5t52.5 -3.5q32 0 56 6.5t39.5 22.5t23.5 42.5t8 67.5q0 43 -8.5 70t-25.5 42t-42 20
t-57 5q-27 0 -54.5 -2.5t-44.5 -5.5v-256z" />
    <glyph glyph-name="germandbls" unicode="&#xdf;" horiz-adv-x="546" 
d="M272 728q94 0 148 -36t54 -114q0 -24 -5 -41.5t-14.5 -33t-23 -30.5t-30.5 -32q-24 -25 -36 -38.5t-12 -30.5q0 -20 18.5 -33.5t55.5 -38.5q16 -11 31 -24t27 -30.5t19 -41.5t7 -57q0 -78 -42.5 -116t-123.5 -38q-26 0 -49.5 3.5t-38.5 9.5q-20 8 -20 28v43
q15 -2 40.5 -3.5t40.5 -1.5q54 0 74 19.5t20 57.5q0 18 -4 31t-12 23.5t-20.5 19.5t-29.5 20q-23 14 -40 25.5t-29 24t-18 28t-6 38.5q0 39 17.5 64.5t48.5 56.5q17 17 31.5 36.5t14.5 52.5q0 45 -27.5 61t-68.5 16q-60 0 -84 -28.5t-24 -86.5v-531h-81q-24 0 -24 23v491
q0 47 9.5 86.5t33.5 68t66 44t107 15.5z" />
    <glyph glyph-name="agrave" unicode="&#xe0;" horiz-adv-x="498" 
d="M234 243q-30 0 -50 -6.5t-31.5 -18t-16 -27.5t-4.5 -35q0 -46 22 -67t67 -21q40 0 69 15.5t50 35.5v124h-106zM195 -9q-78 0 -116 43t-38 119q0 47 14.5 78t41 49.5t62.5 26t78 7.5h103v34q0 52 -27 71t-92 19q-44 0 -79 -4.5t-46 -4.5q-13 0 -18.5 6.5t-5.5 16.5v43
q35 11 79 18t90 7q57 0 95 -12.5t61 -35.5t32.5 -56t9.5 -73v-343h-61q-17 0 -21 7.5t-6 17.5l-4 30q-26 -25 -62.5 -44.5t-89.5 -19.5zM122 721h93q13 0 20 -4.5t12 -17.5q25 -60 51 -126h-55q-20 0 -31 18z" />
    <glyph glyph-name="aacute" unicode="&#xe1;" horiz-adv-x="498" 
d="M234 243q-30 0 -50 -6.5t-31.5 -18t-16 -27.5t-4.5 -35q0 -46 22 -67t67 -21q40 0 69 15.5t50 35.5v124h-106zM195 -9q-78 0 -116 43t-38 119q0 47 14.5 78t41 49.5t62.5 26t78 7.5h103v34q0 52 -27 71t-92 19q-44 0 -79 -4.5t-46 -4.5q-13 0 -18.5 6.5t-5.5 16.5v43
q35 11 79 18t90 7q57 0 95 -12.5t61 -35.5t32.5 -56t9.5 -73v-343h-61q-17 0 -21 7.5t-6 17.5l-4 30q-26 -25 -62.5 -44.5t-89.5 -19.5zM213 573q-10 0 -14 6.5t1 16.5q14 34 29 65t32 60h82q17 0 17 -13q0 -7 -4 -14t-10 -15l-82 -106h-51z" />
    <glyph glyph-name="acircumflex" unicode="&#xe2;" horiz-adv-x="498" 
d="M234 243q-30 0 -50 -6.5t-31.5 -18t-16 -27.5t-4.5 -35q0 -46 22 -67t67 -21q40 0 69 15.5t50 35.5v124h-106zM195 -9q-78 0 -116 43t-38 119q0 47 14.5 78t41 49.5t62.5 26t78 7.5h103v34q0 52 -27 71t-92 19q-44 0 -79 -4.5t-46 -4.5q-13 0 -18.5 6.5t-5.5 16.5v43
q35 11 79 18t90 7q57 0 95 -12.5t61 -35.5t32.5 -56t9.5 -73v-343h-61q-17 0 -21 7.5t-6 17.5l-4 30q-26 -25 -62.5 -44.5t-89.5 -19.5zM139 573q-11 0 -14 6.5t2 16.5q17 33 36 62.5t42 62.5h69q16 0 27 -19q7 -12 17 -28t20 -33t19.5 -35t16.5 -33h-54q-11 0 -16.5 3.5
t-12.5 14.5l-45 68l-57 -86h-50z" />
    <glyph glyph-name="atilde" unicode="&#xe3;" horiz-adv-x="498" 
d="M234 243q-30 0 -50 -6.5t-31.5 -18t-16 -27.5t-4.5 -35q0 -46 22 -67t67 -21q40 0 69 15.5t50 35.5v124h-106zM195 -9q-78 0 -116 43t-38 119q0 47 14.5 78t41 49.5t62.5 26t78 7.5h103v34q0 52 -27 71t-92 19q-44 0 -79 -4.5t-46 -4.5q-13 0 -18.5 6.5t-5.5 16.5v43
q35 11 79 18t90 7q57 0 95 -12.5t61 -35.5t32.5 -56t9.5 -73v-343h-61q-17 0 -21 7.5t-6 17.5l-4 30q-26 -25 -62.5 -44.5t-89.5 -19.5zM399 678q0 -43 -20 -70.5t-64 -27.5q-28 0 -46.5 10t-34.5 22q-12 9 -20 14.5t-13 8.5t-9.5 4t-10.5 1q-10 0 -15 -5t-7.5 -13t-3 -18.5
t-0.5 -21.5h-45q-11 0 -14 5.5t-3 18.5q0 43 20 70.5t64 27.5q28 0 46.5 -10t34.5 -22q12 -9 20 -14.5t13 -8.5t9.5 -4t10.5 -1q19 0 22.5 18t3.5 40h45q11 0 14 -5.5t3 -18.5z" />
    <glyph glyph-name="adieresis" unicode="&#xe4;" horiz-adv-x="498" 
d="M234 243q-30 0 -50 -6.5t-31.5 -18t-16 -27.5t-4.5 -35q0 -46 22 -67t67 -21q40 0 69 15.5t50 35.5v124h-106zM195 -9q-78 0 -116 43t-38 119q0 47 14.5 78t41 49.5t62.5 26t78 7.5h103v34q0 52 -27 71t-92 19q-44 0 -79 -4.5t-46 -4.5q-13 0 -18.5 6.5t-5.5 16.5v43
q35 11 79 18t90 7q57 0 95 -12.5t61 -35.5t32.5 -56t9.5 -73v-343h-61q-17 0 -21 7.5t-6 17.5l-4 30q-26 -25 -62.5 -44.5t-89.5 -19.5zM210 644q0 -29 -13.5 -41.5t-43.5 -12.5q-31 0 -44.5 12.5t-13.5 41.5t13.5 41.5t44.5 12.5q30 0 43.5 -12.5t13.5 -41.5zM397 644
q0 -29 -13.5 -41.5t-43.5 -12.5q-31 0 -44.5 12.5t-13.5 41.5t13.5 41.5t44.5 12.5q30 0 43.5 -12.5t13.5 -41.5z" />
    <glyph glyph-name="aring" unicode="&#xe5;" horiz-adv-x="498" 
d="M234 243q-30 0 -50 -6.5t-31.5 -18t-16 -27.5t-4.5 -35q0 -46 22 -67t67 -21q40 0 69 15.5t50 35.5v124h-106zM195 -9q-78 0 -116 43t-38 119q0 47 14.5 78t41 49.5t62.5 26t78 7.5h103v34q0 52 -27 71t-92 19q-44 0 -79 -4.5t-46 -4.5q-13 0 -18.5 6.5t-5.5 16.5v43
q35 11 79 18t90 7q57 0 95 -12.5t61 -35.5t32.5 -56t9.5 -73v-343h-61q-17 0 -21 7.5t-6 17.5l-4 30q-26 -25 -62.5 -44.5t-89.5 -19.5zM246 615q50 0 50 50q0 49 -50 49t-50 -49q0 -50 50 -50zM245 568q-51 0 -76 27t-25 72q0 42 25 68t78 26q51 0 76 -27t25 -66
q0 -48 -25 -74t-78 -26z" />
    <glyph glyph-name="ae" unicode="&#xe6;" horiz-adv-x="758" 
d="M231 520q57 0 96 -19.5t56 -53.5q44 74 150 74q52 0 86 -16.5t54 -44.5t28.5 -66t8.5 -81q0 -31 -3 -54.5t-8 -38.5h-277q2 -42 7.5 -70.5t20 -46.5t40.5 -25.5t68 -7.5q39 0 70 4t42 4q14 0 19.5 -7t5.5 -17v-40q-23 -10 -64.5 -17.5t-89.5 -7.5q-55 0 -97.5 14.5
t-68.5 51.5q-34 -30 -73.5 -47t-93.5 -17q-36 0 -67 8.5t-53 28t-34.5 50.5t-12.5 76q0 48 14.5 78t42.5 47t67.5 23t89.5 6h74v39q0 51 -25.5 71t-88.5 20q-20 0 -39 -1.5t-35 -3t-28 -3t-18 -1.5q-12 0 -17.5 6.5t-5.5 16.5v43q34 11 79 18t80 7zM227 243q-32 0 -51 -8
t-29.5 -20t-14 -27.5t-3.5 -30.5q0 -26 7 -43.5t19.5 -27.5t29.5 -14t38 -4q43 0 70.5 14t48.5 32q-8 24 -10.5 52.5t-2.5 63.5v13h-102zM621 287v33q-1 63 -20.5 93.5t-72.5 30.5q-32 0 -52.5 -11t-32 -31t-16 -49t-5.5 -66h199z" />
    <glyph glyph-name="ccedilla" unicode="&#xe7;" horiz-adv-x="424" 
d="M388 14q-22 -9 -54 -16t-69 -9l-17 -44l14 -3q35 -8 50.5 -23.5t15.5 -45.5q0 -15 -4.5 -28t-16.5 -23t-32.5 -15.5t-52.5 -5.5q-13 0 -22.5 1t-18.5 4q-13 4 -13 18v26h32q34 0 46 5t12 22q0 13 -8.5 18.5t-29.5 10.5l-9 2q-11 2 -15.5 5.5t-4.5 12.5q0 6 2 12t10 27
l10 27q-90 11 -127 78.5t-37 182.5q0 140 49.5 203.5t152.5 63.5q34 0 67 -5.5t48 -12.5q11 -5 15.5 -13t4.5 -19v-43q-32 5 -61 7.5t-50 2.5q-34 0 -57.5 -8.5t-38.5 -29.5t-21.5 -55.5t-6.5 -85.5q0 -57 8 -93t23 -56.5t37 -28t51 -7.5t55.5 3.5t38.5 3.5q24 0 24 -24v-42
z" />
    <glyph glyph-name="egrave" unicode="&#xe8;" horiz-adv-x="496" 
d="M145 217q2 -40 9 -68t23.5 -45.5t44.5 -25.5t72 -8q39 0 71 4t44 4q23 0 23 -22v-42q-24 -10 -65.5 -17.5t-95.5 -7.5q-57 0 -99 14t-69.5 45.5t-40.5 82t-13 122.5t13 123t39.5 83.5t65.5 47t91 14.5q58 0 95 -16.5t58 -44.5t29 -65.5t8 -80.5q0 -29 -3 -56t-8 -41h-292
zM356 288q1 10 1 15v13q0 64 -19.5 96.5t-76.5 32.5q-34 0 -56 -11t-35 -31t-18.5 -49.5t-6.5 -65.5h211zM128 721h93q13 0 20 -4.5t12 -17.5q25 -60 51 -126h-55q-20 0 -31 18z" />
    <glyph glyph-name="eacute" unicode="&#xe9;" horiz-adv-x="496" 
d="M145 217q2 -40 9 -68t23.5 -45.5t44.5 -25.5t72 -8q39 0 71 4t44 4q23 0 23 -22v-42q-24 -10 -65.5 -17.5t-95.5 -7.5q-57 0 -99 14t-69.5 45.5t-40.5 82t-13 122.5t13 123t39.5 83.5t65.5 47t91 14.5q58 0 95 -16.5t58 -44.5t29 -65.5t8 -80.5q0 -29 -3 -56t-8 -41h-292
zM356 288q1 10 1 15v13q0 64 -19.5 96.5t-76.5 32.5q-34 0 -56 -11t-35 -31t-18.5 -49.5t-6.5 -65.5h211zM221 573q-10 0 -14 6.5t1 16.5q14 34 29 65t32 60h82q17 0 17 -13q0 -7 -4 -14t-10 -15l-82 -106h-51z" />
    <glyph glyph-name="ecircumflex" unicode="&#xea;" horiz-adv-x="496" 
d="M145 217q2 -40 9 -68t23.5 -45.5t44.5 -25.5t72 -8q39 0 71 4t44 4q23 0 23 -22v-42q-24 -10 -65.5 -17.5t-95.5 -7.5q-57 0 -99 14t-69.5 45.5t-40.5 82t-13 122.5t13 123t39.5 83.5t65.5 47t91 14.5q58 0 95 -16.5t58 -44.5t29 -65.5t8 -80.5q0 -29 -3 -56t-8 -41h-292
zM356 288q1 10 1 15v13q0 64 -19.5 96.5t-76.5 32.5q-34 0 -56 -11t-35 -31t-18.5 -49.5t-6.5 -65.5h211zM147 573q-11 0 -14 6.5t2 16.5q17 33 36 62.5t42 62.5h69q16 0 27 -19q7 -12 17 -28t20 -33t19.5 -35t16.5 -33h-54q-11 0 -16.5 3.5t-12.5 14.5l-45 68l-57 -86h-50z
" />
    <glyph glyph-name="edieresis" unicode="&#xeb;" horiz-adv-x="496" 
d="M145 217q2 -40 9 -68t23.5 -45.5t44.5 -25.5t72 -8q39 0 71 4t44 4q23 0 23 -22v-42q-24 -10 -65.5 -17.5t-95.5 -7.5q-57 0 -99 14t-69.5 45.5t-40.5 82t-13 122.5t13 123t39.5 83.5t65.5 47t91 14.5q58 0 95 -16.5t58 -44.5t29 -65.5t8 -80.5q0 -29 -3 -56t-8 -41h-292
zM356 288q1 10 1 15v13q0 64 -19.5 96.5t-76.5 32.5q-34 0 -56 -11t-35 -31t-18.5 -49.5t-6.5 -65.5h211zM218 644q0 -29 -13.5 -41.5t-43.5 -12.5q-31 0 -44.5 12.5t-13.5 41.5t13.5 41.5t44.5 12.5q30 0 43.5 -12.5t13.5 -41.5zM405 644q0 -29 -13.5 -41.5t-43.5 -12.5
q-31 0 -44.5 12.5t-13.5 41.5t13.5 41.5t44.5 12.5q30 0 43.5 -12.5t13.5 -41.5z" />
    <glyph glyph-name="igrave" unicode="&#xec;" horiz-adv-x="227" 
d="M164 0h-77q-24 0 -24 23v486h77q24 0 24 -23v-486zM-11 721h93q13 0 20 -4.5t12 -17.5q25 -60 51 -126h-55q-20 0 -31 18z" />
    <glyph glyph-name="iacute" unicode="&#xed;" horiz-adv-x="227" 
d="M164 0h-77q-24 0 -24 23v486h77q24 0 24 -23v-486zM81 573q-10 0 -14 6.5t1 16.5q14 34 29 65t32 60h82q17 0 17 -13q0 -7 -4 -14t-10 -15l-82 -106h-51z" />
    <glyph glyph-name="icircumflex" unicode="&#xee;" horiz-adv-x="227" 
d="M164 0h-77q-24 0 -24 23v486h77q24 0 24 -23v-486zM7 573q-11 0 -14 6.5t2 16.5q17 33 36 62.5t42 62.5h69q16 0 27 -19q7 -12 17 -28t20 -33t19.5 -35t16.5 -33h-54q-11 0 -16.5 3.5t-12.5 14.5l-45 68l-57 -86h-50z" />
    <glyph glyph-name="idieresis" unicode="&#xef;" horiz-adv-x="227" 
d="M164 0h-77q-24 0 -24 23v486h77q24 0 24 -23v-486zM78 644q0 -29 -13.5 -41.5t-43.5 -12.5q-31 0 -44.5 12.5t-13.5 41.5t13.5 41.5t44.5 12.5q30 0 43.5 -12.5t13.5 -41.5zM265 644q0 -29 -13.5 -41.5t-43.5 -12.5q-31 0 -44.5 12.5t-13.5 41.5t13.5 41.5t44.5 12.5
q30 0 43.5 -12.5t13.5 -41.5z" />
    <glyph glyph-name="eth" unicode="&#xf0;" horiz-adv-x="522" 
d="M372 251q0 28 -1 48.5t-2.5 37t-4 31t-5.5 30.5q-23 12 -45.5 18t-48.5 6q-34 0 -56 -10.5t-35.5 -32t-19 -55t-5.5 -79.5q0 -37 4 -69.5t16 -57t34 -38.5t58 -14q40 0 62 17.5t33 44.5t13.5 59.5t2.5 63.5zM417 703q11 4 18 0.5t7 -15.5v-40l-83 -29q25 -32 46 -68
t36 -78.5t23 -93.5t8 -114q0 -60 -9 -111t-32.5 -87.5t-64.5 -57.5t-104 -21q-64 0 -105.5 20.5t-65.5 55.5t-33 81.5t-9 99.5q0 132 49.5 191.5t142.5 59.5q59 0 105 -23q-12 34 -32 67t-39 54l-103 -37q-11 -4 -18 -0.5t-7 15.5v40l89 31q-17 19 -36.5 40t-39.5 39h82
q11 0 16 -1t13 -7q14 -11 26.5 -24t20.5 -21z" />
    <glyph glyph-name="ntilde" unicode="&#xf1;" horiz-adv-x="524" 
d="M85 0q-24 0 -24 23v486h61q11 0 18.5 -5t9.5 -20l4 -31q62 67 159 67q82 0 117 -47.5t35 -126.5v-346h-77q-11 0 -17.5 6t-6.5 17v315q0 52 -22 74.5t-64 22.5q-41 0 -70 -16.5t-46 -33.5v-385h-77zM416 678q0 -43 -20 -70.5t-64 -27.5q-28 0 -46.5 10t-34.5 22
q-12 9 -20 14.5t-13 8.5t-9.5 4t-10.5 1q-10 0 -15 -5t-7.5 -13t-3 -18.5t-0.5 -21.5h-45q-11 0 -14 5.5t-3 18.5q0 43 20 70.5t64 27.5q28 0 46.5 -10t34.5 -22q12 -9 20 -14.5t13 -8.5t9.5 -4t10.5 -1q19 0 22.5 18t3.5 40h45q11 0 14 -5.5t3 -18.5z" />
    <glyph glyph-name="ograve" unicode="&#xf2;" horiz-adv-x="526" 
d="M263 -12q-113 0 -163.5 64t-50.5 203q0 138 50.5 202t163.5 64t163.5 -64t50.5 -202q0 -139 -50.5 -203t-163.5 -64zM375 255q0 54 -6.5 90t-20 57.5t-35 30.5t-50.5 9t-50.5 -9t-35 -30.5t-20 -57.5t-6.5 -90q0 -55 6.5 -91.5t20 -58t35 -30t50.5 -8.5t50.5 8.5t35 30
t20 58t6.5 91.5zM138 721h93q13 0 20 -4.5t12 -17.5q25 -60 51 -126h-55q-20 0 -31 18z" />
    <glyph glyph-name="oacute" unicode="&#xf3;" horiz-adv-x="526" 
d="M263 -12q-113 0 -163.5 64t-50.5 203q0 138 50.5 202t163.5 64t163.5 -64t50.5 -202q0 -139 -50.5 -203t-163.5 -64zM375 255q0 54 -6.5 90t-20 57.5t-35 30.5t-50.5 9t-50.5 -9t-35 -30.5t-20 -57.5t-6.5 -90q0 -55 6.5 -91.5t20 -58t35 -30t50.5 -8.5t50.5 8.5t35 30
t20 58t6.5 91.5zM230 573q-10 0 -14 6.5t1 16.5q14 34 29 65t32 60h82q17 0 17 -13q0 -7 -4 -14t-10 -15l-82 -106h-51z" />
    <glyph glyph-name="ocircumflex" unicode="&#xf4;" horiz-adv-x="526" 
d="M263 -12q-113 0 -163.5 64t-50.5 203q0 138 50.5 202t163.5 64t163.5 -64t50.5 -202q0 -139 -50.5 -203t-163.5 -64zM375 255q0 54 -6.5 90t-20 57.5t-35 30.5t-50.5 9t-50.5 -9t-35 -30.5t-20 -57.5t-6.5 -90q0 -55 6.5 -91.5t20 -58t35 -30t50.5 -8.5t50.5 8.5t35 30
t20 58t6.5 91.5zM156 573q-11 0 -14 6.5t2 16.5q17 33 36 62.5t42 62.5h69q16 0 27 -19q7 -12 17 -28t20 -33t19.5 -35t16.5 -33h-54q-11 0 -16.5 3.5t-12.5 14.5l-45 68l-57 -86h-50z" />
    <glyph glyph-name="otilde" unicode="&#xf5;" horiz-adv-x="526" 
d="M263 -12q-113 0 -163.5 64t-50.5 203q0 138 50.5 202t163.5 64t163.5 -64t50.5 -202q0 -139 -50.5 -203t-163.5 -64zM375 255q0 54 -6.5 90t-20 57.5t-35 30.5t-50.5 9t-50.5 -9t-35 -30.5t-20 -57.5t-6.5 -90q0 -55 6.5 -91.5t20 -58t35 -30t50.5 -8.5t50.5 8.5t35 30
t20 58t6.5 91.5zM416 678q0 -43 -20 -70.5t-64 -27.5q-28 0 -46.5 10t-34.5 22q-12 9 -20 14.5t-13 8.5t-9.5 4t-10.5 1q-10 0 -15 -5t-7.5 -13t-3 -18.5t-0.5 -21.5h-45q-11 0 -14 5.5t-3 18.5q0 43 20 70.5t64 27.5q28 0 46.5 -10t34.5 -22q12 -9 20 -14.5t13 -8.5t9.5 -4
t10.5 -1q19 0 22.5 18t3.5 40h45q11 0 14 -5.5t3 -18.5z" />
    <glyph glyph-name="odieresis" unicode="&#xf6;" horiz-adv-x="526" 
d="M263 -12q-113 0 -163.5 64t-50.5 203q0 138 50.5 202t163.5 64t163.5 -64t50.5 -202q0 -139 -50.5 -203t-163.5 -64zM375 255q0 54 -6.5 90t-20 57.5t-35 30.5t-50.5 9t-50.5 -9t-35 -30.5t-20 -57.5t-6.5 -90q0 -55 6.5 -91.5t20 -58t35 -30t50.5 -8.5t50.5 8.5t35 30
t20 58t6.5 91.5zM227 644q0 -29 -13.5 -41.5t-43.5 -12.5q-31 0 -44.5 12.5t-13.5 41.5t13.5 41.5t44.5 12.5q30 0 43.5 -12.5t13.5 -41.5zM414 644q0 -29 -13.5 -41.5t-43.5 -12.5q-31 0 -44.5 12.5t-13.5 41.5t13.5 41.5t44.5 12.5q30 0 43.5 -12.5t13.5 -41.5z" />
    <glyph glyph-name="divide" unicode="&#xf7;" horiz-adv-x="536" 
d="M445 384q23 0 23 -23v-61h-376q-24 0 -24 23v61h377zM328 508q0 -30 -14.5 -43.5t-45.5 -13.5q-32 0 -46 13.5t-14 43.5t14 43.5t46 13.5q31 0 45.5 -13.5t14.5 -43.5zM328 174q0 -30 -14.5 -43t-45.5 -13q-32 0 -46 13t-14 43t14 44t46 14q60 0 60 -58z" />
    <glyph glyph-name="oslash" unicode="&#xf8;" horiz-adv-x="526" 
d="M481 544q10 0 13.5 -6.5t-1.5 -13.5l-57 -79q41 -63 41 -190q0 -139 -50.5 -203t-163.5 -64q-83 0 -132 34l-42 -58l-42 1q-11 0 -15 7.5t3 17.5l55 76q-41 64 -41 189q0 138 50.5 202t163.5 64q42 0 73.5 -8t57.5 -26l42 57h45zM375 255q0 30 -1.5 52.5t-6.5 41.5
l-183 -253q14 -16 33.5 -22.5t45.5 -6.5q30 0 51.5 9.5t35 31.5t19.5 58t6 89zM151 255q0 -30 2 -55.5t5 -39.5l183 253q-14 16 -33 22.5t-45 6.5q-30 0 -51.5 -9.5t-35 -31.5t-19.5 -58t-6 -88z" />
    <glyph glyph-name="ugrave" unicode="&#xf9;" horiz-adv-x="524" 
d="M439 509q24 0 24 -23v-486h-61q-11 0 -18.5 5t-9.5 20l-4 31q-62 -67 -159 -67q-41 0 -70 12.5t-47 35t-26.5 55t-8.5 71.5v346h77q11 0 17.5 -6t6.5 -17v-315q0 -52 22 -74.5t64 -22.5q41 0 70 16.5t46 33.5v385h77zM136 721h93q13 0 20 -4.5t12 -17.5q25 -60 51 -126
h-55q-20 0 -31 18z" />
    <glyph glyph-name="uacute" unicode="&#xfa;" horiz-adv-x="524" 
d="M439 509q24 0 24 -23v-486h-61q-11 0 -18.5 5t-9.5 20l-4 31q-62 -67 -159 -67q-41 0 -70 12.5t-47 35t-26.5 55t-8.5 71.5v346h77q11 0 17.5 -6t6.5 -17v-315q0 -52 22 -74.5t64 -22.5q41 0 70 16.5t46 33.5v385h77zM228 573q-10 0 -14 6.5t1 16.5q14 34 29 65t32 60h82
q17 0 17 -13q0 -7 -4 -14t-10 -15l-82 -106h-51z" />
    <glyph glyph-name="ucircumflex" unicode="&#xfb;" horiz-adv-x="524" 
d="M439 509q24 0 24 -23v-486h-61q-11 0 -18.5 5t-9.5 20l-4 31q-62 -67 -159 -67q-41 0 -70 12.5t-47 35t-26.5 55t-8.5 71.5v346h77q11 0 17.5 -6t6.5 -17v-315q0 -52 22 -74.5t64 -22.5q41 0 70 16.5t46 33.5v385h77zM154 573q-11 0 -14 6.5t2 16.5q17 33 36 62.5
t42 62.5h69q16 0 27 -19q7 -12 17 -28t20 -33t19.5 -35t16.5 -33h-54q-11 0 -16.5 3.5t-12.5 14.5l-45 68l-57 -86h-50z" />
    <glyph glyph-name="udieresis" unicode="&#xfc;" horiz-adv-x="524" 
d="M439 509q24 0 24 -23v-486h-61q-11 0 -18.5 5t-9.5 20l-4 31q-62 -67 -159 -67q-41 0 -70 12.5t-47 35t-26.5 55t-8.5 71.5v346h77q11 0 17.5 -6t6.5 -17v-315q0 -52 22 -74.5t64 -22.5q41 0 70 16.5t46 33.5v385h77zM225 644q0 -29 -13.5 -41.5t-43.5 -12.5
q-31 0 -44.5 12.5t-13.5 41.5t13.5 41.5t44.5 12.5q30 0 43.5 -12.5t13.5 -41.5zM412 644q0 -29 -13.5 -41.5t-43.5 -12.5q-31 0 -44.5 12.5t-13.5 41.5t13.5 41.5t44.5 12.5q30 0 43.5 -12.5t13.5 -41.5z" />
    <glyph glyph-name="yacute" unicode="&#xfd;" horiz-adv-x="480" 
d="M133 486q10 -58 19 -101t21 -85t30 -90t46 -114q38 91 62.5 196t38.5 217h75q13 0 17 -5.5t4 -13.5q0 -9 -2.5 -25t-4.5 -29q-17 -100 -43 -186.5t-52 -150.5q-33 -83 -63 -135.5t-59.5 -83.5t-59 -42.5t-60.5 -11.5q-12 0 -27 1.5t-22 5.5q-17 8 -17 27v46q12 -1 21 -1
h17q25 0 43.5 6.5t32.5 19t26 32t26 45.5q-33 57 -61 119.5t-50.5 127t-39 128.5t-24.5 126h81q15 0 19 -7.5t6 -15.5zM207 573q-10 0 -14 6.5t1 16.5q14 34 29 65t32 60h82q17 0 17 -13q0 -7 -4 -14t-10 -15l-82 -106h-51z" />
    <glyph glyph-name="thorn" unicode="&#xfe;" horiz-adv-x="531" 
d="M380 258q0 99 -26.5 141.5t-81.5 42.5q-32 0 -56.5 -10t-43.5 -23v-314q19 -10 41 -16t49 -6q31 0 53 9t36.5 31t21.5 57t7 88zM481 259q0 -138 -46 -201.5t-143 -63.5q-44 0 -72 10t-48 21v-195h-77q-24 0 -24 23v865h71q30 0 30 -29v-210q24 17 55.5 29.5t76.5 12.5
q82 0 129.5 -61.5t47.5 -200.5z" />
    <glyph glyph-name="ydieresis" unicode="&#xff;" horiz-adv-x="480" 
d="M133 486q10 -58 19 -101t21 -85t30 -90t46 -114q38 91 62.5 196t38.5 217h75q13 0 17 -5.5t4 -13.5q0 -9 -2.5 -25t-4.5 -29q-17 -100 -43 -186.5t-52 -150.5q-33 -83 -63 -135.5t-59.5 -83.5t-59 -42.5t-60.5 -11.5q-12 0 -27 1.5t-22 5.5q-17 8 -17 27v46q12 -1 21 -1
h17q25 0 43.5 6.5t32.5 19t26 32t26 45.5q-33 57 -61 119.5t-50.5 127t-39 128.5t-24.5 126h81q15 0 19 -7.5t6 -15.5zM205 644q0 -29 -13.5 -41.5t-43.5 -12.5q-31 0 -44.5 12.5t-13.5 41.5t13.5 41.5t44.5 12.5q30 0 43.5 -12.5t13.5 -41.5zM392 644q0 -29 -13.5 -41.5
t-43.5 -12.5q-31 0 -44.5 12.5t-13.5 41.5t13.5 41.5t44.5 12.5q30 0 43.5 -12.5t13.5 -41.5z" />
    <glyph glyph-name="Amacron" unicode="&#x100;" horiz-adv-x="553" 
d="M416 23q-7 45 -14.5 86.5t-15.5 83.5h-223q-10 -48 -18 -97t-15 -96h-77q-22 0 -21 25q3 30 9 59q18 97 40 185.5t45 166t46.5 142.5t44.5 115h100q12 0 18 -5t10 -16q21 -51 46 -122t49.5 -158t46.5 -186.5t38 -205.5h-85q-21 0 -24 23zM274 607q-24 -71 -49.5 -153.5
t-48.5 -178.5h197q-23 96 -48.5 178.5t-50.5 153.5zM378 848q24 0 24 -23v-53h-230q-24 0 -24 23v53h230z" />
    <glyph glyph-name="amacron" unicode="&#x101;" horiz-adv-x="498" 
d="M234 243q-30 0 -50 -6.5t-31.5 -18t-16 -27.5t-4.5 -35q0 -46 22 -67t67 -21q40 0 69 15.5t50 35.5v124h-106zM195 -9q-78 0 -116 43t-38 119q0 47 14.5 78t41 49.5t62.5 26t78 7.5h103v34q0 52 -27 71t-92 19q-44 0 -79 -4.5t-46 -4.5q-13 0 -18.5 6.5t-5.5 16.5v43
q35 11 79 18t90 7q57 0 95 -12.5t61 -35.5t32.5 -56t9.5 -73v-343h-61q-17 0 -21 7.5t-6 17.5l-4 30q-26 -25 -62.5 -44.5t-89.5 -19.5zM349 679q24 0 24 -23v-53h-230q-24 0 -24 23v53h230z" />
    <glyph glyph-name="Abreve" unicode="&#x102;" horiz-adv-x="553" 
d="M416 23q-7 45 -14.5 86.5t-15.5 83.5h-223q-10 -48 -18 -97t-15 -96h-77q-22 0 -21 25q3 30 9 59q18 97 40 185.5t45 166t46.5 142.5t44.5 115h100q12 0 18 -5t10 -16q21 -51 46 -122t49.5 -158t46.5 -186.5t38 -205.5h-85q-21 0 -24 23zM274 607q-24 -71 -49.5 -153.5
t-48.5 -178.5h197q-23 96 -48.5 178.5t-50.5 153.5zM222 862q1 -11 3.5 -20.5t8.5 -17t16 -11.5t26 -4q26 0 39.5 15t16.5 57h48q11 0 14 -5.5t3 -13.5q0 -55 -32 -85.5t-92 -30.5q-53 0 -85 29.5t-34 105.5h49q12 0 15 -5.5t4 -13.5z" />
    <glyph glyph-name="abreve" unicode="&#x103;" horiz-adv-x="498" 
d="M234 243q-30 0 -50 -6.5t-31.5 -18t-16 -27.5t-4.5 -35q0 -46 22 -67t67 -21q40 0 69 15.5t50 35.5v124h-106zM195 -9q-78 0 -116 43t-38 119q0 47 14.5 78t41 49.5t62.5 26t78 7.5h103v34q0 52 -27 71t-92 19q-44 0 -79 -4.5t-46 -4.5q-13 0 -18.5 6.5t-5.5 16.5v43
q35 11 79 18t90 7q57 0 95 -12.5t61 -35.5t32.5 -56t9.5 -73v-343h-61q-17 0 -21 7.5t-6 17.5l-4 30q-26 -25 -62.5 -44.5t-89.5 -19.5zM192 691q4 -29 16.5 -41t37.5 -12q26 0 39.5 14.5t16.5 56.5h48q11 0 14.5 -5t2.5 -13q-4 -60 -34 -88.5t-87 -28.5t-88.5 29.5
t-33.5 105.5h49q11 0 14 -4t5 -14z" />
    <glyph glyph-name="Aogonek" unicode="&#x104;" horiz-adv-x="553" 
d="M441 0q-21 0 -24 23q-7 45 -15 86.5t-16 83.5h-223q-10 -48 -18 -97t-15 -96h-77q-22 0 -21 25q3 30 9 59q18 97 40 185.5t45 166t46.5 142.5t44.5 115h100q12 0 18 -5t10 -16q21 -51 46 -122t49.5 -158t46.5 -186.5t38 -205.5q-50 -27 -68.5 -52t-18.5 -42
q0 -19 11.5 -24t28.5 -5q7 0 13.5 1t10.5 1q10 0 13 -5.5t3 -14.5v-34q-14 -4 -28.5 -6.5t-33.5 -2.5q-41 0 -66 17t-25 58q0 30 22.5 58t53.5 51zM274 607q-24 -71 -49.5 -153.5t-48.5 -178.5h197q-23 96 -48.5 178.5t-50.5 153.5z" />
    <glyph glyph-name="aogonek" unicode="&#x105;" horiz-adv-x="498" 
d="M195 -9q-78 0 -116 43t-38 119q0 47 14.5 78t41 49.5t62.5 26t78 7.5h103v34q0 52 -27 71t-92 19q-44 0 -79 -4.5t-46 -4.5q-13 0 -18.5 6.5t-5.5 16.5v43q35 11 79 18t90 7q57 0 95 -12.5t61 -35.5t32.5 -56t9.5 -73v-343h-3q-45 -36 -60 -56.5t-15 -37.5
q0 -19 10.5 -24t29.5 -5q7 0 13.5 1t10.5 1q10 0 13 -5.5t3 -14.5v-34q-14 -4 -28.5 -6.5t-33.5 -2.5q-41 0 -66 17t-25 58q0 32 22 61t51 51q-5 4 -7 9.5t-3 12.5l-4 30q-26 -25 -62.5 -44.5t-89.5 -19.5zM234 243q-30 0 -50 -6.5t-31.5 -18t-16 -27.5t-4.5 -35
q0 -46 22 -67t67 -21q40 0 69 15.5t50 35.5v124h-106z" />
    <glyph glyph-name="Cacute" unicode="&#x106;" horiz-adv-x="503" 
d="M310 703q35 0 72.5 -5.5t58.5 -14.5q12 -5 16.5 -13t4.5 -21v-47q-29 4 -64.5 7.5t-73.5 3.5q-45 0 -76 -12.5t-50 -42.5t-27 -80.5t-8 -126.5q0 -84 10 -137t29.5 -82.5t49.5 -40.5t71 -11q42 0 73 5t47 5q25 0 25 -24v-49q-29 -11 -69.5 -19.5t-93.5 -8.5
q-66 0 -113 20t-77.5 63.5t-44.5 111t-14 162.5q0 96 14 164t44.5 111t78.5 62.5t117 19.5zM251 745q-22 0 -14 22q2 6 8.5 19t16 29.5t20 34.5t21.5 33h83q18 0 18 -14q0 -12 -12 -25l-87 -99h-54z" />
    <glyph glyph-name="cacute" unicode="&#x107;" horiz-adv-x="424" 
d="M388 14q-23 -10 -59 -17.5t-76 -7.5q-56 0 -95 17.5t-63 51t-35 83t-11 112.5q0 140 49.5 203.5t152.5 63.5q34 0 67 -5.5t48 -12.5q11 -5 15.5 -13t4.5 -19v-43q-32 5 -61 7.5t-50 2.5q-34 0 -57.5 -8.5t-38.5 -29.5t-21.5 -55.5t-6.5 -85.5q0 -57 8 -93t23 -56.5
t37 -28t51 -7.5t55.5 3.5t38.5 3.5q24 0 24 -24v-42zM206 573q-10 0 -14 6.5t1 16.5q14 34 29 65t32 60h82q17 0 17 -13q0 -7 -4 -14t-10 -15l-82 -106h-51z" />
    <glyph glyph-name="Ccircumflex" unicode="&#x108;" horiz-adv-x="503" 
d="M310 703q35 0 72.5 -5.5t58.5 -14.5q12 -5 16.5 -13t4.5 -21v-47q-29 4 -64.5 7.5t-73.5 3.5q-45 0 -76 -12.5t-50 -42.5t-27 -80.5t-8 -126.5q0 -84 10 -137t29.5 -82.5t49.5 -40.5t71 -11q42 0 73 5t47 5q25 0 25 -24v-49q-29 -11 -69.5 -19.5t-93.5 -8.5
q-66 0 -113 20t-77.5 63.5t-44.5 111t-14 162.5q0 96 14 164t44.5 111t78.5 62.5t117 19.5zM178 745q-14 0 -15 8.5t4 18.5q3 6 11.5 18.5t19.5 28.5t23 33t23 31h72q11 0 17.5 -4t11.5 -11q7 -9 17.5 -24t21.5 -32.5t21.5 -35t18.5 -31.5h-60q-11 0 -16.5 3.5t-13.5 14.5
l-46 61l-60 -79h-50z" />
    <glyph glyph-name="ccircumflex" unicode="&#x109;" horiz-adv-x="424" 
d="M388 14q-23 -10 -59 -17.5t-76 -7.5q-56 0 -95 17.5t-63 51t-35 83t-11 112.5q0 140 49.5 203.5t152.5 63.5q34 0 67 -5.5t48 -12.5q11 -5 15.5 -13t4.5 -19v-43q-32 5 -61 7.5t-50 2.5q-34 0 -57.5 -8.5t-38.5 -29.5t-21.5 -55.5t-6.5 -85.5q0 -57 8 -93t23 -56.5
t37 -28t51 -7.5t55.5 3.5t38.5 3.5q24 0 24 -24v-42zM133 573q-11 0 -14 6.5t2 16.5q17 33 36 62.5t42 62.5h69q16 0 27 -19q7 -12 17 -28t20 -33t19.5 -35t16.5 -33h-54q-11 0 -16.5 3.5t-12.5 14.5l-45 68l-57 -86h-50z" />
    <glyph glyph-name="Cdotaccent" unicode="&#x10a;" horiz-adv-x="503" 
d="M310 703q35 0 72.5 -5.5t58.5 -14.5q12 -5 16.5 -13t4.5 -21v-47q-29 4 -64.5 7.5t-73.5 3.5q-45 0 -76 -12.5t-50 -42.5t-27 -80.5t-8 -126.5q0 -84 10 -137t29.5 -82.5t49.5 -40.5t71 -11q42 0 73 5t47 5q25 0 25 -24v-49q-29 -11 -69.5 -19.5t-93.5 -8.5
q-66 0 -113 20t-77.5 63.5t-44.5 111t-14 162.5q0 96 14 164t44.5 111t78.5 62.5t117 19.5zM349 815q0 -31 -14.5 -44t-46.5 -13t-47 13t-15 44q0 30 15 43t47 13t46.5 -13t14.5 -43z" />
    <glyph glyph-name="cdotaccent" unicode="&#x10b;" horiz-adv-x="424" 
d="M388 14q-23 -10 -59 -17.5t-76 -7.5q-56 0 -95 17.5t-63 51t-35 83t-11 112.5q0 140 49.5 203.5t152.5 63.5q34 0 67 -5.5t48 -12.5q11 -5 15.5 -13t4.5 -19v-43q-32 5 -61 7.5t-50 2.5q-34 0 -57.5 -8.5t-38.5 -29.5t-21.5 -55.5t-6.5 -85.5q0 -57 8 -93t23 -56.5
t37 -28t51 -7.5t55.5 3.5t38.5 3.5q24 0 24 -24v-42zM240 589q-33 0 -47.5 12.5t-14.5 42.5q0 29 14.5 42t47.5 13q32 0 47 -13t15 -42q0 -30 -15 -42.5t-47 -12.5z" />
    <glyph glyph-name="Ccaron" unicode="&#x10c;" horiz-adv-x="503" 
d="M310 703q35 0 72.5 -5.5t58.5 -14.5q12 -5 16.5 -13t4.5 -21v-47q-29 4 -64.5 7.5t-73.5 3.5q-45 0 -76 -12.5t-50 -42.5t-27 -80.5t-8 -126.5q0 -84 10 -137t29.5 -82.5t49.5 -40.5t71 -11q42 0 73 5t47 5q25 0 25 -24v-49q-29 -11 -69.5 -19.5t-93.5 -8.5
q-66 0 -113 20t-77.5 63.5t-44.5 111t-14 162.5q0 96 14 164t44.5 111t78.5 62.5t117 19.5zM398 883q11 0 14 -6.5t-2 -15.5q-18 -32 -38.5 -61t-40.5 -55h-72q-10 0 -15 3t-13 14q-17 25 -35.5 54.5t-39.5 66.5h56q11 0 16.5 -3.5t13.5 -14.5l46 -62l59 80h51z" />
    <glyph glyph-name="ccaron" unicode="&#x10d;" horiz-adv-x="424" 
d="M388 14q-23 -10 -59 -17.5t-76 -7.5q-56 0 -95 17.5t-63 51t-35 83t-11 112.5q0 140 49.5 203.5t152.5 63.5q34 0 67 -5.5t48 -12.5q11 -5 15.5 -13t4.5 -19v-43q-32 5 -61 7.5t-50 2.5q-34 0 -57.5 -8.5t-38.5 -29.5t-21.5 -55.5t-6.5 -85.5q0 -57 8 -93t23 -56.5
t37 -28t51 -7.5t55.5 3.5t38.5 3.5q24 0 24 -24v-42zM345 721q10 0 13.5 -6.5t-1.5 -15.5q-17 -33 -35 -63t-41 -63h-68q-10 0 -15 3.5t-12 14.5q-17 27 -36 61t-37 69h53q11 0 16.5 -3.5t12.5 -14.5l45 -70l56 88h49z" />
    <glyph glyph-name="Dcaron" unicode="&#x10e;" horiz-adv-x="602" 
d="M272 616q-23 0 -51 -2t-46 -5v-525h95q43 0 75 9.5t53 38.5t31 82.5t10 141.5q0 78 -8.5 128.5t-28 80t-51.5 40.5t-79 11zM94 0q-24 0 -24 23v658q23 4 49.5 7.5t54 6t53.5 4t49 1.5q71 0 122 -18t84 -59t48.5 -108t15.5 -164t-15.5 -164t-47.5 -108.5t-82.5 -60
t-120.5 -18.5h-186zM382 883q11 0 14 -6.5t-2 -15.5q-18 -32 -38.5 -61t-40.5 -55h-72q-10 0 -15 3t-13 14q-17 25 -35.5 54.5t-39.5 66.5h56q11 0 16.5 -3.5t13.5 -14.5l46 -62l59 80h51z" />
    <glyph glyph-name="dcaron" unicode="&#x10f;" horiz-adv-x="607" 
d="M359 424q-19 8 -40.5 13t-47.5 5q-35 0 -58.5 -10t-37 -32.5t-19 -58t-5.5 -86.5q0 -95 21 -138t78 -43q40 0 66.5 15.5t42.5 31.5v303zM220 -9q-90 0 -130.5 66.5t-40.5 192.5q0 144 49.5 206.5t149.5 62.5q42 0 69.5 -8t41.5 -16v223h77q11 0 17.5 -6t6.5 -17v-695h-61
q-11 0 -18.5 5t-9.5 20l-4 31q-23 -25 -58.5 -45t-88.5 -20zM539 558q-19 0 -19 18v146h67q20 0 20 -18q0 -8 -2.5 -24.5t-6.5 -37t-9 -43t-10 -41.5h-40z" />
    <glyph glyph-name="Dcroat" unicode="&#x110;" horiz-adv-x="628" 
d="M96 393v288q46 8 103 13.5t105 5.5q70 0 121 -18t83.5 -59.5t48 -108.5t15.5 -166q0 -96 -15.5 -162t-47.5 -107.5t-82.5 -60t-120.5 -18.5h-186q-24 0 -24 23v298h-54q-22 0 -22 21v51h76zM300 616q-26 0 -53 -2t-46 -5v-216h97q23 0 23 -21v-51h-120v-237h95
q43 0 75 10t53 38.5t31 81t10 136.5q0 81 -8.5 132.5t-28 81t-51 41t-77.5 11.5z" />
    <glyph glyph-name="dcroat" unicode="&#x111;" horiz-adv-x="521" 
d="M359 416q-19 8 -40.5 13t-47.5 5q-35 0 -58 -10t-36.5 -31t-19.5 -54.5t-6 -80.5q0 -48 4.5 -83t16 -57.5t30.5 -33t49 -10.5q39 0 65.5 15.5t42.5 31.5v295zM266 579q-22 0 -22 21v41h115v77h77q11 0 17.5 -6t6.5 -17v-54h34q22 0 22 -21v-41h-56v-579h-61
q-14 0 -19.5 5.5t-8.5 19.5l-4 31q-29 -30 -64.5 -47.5t-82.5 -17.5q-54 0 -87 22.5t-52 59.5t-25.5 83.5t-6.5 94.5q0 46 6.5 92t27.5 83t60.5 60.5t104.5 23.5q28 0 55 -4.5t56 -18.5v92h-93z" />
    <glyph glyph-name="Emacron" unicode="&#x112;" horiz-adv-x="513" 
d="M438 693q23 0 23 -23v-63h-286v-213h237q23 0 23 -23v-64h-260v-221h274q11 0 17.5 -6t6.5 -17v-63h-379q-24 0 -24 23v670h368zM378 848q24 0 24 -23v-53h-230q-24 0 -24 23v53h230z" />
    <glyph glyph-name="emacron" unicode="&#x113;" horiz-adv-x="496" 
d="M145 217q2 -40 9 -68t23.5 -45.5t44.5 -25.5t72 -8q39 0 71 4t44 4q23 0 23 -22v-42q-24 -10 -65.5 -17.5t-95.5 -7.5q-57 0 -99 14t-69.5 45.5t-40.5 82t-13 122.5t13 123t39.5 83.5t65.5 47t91 14.5q58 0 95 -16.5t58 -44.5t29 -65.5t8 -80.5q0 -29 -3 -56t-8 -41h-292
zM356 288q1 10 1 15v13q0 64 -19.5 96.5t-76.5 32.5q-34 0 -56 -11t-35 -31t-18.5 -49.5t-6.5 -65.5h211zM356 679q24 0 24 -23v-53h-230q-24 0 -24 23v53h230z" />
    <glyph glyph-name="Ebreve" unicode="&#x114;" horiz-adv-x="513" 
d="M438 693q23 0 23 -23v-63h-286v-213h237q23 0 23 -23v-64h-260v-221h274q11 0 17.5 -6t6.5 -17v-63h-379q-24 0 -24 23v670h368zM211 862q1 -11 3.5 -20.5t8.5 -17t16 -11.5t26 -4q26 0 39.5 15t16.5 57h48q11 0 14 -5.5t3 -13.5q0 -55 -32 -85.5t-92 -30.5
q-53 0 -85 29.5t-34 105.5h49q12 0 15 -5.5t4 -13.5z" />
    <glyph glyph-name="ebreve" unicode="&#x115;" horiz-adv-x="496" 
d="M145 217q2 -40 9 -68t23.5 -45.5t44.5 -25.5t72 -8q39 0 71 4t44 4q23 0 23 -22v-42q-24 -10 -65.5 -17.5t-95.5 -7.5q-57 0 -99 14t-69.5 45.5t-40.5 82t-13 122.5t13 123t39.5 83.5t65.5 47t91 14.5q58 0 95 -16.5t58 -44.5t29 -65.5t8 -80.5q0 -29 -3 -56t-8 -41h-292
zM356 288q1 10 1 15v13q0 64 -19.5 96.5t-76.5 32.5q-34 0 -56 -11t-35 -31t-18.5 -49.5t-6.5 -65.5h211zM199 691q4 -29 16.5 -41t37.5 -12q26 0 39.5 14.5t16.5 56.5h48q11 0 14.5 -5t2.5 -13q-4 -60 -34 -88.5t-87 -28.5t-88.5 29.5t-33.5 105.5h49q11 0 14 -4t5 -14z
" />
    <glyph glyph-name="Edotaccent" unicode="&#x116;" horiz-adv-x="513" 
d="M438 693q23 0 23 -23v-63h-286v-213h237q23 0 23 -23v-64h-260v-221h274q11 0 17.5 -6t6.5 -17v-63h-379q-24 0 -24 23v670h368zM326 814q0 -31 -14.5 -44t-46.5 -13t-47 13t-15 44q0 30 15 43t47 13t46.5 -13t14.5 -43z" />
    <glyph glyph-name="edotaccent" unicode="&#x117;" horiz-adv-x="496" 
d="M145 217q2 -40 9 -68t23.5 -45.5t44.5 -25.5t72 -8q39 0 71 4t44 4q23 0 23 -22v-42q-24 -10 -65.5 -17.5t-95.5 -7.5q-57 0 -99 14t-69.5 45.5t-40.5 82t-13 122.5t13 123t39.5 83.5t65.5 47t91 14.5q58 0 95 -16.5t58 -44.5t29 -65.5t8 -80.5q0 -29 -3 -56t-8 -41h-292
zM356 288q1 10 1 15v13q0 64 -19.5 96.5t-76.5 32.5q-34 0 -56 -11t-35 -31t-18.5 -49.5t-6.5 -65.5h211zM253 589q-33 0 -47.5 12.5t-14.5 42.5q0 29 14.5 42t47.5 13q32 0 47 -13t15 -42q0 -30 -15 -42.5t-47 -12.5z" />
    <glyph glyph-name="Eogonek" unicode="&#x118;" horiz-adv-x="513" 
d="M438 693q23 0 23 -23v-63h-286v-213h237q23 0 23 -23v-64h-260v-221h274q11 0 17.5 -6t6.5 -17v-63q-47 -36 -62.5 -56.5t-15.5 -37.5q0 -19 10.5 -24t29.5 -5q7 0 13.5 1t10.5 1q10 0 13 -5.5t3 -14.5v-34q-14 -4 -28.5 -6.5t-33.5 -2.5q-41 0 -66 17t-25 58
q0 30 19 57.5t48 51.5h-295q-24 0 -24 23v670h368z" />
    <glyph glyph-name="eogonek" unicode="&#x119;" horiz-adv-x="496" 
d="M432 14q-24 -23 -40 -39.5t-25 -29t-12.5 -21.5t-3.5 -18q0 -19 10.5 -24t29.5 -5q8 0 14.5 1t9.5 1q11 0 13.5 -5.5t2.5 -14.5v-34q-13 -4 -27.5 -6.5t-34.5 -2.5q-40 0 -65.5 17t-25.5 58q0 29 18.5 54.5t44.5 48.5q-18 -2 -37 -3.5t-33 -1.5q-57 0 -99 14t-69.5 45.5
t-40.5 82t-13 122.5q0 73 13 124t39 83t65.5 46.5t92.5 14.5q57 0 94 -16t58 -44.5t29 -68t8 -85.5q0 -20 -3 -48t-8 -42h-292q1 -39 8.5 -67t24 -46t43 -26t67.5 -8q49 0 77 4t42 4t19.5 -7t5.5 -17v-40zM356 288q1 10 1 18.5v15.5q-2 64 -21.5 93.5t-75.5 29.5
q-33 0 -55 -11t-35 -31t-18.5 -49t-6.5 -66h211z" />
    <glyph glyph-name="Ecaron" unicode="&#x11a;" horiz-adv-x="513" 
d="M438 693q23 0 23 -23v-63h-286v-213h237q23 0 23 -23v-64h-260v-221h274q11 0 17.5 -6t6.5 -17v-63h-379q-24 0 -24 23v670h368zM375 883q11 0 14 -6.5t-2 -15.5q-18 -32 -38.5 -61t-40.5 -55h-72q-10 0 -15 3t-13 14q-17 25 -35.5 54.5t-39.5 66.5h56q11 0 16.5 -3.5
t13.5 -14.5l46 -62l59 80h51z" />
    <glyph glyph-name="ecaron" unicode="&#x11b;" horiz-adv-x="496" 
d="M145 217q2 -40 9 -68t23.5 -45.5t44.5 -25.5t72 -8q39 0 71 4t44 4q23 0 23 -22v-42q-24 -10 -65.5 -17.5t-95.5 -7.5q-57 0 -99 14t-69.5 45.5t-40.5 82t-13 122.5t13 123t39.5 83.5t65.5 47t91 14.5q58 0 95 -16.5t58 -44.5t29 -65.5t8 -80.5q0 -29 -3 -56t-8 -41h-292
zM356 288q1 10 1 15v13q0 64 -19.5 96.5t-76.5 32.5q-34 0 -56 -11t-35 -31t-18.5 -49.5t-6.5 -65.5h211zM358 721q10 0 13.5 -6.5t-1.5 -15.5q-17 -33 -35 -63t-41 -63h-68q-10 0 -15 3.5t-12 14.5q-17 27 -36 61t-37 69h53q11 0 16.5 -3.5t12.5 -14.5l45 -70l56 88h49z
" />
    <glyph glyph-name="Gcircumflex" unicode="&#x11c;" horiz-adv-x="572" 
d="M492 366q24 0 24 -23v-324q-37 -14 -82.5 -22t-98.5 -8q-78 0 -131.5 20t-86 63.5t-47 110.5t-14.5 162q0 100 15.5 168.5t48.5 110.5t84 60.5t123 18.5q51 0 89.5 -7.5t56.5 -15.5q12 -5 15.5 -12t3.5 -21v-45q-29 4 -70.5 7.5t-77.5 3.5q-51 0 -86 -10.5t-56 -39.5
t-30.5 -80t-9.5 -132q0 -88 11 -141.5t33 -83t55.5 -39.5t78.5 -10q23 0 43.5 1.5t36.5 4.5v197h-86q-9 0 -15 6t-6 17v63h179zM193 745q-14 0 -15 8.5t4 18.5q3 6 11.5 18.5t19.5 28.5t23 33t23 31h72q11 0 17.5 -4t11.5 -11q7 -9 17.5 -24t21.5 -32.5t21.5 -35t18.5 -31.5
h-60q-11 0 -16.5 3.5t-13.5 14.5l-46 61l-60 -79h-50z" />
    <glyph glyph-name="gcircumflex" unicode="&#x11d;" horiz-adv-x="519" 
d="M49 259q0 75 14.5 124.5t44.5 79t75.5 41.5t107.5 12q40 0 83 -4t73 -9q19 -3 28.5 -9t9.5 -24v-43h-38q3 -63 4 -124.5t1 -121.5v-179q0 -88 -49 -134t-152 -46q-16 0 -36 1.5t-40.5 4t-39 6t-30.5 8.5q-13 5 -16.5 12.5t-3.5 18.5v42q35 -5 70 -8t67 -3
q73 0 101.5 20.5t28.5 70.5v62q-29 -20 -58.5 -31t-69.5 -11q-52 0 -85.5 18t-53.5 50.5t-28 77t-8 98.5zM150 261q0 -47 6 -79t18.5 -52t32.5 -28.5t47 -8.5q32 0 54.5 9.5t43.5 23.5v308q-16 2 -32.5 2.5t-30.5 0.5q-37 0 -63 -7t-43 -26.5t-25 -53.5t-8 -89zM164 573
q-11 0 -14 6.5t2 16.5q17 33 36 62.5t42 62.5h69q16 0 27 -19q7 -12 17 -28t20 -33t19.5 -35t16.5 -33h-54q-11 0 -16.5 3.5t-12.5 14.5l-45 68l-57 -86h-50z" />
    <glyph glyph-name="Gbreve" unicode="&#x11e;" horiz-adv-x="572" 
d="M492 366q24 0 24 -23v-324q-37 -14 -82.5 -22t-98.5 -8q-78 0 -131.5 20t-86 63.5t-47 110.5t-14.5 162q0 100 15.5 168.5t48.5 110.5t84 60.5t123 18.5q51 0 89.5 -7.5t56.5 -15.5q12 -5 15.5 -12t3.5 -21v-45q-29 4 -70.5 7.5t-77.5 3.5q-51 0 -86 -10.5t-56 -39.5
t-30.5 -80t-9.5 -132q0 -88 11 -141.5t33 -83t55.5 -39.5t78.5 -10q23 0 43.5 1.5t36.5 4.5v197h-86q-9 0 -15 6t-6 17v63h179zM249 862q1 -11 3.5 -20.5t8.5 -17t16 -11.5t26 -4q26 0 39.5 15t16.5 57h48q11 0 14 -5.5t3 -13.5q0 -55 -32 -85.5t-92 -30.5q-53 0 -85 29.5
t-34 105.5h49q12 0 15 -5.5t4 -13.5z" />
    <glyph glyph-name="gbreve" unicode="&#x11f;" horiz-adv-x="519" 
d="M49 259q0 75 14.5 124.5t44.5 79t75.5 41.5t107.5 12q40 0 83 -4t73 -9q19 -3 28.5 -9t9.5 -24v-43h-38q3 -63 4 -124.5t1 -121.5v-179q0 -88 -49 -134t-152 -46q-16 0 -36 1.5t-40.5 4t-39 6t-30.5 8.5q-13 5 -16.5 12.5t-3.5 18.5v42q35 -5 70 -8t67 -3
q73 0 101.5 20.5t28.5 70.5v62q-29 -20 -58.5 -31t-69.5 -11q-52 0 -85.5 18t-53.5 50.5t-28 77t-8 98.5zM150 261q0 -47 6 -79t18.5 -52t32.5 -28.5t47 -8.5q32 0 54.5 9.5t43.5 23.5v308q-16 2 -32.5 2.5t-30.5 0.5q-37 0 -63 -7t-43 -26.5t-25 -53.5t-8 -89zM217 691
q4 -29 16.5 -41t37.5 -12q26 0 39.5 14.5t16.5 56.5h48q11 0 14.5 -5t2.5 -13q-4 -60 -34 -88.5t-87 -28.5t-88.5 29.5t-33.5 105.5h49q11 0 14 -4t5 -14z" />
    <glyph glyph-name="Gdotaccent" unicode="&#x120;" horiz-adv-x="572" 
d="M492 366q24 0 24 -23v-324q-37 -14 -82.5 -22t-98.5 -8q-78 0 -131.5 20t-86 63.5t-47 110.5t-14.5 162q0 100 15.5 168.5t48.5 110.5t84 60.5t123 18.5q51 0 89.5 -7.5t56.5 -15.5q12 -5 15.5 -12t3.5 -21v-45q-29 4 -70.5 7.5t-77.5 3.5q-51 0 -86 -10.5t-56 -39.5
t-30.5 -80t-9.5 -132q0 -88 11 -141.5t33 -83t55.5 -39.5t78.5 -10q23 0 43.5 1.5t36.5 4.5v197h-86q-9 0 -15 6t-6 17v63h179zM364 814q0 -31 -14.5 -44t-46.5 -13t-47 13t-15 44q0 30 15 43t47 13t46.5 -13t14.5 -43z" />
    <glyph glyph-name="gdotaccent" unicode="&#x121;" horiz-adv-x="519" 
d="M49 259q0 75 14.5 124.5t44.5 79t75.5 41.5t107.5 12q40 0 83 -4t73 -9q19 -3 28.5 -9t9.5 -24v-43h-38q3 -63 4 -124.5t1 -121.5v-179q0 -88 -49 -134t-152 -46q-16 0 -36 1.5t-40.5 4t-39 6t-30.5 8.5q-13 5 -16.5 12.5t-3.5 18.5v42q35 -5 70 -8t67 -3
q73 0 101.5 20.5t28.5 70.5v62q-29 -20 -58.5 -31t-69.5 -11q-52 0 -85.5 18t-53.5 50.5t-28 77t-8 98.5zM150 261q0 -47 6 -79t18.5 -52t32.5 -28.5t47 -8.5q32 0 54.5 9.5t43.5 23.5v308q-16 2 -32.5 2.5t-30.5 0.5q-37 0 -63 -7t-43 -26.5t-25 -53.5t-8 -89zM271 589
q-33 0 -47.5 12.5t-14.5 42.5q0 29 14.5 42t47.5 13q32 0 47 -13t15 -42q0 -30 -15 -42.5t-47 -12.5z" />
    <glyph glyph-name="Gcommaaccent" unicode="&#x122;" horiz-adv-x="572" 
d="M492 366q24 0 24 -23v-324q-37 -14 -82.5 -22t-98.5 -8q-78 0 -131.5 20t-86 63.5t-47 110.5t-14.5 162q0 100 15.5 168.5t48.5 110.5t84 60.5t123 18.5q51 0 89.5 -7.5t56.5 -15.5q12 -5 15.5 -12t3.5 -21v-45q-29 4 -70.5 7.5t-77.5 3.5q-51 0 -86 -10.5t-56 -39.5
t-30.5 -80t-9.5 -132q0 -88 11 -141.5t33 -83t55.5 -39.5t78.5 -10q23 0 43.5 1.5t36.5 4.5v197h-86q-9 0 -15 6t-6 17v63h179zM366 -90q0 -19 -8 -36t-22 -36l-27 -37h-41q-8 0 -11.5 4t-3.5 9q0 2 1 5t7 12l25 40q-18 5 -26 13.5t-8 26.5q0 25 15 35.5t41 10.5t42 -10.5
t16 -36.5z" />
    <glyph glyph-name="gcommaaccent" unicode="&#x123;" horiz-adv-x="519" 
d="M49 259q0 75 14.5 124.5t44.5 79t75.5 41.5t107.5 12q40 0 83 -4t73 -9q19 -3 28.5 -9t9.5 -24v-43h-38q3 -63 4 -124.5t1 -121.5v-179q0 -88 -49 -134t-152 -46q-16 0 -36 1.5t-40.5 4t-39 6t-30.5 8.5q-13 5 -16.5 12.5t-3.5 18.5v42q35 -5 70 -8t67 -3
q73 0 101.5 20.5t28.5 70.5v62q-29 -20 -58.5 -31t-69.5 -11q-52 0 -85.5 18t-53.5 50.5t-28 77t-8 98.5zM150 261q0 -47 6 -79t18.5 -52t32.5 -28.5t47 -8.5q32 0 54.5 9.5t43.5 23.5v308q-16 2 -32.5 2.5t-30.5 0.5q-37 0 -63 -7t-43 -26.5t-25 -53.5t-8 -89zM214 614
q0 19 8 36t22 36l27 37h41q15 0 15 -11q0 -4 -1.5 -7.5t-6.5 -11.5l-25 -40q18 -5 26 -13.5t8 -26.5q0 -25 -15 -35.5t-41 -10.5t-42 10.5t-16 36.5z" />
    <glyph glyph-name="Hcircumflex" unicode="&#x124;" horiz-adv-x="607" 
d="M513 693q24 0 24 -23v-670h-81q-11 0 -17.5 6t-6.5 17v288h-257v-311h-81q-24 0 -24 23v670h81q11 0 17.5 -6t6.5 -17v-271h257v294h81zM193 745q-14 0 -15 8.5t4 18.5q3 6 11.5 18.5t19.5 28.5t23 33t23 31h72q11 0 17.5 -4t11.5 -11q7 -9 17.5 -24t21.5 -32.5t21.5 -35
t18.5 -31.5h-60q-11 0 -16.5 3.5t-13.5 14.5l-46 61l-60 -79h-50z" />
    <glyph glyph-name="hcircumflex" unicode="&#x125;" horiz-adv-x="524" 
d="M388 0q-11 0 -17.5 6t-6.5 17v315q0 52 -22 74.5t-64 22.5q-41 0 -70 -16.5t-46 -33.5v-385h-77q-24 0 -24 23v695h77q11 0 17.5 -6t6.5 -17v-237q29 31 68.5 46.5t84.5 15.5q80 0 115 -47t35 -127v-346h-77zM81 757q-11 0 -13.5 7.5t2.5 15.5q3 6 11 18t19 27t23 31.5
t24 30.5h70q11 0 16 -3t12 -13q3 -5 12.5 -18t20.5 -29.5l23 -34.5t20 -32h-56q-11 0 -16.5 3.5t-13.5 13.5l-45 58l-58 -75h-51z" />
    <glyph glyph-name="Hbar" unicode="&#x126;" horiz-adv-x="650" 
d="M535 693q23 0 23 -23v-90h35q22 0 22 -22v-48h-57v-510h-81q-23 0 -23 23v287h-258v-310h-81q-24 0 -24 23v487h-34q-22 0 -22 22v48h56v113h81q24 0 24 -23v-90h258v113h81zM454 393v117h-258v-117h258z" />
    <glyph glyph-name="hbar" unicode="&#x127;" horiz-adv-x="524" 
d="M255 641q22 0 22 -21v-41h-115v-129q59 62 156 62q40 0 68 -13.5t45.5 -36.5t25.5 -55t8 -69v-338h-77q-11 0 -17.5 6t-6.5 17v307q0 51 -22.5 74t-64.5 23q-39 0 -68.5 -16.5t-46.5 -33.5v-377h-77q-24 0 -24 23v556h-34q-22 0 -22 21v41h56v77h77q11 0 17.5 -6t6.5 -17
v-54h93z" />
    <glyph glyph-name="Itilde" unicode="&#x128;" horiz-adv-x="245" 
d="M94 0q-24 0 -24 23v670h81q24 0 24 -23v-670h-81zM277 848q0 -43 -20 -70.5t-64 -27.5q-28 0 -46.5 10t-34.5 22q-12 9 -20 14.5t-13 8.5t-9.5 4t-10.5 1q-10 0 -15 -5t-7.5 -13t-3 -18.5t-0.5 -21.5h-44q-11 0 -14.5 5.5t-3.5 18.5q0 43 20 70.5t64 27.5q28 0 46.5 -10
t34.5 -22q12 -9 20 -14.5t13 -8.5t9.5 -4t10.5 -1q19 0 22.5 18t3.5 40h44q11 0 14.5 -5.5t3.5 -18.5z" />
    <glyph glyph-name="itilde" unicode="&#x129;" horiz-adv-x="227" 
d="M164 0h-77q-24 0 -24 23v486h77q24 0 24 -23v-486zM267 678q0 -43 -20 -70.5t-64 -27.5q-28 0 -46.5 10t-34.5 22q-12 9 -20 14.5t-13 8.5t-9.5 4t-10.5 1q-10 0 -15 -5t-7.5 -13t-3 -18.5t-0.5 -21.5h-45q-11 0 -14 5.5t-3 18.5q0 43 20 70.5t64 27.5q28 0 46.5 -10
t34.5 -22q12 -9 20 -14.5t13 -8.5t9.5 -4t10.5 -1q19 0 22.5 18t3.5 40h45q11 0 14 -5.5t3 -18.5z" />
    <glyph glyph-name="Imacron" unicode="&#x12a;" horiz-adv-x="245" 
d="M94 0q-24 0 -24 23v670h81q24 0 24 -23v-670h-81zM227 848q24 0 24 -23v-53h-230q-24 0 -24 23v53h230z" />
    <glyph glyph-name="imacron" unicode="&#x12b;" horiz-adv-x="227" 
d="M164 0h-77q-24 0 -24 23v486h77q24 0 24 -23v-486zM218 679q24 0 24 -23v-53h-230q-24 0 -24 23v53h230z" />
    <glyph glyph-name="Ibreve" unicode="&#x12c;" horiz-adv-x="245" 
d="M94 0q-24 0 -24 23v670h81q24 0 24 -23v-670h-81zM71 862q1 -11 3.5 -20.5t8.5 -17t16 -11.5t26 -4q26 0 39.5 15t16.5 57h48q11 0 14 -5.5t3 -13.5q0 -55 -32 -85.5t-92 -30.5q-53 0 -85 29.5t-34 105.5h49q12 0 15 -5.5t4 -13.5z" />
    <glyph glyph-name="ibreve" unicode="&#x12d;" horiz-adv-x="227" 
d="M164 0h-77q-24 0 -24 23v486h77q24 0 24 -23v-486zM60 691q4 -29 16.5 -41t37.5 -12q26 0 39.5 14.5t16.5 56.5h48q11 0 14.5 -5t2.5 -13q-4 -60 -34 -88.5t-87 -28.5t-88.5 29.5t-33.5 105.5h49q11 0 14 -4t5 -14z" />
    <glyph glyph-name="Iogonek" unicode="&#x12e;" horiz-adv-x="245" 
d="M175 1q-23 -16 -37 -29.5t-22 -25t-10.5 -21.5t-2.5 -19q0 -19 10.5 -24t29.5 -5q8 0 14.5 1t9.5 1q11 0 13.5 -5.5t2.5 -14.5v-34q-13 -4 -27.5 -6.5t-34.5 -2.5q-40 0 -65.5 17t-25.5 58q0 31 17 56.5t43 52.5q-8 0 -14 6t-6 14v673h81q24 0 24 -23v-669z" />
    <glyph glyph-name="iogonek" unicode="&#x12f;" horiz-adv-x="227" 
d="M91 0q-10 1 -14 7t-4 15v487h76q24 0 24 -23v-485q-44 -32 -57 -54.5t-13 -40.5q0 -19 10.5 -24t29.5 -5q8 0 14.5 1t9.5 1q11 0 13.5 -5.5t2.5 -14.5v-34q-13 -4 -28 -6.5t-34 -2.5q-41 0 -66 17t-25 58q0 31 17 57t44 52zM123 589q-33 0 -47.5 12.5t-14.5 42.5
q0 29 14.5 42t47.5 13q32 0 47 -13t15 -42q0 -30 -15 -42.5t-47 -12.5z" />
    <glyph glyph-name="Idotaccent" unicode="&#x130;" horiz-adv-x="245" 
d="M94 0q-24 0 -24 23v670h81q24 0 24 -23v-670h-81zM185 814q0 -31 -14.5 -44t-46.5 -13t-47 13t-15 44q0 30 15 43t47 13t46.5 -13t14.5 -43z" />
    <glyph glyph-name="dotlessi" unicode="&#x131;" horiz-adv-x="227" 
d="M164 0h-77q-24 0 -24 23v486h77q24 0 24 -23v-486z" />
    <glyph glyph-name="IJ" unicode="&#x132;" horiz-adv-x="624" 
d="M94 0q-24 0 -24 23v670h81q24 0 24 -23v-670h-81zM533 693q24 0 24 -23v-448q0 -59 -9 -102t-30.5 -72t-57.5 -43t-91 -14q-32 0 -50.5 3t-31.5 8q-10 5 -12.5 12.5t-2.5 16.5v51q20 -2 35 -2.5t35 -0.5q37 0 59 10t33 27.5t14.5 42t3.5 53.5v481h81z" />
    <glyph glyph-name="ij" unicode="&#x133;" horiz-adv-x="461" 
d="M164 0h-77q-24 0 -24 23v486h77q24 0 24 -23v-486zM114 589q-33 0 -47.5 12.5t-14.5 42.5q0 29 14.5 42t47.5 13q32 0 47 -13t15 -42q0 -30 -15 -42.5t-47 -12.5zM398 -56q0 -55 -29.5 -86.5t-92.5 -31.5q-14 0 -30 1.5t-25 6.5q-5 2 -10.5 9t-5.5 18v45q12 -1 22.5 -1
h21.5q26 0 37 13t11 40v551h77q24 0 24 -23v-542zM348 589q-33 0 -47.5 12.5t-14.5 42.5q0 29 14.5 42t47.5 13q32 0 47 -13t15 -42q0 -30 -15 -42.5t-47 -12.5z" />
    <glyph glyph-name="Jcircumflex" unicode="&#x134;" horiz-adv-x="379" 
d="M288 693q24 0 24 -23v-448q0 -59 -9 -102t-30.5 -72t-57.5 -43t-91 -14q-32 0 -50.5 3t-31.5 8q-10 5 -12.5 12.5t-2.5 16.5v51q20 -2 35 -2.5t35 -0.5q37 0 59 10t33 27.5t14.5 42t3.5 53.5v481h81zM150 745q-14 0 -15 8.5t4 18.5q3 6 11.5 18.5t19.5 28.5t23 33t23 31
h72q11 0 17.5 -4t11.5 -11q7 -9 17.5 -24t21.5 -32.5t21.5 -35t18.5 -31.5h-60q-11 0 -16.5 3.5t-13.5 14.5l-46 61l-60 -79h-50z" />
    <glyph glyph-name="jcircumflex" unicode="&#x135;" horiz-adv-x="227" 
d="M164 -56q0 -55 -29.5 -86.5t-92.5 -31.5q-14 0 -30 1.5t-25 6.5q-5 2 -10.5 9t-5.5 18v45q12 -1 22.5 -1h21.5q26 0 37 13t11 40v551h77q24 0 24 -23v-542zM6 573q-11 0 -14 6.5t2 16.5q17 33 36 62.5t42 62.5h69q16 0 27 -19q7 -12 17 -28t20 -33t19.5 -35t16.5 -33h-54
q-11 0 -16.5 3.5t-12.5 14.5l-45 68l-57 -86h-50z" />
    <glyph glyph-name="Kcommaaccent" unicode="&#x136;" horiz-adv-x="553" 
d="M509 652q-38 -63 -102.5 -141t-149.5 -152q36 -30 75 -71t76 -88t71.5 -98t61.5 -102h-98q-16 0 -23.5 8.5t-12.5 18.5q-54 83 -116 158.5t-116 126.5v-312h-81q-24 0 -24 23v670h81q24 0 24 -23v-275q31 29 63.5 63t64 72.5t61 79.5t55.5 83h76q21 0 21 -19q0 -8 -7 -22
zM350 -90q0 -19 -8 -36t-22 -36l-27 -37h-41q-8 0 -11.5 4t-3.5 9q0 2 1 5t7 12l25 40q-18 5 -26 13.5t-8 26.5q0 25 15 35.5t41 10.5t42 -10.5t16 -36.5z" />
    <glyph glyph-name="kcommaaccent" unicode="&#x137;" horiz-adv-x="491" 
d="M61 718h77q11 0 17.5 -6t6.5 -17v-396q68 56 113 109.5t79 100.5h75q17 0 17 -18q0 -11 -10 -25q-8 -13 -26 -35.5t-43 -49.5t-55 -56t-61 -53q37 -30 67.5 -60.5t57.5 -63.5t51.5 -69.5t48.5 -78.5h-93q-14 0 -20.5 6t-11.5 17q-18 29 -37 55.5t-42 52.5t-50 53t-60 56
v-240h-77q-24 0 -24 23v695zM315 -90q0 -19 -8 -36t-22 -36l-27 -37h-41q-15 0 -15 11q0 4 1.5 7.5t6.5 11.5l25 40q-18 5 -26 13.5t-8 26.5q0 25 15 35.5t41 10.5t42 -10.5t16 -36.5z" />
    <glyph glyph-name="kgreenlandic" unicode="&#x138;" horiz-adv-x="496" 
d="M162 0h-77q-24 0 -24 23v486h77q11 0 17.5 -6t6.5 -17v-191q69 55 115 109.5t83 104.5h73q20 0 20 -18q0 -11 -10 -25q-8 -14 -28 -37.5t-46.5 -51t-57.5 -56.5t-62 -54q38 -30 69.5 -59.5t59 -61.5t52.5 -68t51 -78h-93q-13 0 -19.5 6t-11.5 17q-19 28 -39 54.5
t-43.5 52t-51 51.5t-61.5 55v-236z" />
    <glyph glyph-name="Lacute" unicode="&#x139;" horiz-adv-x="472" 
d="M94 0q-24 0 -24 23v670h81q11 0 17.5 -6t6.5 -17v-582h246q24 0 24 -23v-65h-351zM91 745q-22 0 -14 22q2 6 8.5 19t16 29.5t20 34.5t21.5 33h83q18 0 18 -14q0 -12 -12 -25l-87 -99h-54z" />
    <glyph glyph-name="lacute" unicode="&#x13a;" horiz-adv-x="261" 
d="M162 118q0 -27 9 -35t32 -9q16 -1 24 -5t8 -19v-46q-16 -5 -33 -7.5t-37 -2.5q-31 0 -51 9.5t-32 28.5t-16.5 47.5t-4.5 66.5v572h77q11 0 17.5 -6t6.5 -17v-577zM83 757q-22 0 -14 22q3 8 9.5 21t15.5 28.5t19 31t19 27.5h83q8 0 13 -2.5t5 -10.5q0 -7 -5.5 -14
t-12.5 -15l-78 -88h-54z" />
    <glyph glyph-name="Lcommaaccent" unicode="&#x13b;" horiz-adv-x="472" 
d="M94 0q-24 0 -24 23v670h81q11 0 17.5 -6t6.5 -17v-582h246q24 0 24 -23v-65h-351zM315 -90q0 -19 -8 -36t-22 -36l-27 -37h-41q-8 0 -11.5 4t-3.5 9q0 2 1 5t7 12l25 40q-18 5 -26 13.5t-8 26.5q0 25 15 35.5t41 10.5t42 -10.5t16 -36.5z" />
    <glyph glyph-name="lcommaaccent" unicode="&#x13c;" horiz-adv-x="261" 
d="M162 118q0 -27 9 -35t32 -9q16 -1 24 -5t8 -19v-46q-16 -5 -33 -7.5t-37 -2.5q-31 0 -51 9.5t-32 28.5t-16.5 47.5t-4.5 66.5v572h77q11 0 17.5 -6t6.5 -17v-577zM207 -90q0 -19 -8 -36t-22 -36l-27 -37h-41q-15 0 -15 11q0 4 1.5 7.5t6.5 11.5l25 40q-18 5 -26 13.5
t-8 26.5q0 25 15 35.5t41 10.5t42 -10.5t16 -36.5z" />
    <glyph glyph-name="Lcaron" unicode="&#x13d;" horiz-adv-x="472" 
d="M94 0q-24 0 -24 23v670h81q11 0 17.5 -6t6.5 -17v-582h246q24 0 24 -23v-65h-351zM265 534q-19 0 -19 18v146h67q20 0 20 -18q0 -8 -2.5 -24.5t-6.5 -37t-9 -43t-10 -41.5h-40z" />
    <glyph glyph-name="lcaron" unicode="&#x13e;" horiz-adv-x="261" 
d="M162 118q0 -27 9 -35t32 -9q16 -1 24 -5t8 -19v-46q-16 -5 -33 -7.5t-37 -2.5q-31 0 -51 9.5t-32 28.5t-16.5 47.5t-4.5 66.5v572h77q11 0 17.5 -6t6.5 -17v-577zM241 558q-19 0 -19 18v146h67q20 0 20 -18q0 -8 -2.5 -24.5t-6.5 -37t-9 -43t-10 -41.5h-40z" />
    <glyph glyph-name="Ldot" unicode="&#x13f;" horiz-adv-x="472" 
d="M94 0q-24 0 -24 23v670h81q11 0 17.5 -6t6.5 -17v-582h246q24 0 24 -23v-65h-351zM350 306q-33 0 -47.5 12.5t-14.5 42.5q0 29 14.5 42t47.5 13q32 0 47 -13t15 -42q0 -30 -15 -42.5t-47 -12.5z" />
    <glyph glyph-name="ldot" unicode="&#x140;" horiz-adv-x="335" 
d="M162 118q0 -27 9 -35t32 -9q16 -1 24 -5t8 -19v-46q-16 -5 -33 -7.5t-37 -2.5q-31 0 -51 9.5t-32 28.5t-16.5 47.5t-4.5 66.5v572h77q11 0 17.5 -6t6.5 -17v-577zM280 306q-33 0 -47.5 12.5t-14.5 42.5q0 29 14.5 42t47.5 13q32 0 47 -13t15 -42q0 -30 -15 -42.5
t-47 -12.5z" />
    <glyph glyph-name="Lslash" unicode="&#x141;" horiz-adv-x="487" 
d="M109 0q-24 0 -24 23v249l-53 -25q-10 -5 -17 -1.5t-7 14.5v55l77 36v342h81q11 0 17.5 -6t6.5 -17v-274l124 59q10 5 17 1.5t7 -14.5v-55l-148 -70v-229h246q24 0 24 -23v-65h-351z" />
    <glyph glyph-name="lslash" unicode="&#x142;" horiz-adv-x="287" 
d="M185 118q0 -27 9.5 -35t32.5 -9q16 -1 24 -5t8 -19v-46q-13 -4 -30 -7t-38 -3q-37 0 -58 12t-32 34t-14 51t-3 64v147l-53 -25q-9 -4 -16.5 -1.5t-7.5 13.5v52l77 36v341h77q24 0 24 -23v-275l54 25q8 5 16 2t8 -14v-52l-78 -36v-227z" />
    <glyph glyph-name="Nacute" unicode="&#x143;" horiz-adv-x="613" 
d="M543 0h-83q-17 0 -27 23q-16 34 -38 78t-47 92t-51 97.5t-50 94t-44 81t-33 59.5v-525h-76q-24 0 -24 23v670h84q11 0 17 -6.5t12 -16.5q13 -23 32.5 -58t43 -77t48.5 -89t49.5 -93.5t47 -90t39.5 -78.5v509h76q24 0 24 -23v-670zM267 745q-22 0 -14 22q2 6 8.5 19
t16 29.5t20 34.5t21.5 33h83q18 0 18 -14q0 -12 -12 -25l-87 -99h-54z" />
    <glyph glyph-name="nacute" unicode="&#x144;" horiz-adv-x="524" 
d="M85 0q-24 0 -24 23v486h61q11 0 18.5 -5t9.5 -20l4 -31q62 67 159 67q82 0 117 -47.5t35 -126.5v-346h-77q-11 0 -17.5 6t-6.5 17v315q0 52 -22 74.5t-64 22.5q-41 0 -70 -16.5t-46 -33.5v-385h-77zM229 573q-10 0 -14 6.5t1 16.5q14 34 29 65t32 60h82q17 0 17 -13
q0 -7 -4 -14t-10 -15l-82 -106h-51z" />
    <glyph glyph-name="Ncommaaccent" unicode="&#x145;" horiz-adv-x="613" 
d="M543 0h-83q-17 0 -27 23q-16 34 -38 78t-47 92t-51 97.5t-50 94t-44 81t-33 59.5v-525h-76q-24 0 -24 23v670h84q11 0 17 -6.5t12 -16.5q13 -23 32.5 -58t43 -77t48.5 -89t49.5 -93.5t47 -90t39.5 -78.5v509h76q24 0 24 -23v-670zM363 -90q0 -19 -8 -36t-22 -36l-27 -37
h-41q-8 0 -11.5 4t-3.5 9q0 2 1 5t7 12l25 40q-18 5 -26 13.5t-8 26.5q0 25 15 35.5t41 10.5t42 -10.5t16 -36.5z" />
    <glyph glyph-name="ncommaaccent" unicode="&#x146;" horiz-adv-x="524" 
d="M85 0q-24 0 -24 23v486h61q11 0 18.5 -5t9.5 -20l4 -31q62 67 159 67q82 0 117 -47.5t35 -126.5v-346h-77q-11 0 -17.5 6t-6.5 17v315q0 52 -22 74.5t-64 22.5q-41 0 -70 -16.5t-46 -33.5v-385h-77zM320 -90q0 -19 -8 -36t-22 -36l-27 -37h-41q-15 0 -15 11q0 4 1.5 7.5
t6.5 11.5l25 40q-18 5 -26 13.5t-8 26.5q0 25 15 35.5t41 10.5t42 -10.5t16 -36.5z" />
    <glyph glyph-name="Ncaron" unicode="&#x147;" horiz-adv-x="613" 
d="M543 0h-83q-17 0 -27 23q-16 34 -38 78t-47 92t-51 97.5t-50 94t-44 81t-33 59.5v-525h-76q-24 0 -24 23v670h84q11 0 17 -6.5t12 -16.5q13 -23 32.5 -58t43 -77t48.5 -89t49.5 -93.5t47 -90t39.5 -78.5v509h76q24 0 24 -23v-670zM416 883q11 0 14 -6.5t-2 -15.5
q-18 -32 -38.5 -61t-40.5 -55h-72q-10 0 -15 3t-13 14q-17 25 -35.5 54.5t-39.5 66.5h56q11 0 16.5 -3.5t13.5 -14.5l46 -62l59 80h51z" />
    <glyph glyph-name="ncaron" unicode="&#x148;" horiz-adv-x="524" 
d="M85 0q-24 0 -24 23v486h61q11 0 18.5 -5t9.5 -20l4 -31q62 67 159 67q82 0 117 -47.5t35 -126.5v-346h-77q-11 0 -17.5 6t-6.5 17v315q0 52 -22 74.5t-64 22.5q-41 0 -70 -16.5t-46 -33.5v-385h-77zM368 721q10 0 13.5 -6.5t-1.5 -15.5q-17 -33 -35 -63t-41 -63h-68
q-10 0 -15 3.5t-12 14.5q-17 27 -36 61t-37 69h53q11 0 16.5 -3.5t12.5 -14.5l45 -70l56 88h49z" />
    <glyph glyph-name="napostrophe" unicode="&#x149;" horiz-adv-x="556" 
d="M117 0q-24 0 -24 23v486h61q11 0 18.5 -5t9.5 -20l4 -31q62 67 159 67q82 0 117 -47.5t35 -126.5v-346h-77q-11 0 -17.5 6t-6.5 17v315q0 52 -22 74.5t-64 22.5q-41 0 -70 -16.5t-46 -33.5v-385h-77zM108 679q0 -34 -28 -84l-29 -54h-40q-15 0 -15 13q0 7 4 14l27 61
q-38 9 -38 50q0 29 15 41.5t44 12.5q60 0 60 -54z" />
    <glyph glyph-name="Eng" unicode="&#x14a;" horiz-adv-x="613" 
d="M543 -16q0 -72 -30.5 -115.5t-101.5 -43.5q-27 0 -43 2t-27 7q-16 8 -16 27v49q12 -1 26 -1.5t31 -0.5q40 0 50.5 22.5t10.5 60.5v20q-19 38 -43 84.5t-50 96t-52.5 99t-50.5 93.5t-44 80.5t-33 60.5v-525h-76q-24 0 -24 23v670h84q11 0 17 -6.5t12 -16.5
q12 -22 31.5 -57t43 -77t49 -89t50 -93.5t47 -90.5t39.5 -79v509h76q24 0 24 -23v-686z" />
    <glyph glyph-name="eng" unicode="&#x14b;" horiz-adv-x="524" 
d="M465 -56q0 -31 -10 -53t-28 -36.5t-42 -21.5t-52 -7q-32 0 -42.5 8.5t-10.5 25.5v44q8 -1 14 -1h8q23 0 35.5 4t18.5 13.5t7 26t1 41.5v350q0 52 -22 74.5t-64 22.5q-41 0 -70 -16.5t-46 -33.5v-385h-77q-24 0 -24 23v486h61q11 0 18.5 -5.5t9.5 -19.5l4 -31
q24 27 64 47.5t94 20.5q41 0 70 -13t47.5 -36.5t27 -55.5t8.5 -70v-402z" />
    <glyph glyph-name="Omacron" unicode="&#x14c;" horiz-adv-x="613" 
d="M163 346q0 -77 6.5 -128.5t23 -83t44 -45t69.5 -13.5t69.5 13.5t44 45t23.5 83t7 128.5t-7 128.5t-23.5 83t-44 45t-69.5 13.5t-69.5 -13.5t-44 -45t-23 -83t-6.5 -128.5zM557 346q0 -111 -18 -181t-51 -109t-79.5 -53.5t-102.5 -14.5t-102 14.5t-79 53.5t-51 109
t-18 181t18 181t51 109t79 53.5t102 14.5t102.5 -14.5t79.5 -53.5t51 -109t18 -181zM409 848q24 0 24 -23v-53h-230q-24 0 -24 23v53h230z" />
    <glyph glyph-name="omacron" unicode="&#x14d;" horiz-adv-x="526" 
d="M263 -12q-113 0 -163.5 64t-50.5 203q0 138 50.5 202t163.5 64t163.5 -64t50.5 -202q0 -139 -50.5 -203t-163.5 -64zM375 255q0 54 -6.5 90t-20 57.5t-35 30.5t-50.5 9t-50.5 -9t-35 -30.5t-20 -57.5t-6.5 -90q0 -55 6.5 -91.5t20 -58t35 -30t50.5 -8.5t50.5 8.5t35 30
t20 58t6.5 91.5zM366 679q24 0 24 -23v-53h-230q-24 0 -24 23v53h230z" />
    <glyph glyph-name="Obreve" unicode="&#x14e;" horiz-adv-x="613" 
d="M163 346q0 -77 6.5 -128.5t23 -83t44 -45t69.5 -13.5t69.5 13.5t44 45t23.5 83t7 128.5t-7 128.5t-23.5 83t-44 45t-69.5 13.5t-69.5 -13.5t-44 -45t-23 -83t-6.5 -128.5zM557 346q0 -111 -18 -181t-51 -109t-79.5 -53.5t-102.5 -14.5t-102 14.5t-79 53.5t-51 109
t-18 181t18 181t51 109t79 53.5t102 14.5t102.5 -14.5t79.5 -53.5t51 -109t18 -181zM253 862q1 -11 3.5 -20.5t8.5 -17t16 -11.5t26 -4q26 0 39.5 15t16.5 57h48q11 0 14 -5.5t3 -13.5q0 -55 -32 -85.5t-92 -30.5q-53 0 -85 29.5t-34 105.5h49q12 0 15 -5.5t4 -13.5z" />
    <glyph glyph-name="obreve" unicode="&#x14f;" horiz-adv-x="526" 
d="M263 -12q-113 0 -163.5 64t-50.5 203q0 138 50.5 202t163.5 64t163.5 -64t50.5 -202q0 -139 -50.5 -203t-163.5 -64zM375 255q0 54 -6.5 90t-20 57.5t-35 30.5t-50.5 9t-50.5 -9t-35 -30.5t-20 -57.5t-6.5 -90q0 -55 6.5 -91.5t20 -58t35 -30t50.5 -8.5t50.5 8.5t35 30
t20 58t6.5 91.5zM209 691q4 -29 16.5 -41t37.5 -12q26 0 39.5 14.5t16.5 56.5h48q11 0 14.5 -5t2.5 -13q-4 -60 -34 -88.5t-87 -28.5t-88.5 29.5t-33.5 105.5h49q11 0 14 -4t5 -14z" />
    <glyph glyph-name="Ohungarumlaut" unicode="&#x150;" horiz-adv-x="613" 
d="M163 346q0 -77 6.5 -128.5t23 -83t44 -45t69.5 -13.5t69.5 13.5t44 45t23.5 83t7 128.5t-7 128.5t-23.5 83t-44 45t-69.5 13.5t-69.5 -13.5t-44 -45t-23 -83t-6.5 -128.5zM557 346q0 -111 -18 -181t-51 -109t-79.5 -53.5t-102.5 -14.5t-102 14.5t-79 53.5t-51 109
t-18 181t18 181t51 109t79 53.5t102 14.5t102.5 -14.5t79.5 -53.5t51 -109t18 -181zM217 735q-21 0 -14 23q1 5 7.5 19.5t15.5 33t18.5 38t18.5 34.5h70q10 0 15 -4.5t2 -14.5q-2 -5 -5.5 -11t-7.5 -12l-70 -106h-50zM363 735q-21 0 -14 23q1 5 7.5 19.5t15.5 33t18.5 38
t18.5 34.5h70q10 0 15 -4.5t2 -14.5q-2 -5 -5.5 -11t-7.5 -12l-70 -106h-50z" />
    <glyph glyph-name="ohungarumlaut" unicode="&#x151;" horiz-adv-x="526" 
d="M263 -12q-113 0 -163.5 64t-50.5 203q0 138 50.5 202t163.5 64t163.5 -64t50.5 -202q0 -139 -50.5 -203t-163.5 -64zM375 255q0 54 -6.5 90t-20 57.5t-35 30.5t-50.5 9t-50.5 -9t-35 -30.5t-20 -57.5t-6.5 -90q0 -55 6.5 -91.5t20 -58t35 -30t50.5 -8.5t50.5 8.5t35 30
t20 58t6.5 91.5zM169 573q-21 0 -14 23q1 5 7.5 19.5t15.5 33t18.5 38t18.5 34.5h70q10 0 15 -4.5t2 -14.5q-2 -5 -5.5 -11t-7.5 -12l-70 -106h-50zM315 573q-21 0 -14 23q1 5 7.5 19.5t15.5 33t18.5 38t18.5 34.5h70q10 0 15 -4.5t2 -14.5q-2 -5 -5.5 -11t-7.5 -12
l-70 -106h-50z" />
    <glyph glyph-name="OE" unicode="&#x152;" horiz-adv-x="809" 
d="M734 693q24 0 24 -23v-63h-264v-213h214q24 0 24 -23v-64h-238v-221h251q24 0 24 -23v-63h-358q-23 -6 -47.5 -8.5t-46.5 -2.5q-60 0 -108.5 14t-82 53t-52 108.5t-18.5 181.5q0 109 20 178.5t55.5 109t84.5 54.5t108 15q22 0 44 -2.5t43 -7.5h323zM317 77q19 0 39 2.5
t36 7.5v518q-31 11 -68 11q-43 0 -74 -13t-50.5 -44t-28.5 -83t-9 -130q0 -77 8 -128.5t26 -83t47.5 -44.5t73.5 -13z" />
    <glyph glyph-name="oe" unicode="&#x153;" horiz-adv-x="795" 
d="M577 -11q-63 0 -103.5 20t-60.5 63q-44 -84 -158 -84q-107 0 -156.5 64t-49.5 203q0 138 49.5 202t156.5 64q116 0 158 -86q23 45 62 65.5t92 20.5q54 0 89 -16.5t55.5 -45.5t28 -68.5t7.5 -85.5q0 -20 -3 -45.5t-8 -39.5h-278q2 -40 7.5 -68.5t20 -46.5t39 -26.5
t65.5 -8.5q48 0 75.5 4t41.5 4q13 0 18.5 -7t5.5 -17v-40q-23 -10 -64.5 -17.5t-89.5 -7.5zM365 255q0 54 -6 90t-19 57.5t-33.5 30.5t-48.5 9q-29 0 -49.5 -9t-33.5 -30.5t-19.5 -57.5t-6.5 -90q0 -55 6.5 -91.5t19.5 -58t33.5 -30t49.5 -8.5q28 0 48.5 8.5t33.5 30t19 58
t6 91.5zM562 445q-29 0 -48.5 -11t-31.5 -31.5t-17.5 -50t-6.5 -65.5h199q1 10 1 15.5v13.5q0 64 -19.5 96.5t-76.5 32.5z" />
    <glyph glyph-name="Racute" unicode="&#x154;" horiz-adv-x="567" 
d="M94 0q-24 0 -24 23v658q44 8 99 13.5t111 5.5q120 0 174 -52.5t54 -158.5q0 -75 -34.5 -122t-91.5 -67q24 -29 48.5 -68t46 -80t39 -81t27.5 -71h-87q-14 0 -20.5 5.5t-10.5 16.5q-9 25 -24.5 57.5t-34 67t-40.5 69t-45 62.5h-107v-278h-80zM174 359h110q26 0 48.5 5.5
t39 19.5t25.5 39.5t9 64.5t-8 64t-23.5 40t-39.5 20.5t-56 5.5q-34 0 -61 -2t-44 -5v-252zM238 745q-22 0 -14 22q2 6 8.5 19t16 29.5t20 34.5t21.5 33h83q18 0 18 -14q0 -12 -12 -25l-87 -99h-54z" />
    <glyph glyph-name="racute" unicode="&#x155;" horiz-adv-x="351" 
d="M292 512q20 0 27 -6.5t7 -17.5v-67q-7 1 -14 1h-13q-41 0 -74.5 -13t-62.5 -44v-365h-77q-24 0 -24 23v486h61q13 0 19 -5.5t9 -19.5l4 -44q23 28 59 50t79 22zM146 573q-10 0 -14 6.5t1 16.5q14 34 29 65t32 60h82q17 0 17 -13q0 -7 -4 -14t-10 -15l-82 -106h-51z" />
    <glyph glyph-name="Rcommaaccent" unicode="&#x156;" horiz-adv-x="567" 
d="M94 0q-24 0 -24 23v658q44 8 99 13.5t111 5.5q120 0 174 -52.5t54 -158.5q0 -75 -34.5 -122t-91.5 -67q24 -29 48.5 -68t46 -80t39 -81t27.5 -71h-87q-14 0 -20.5 5.5t-10.5 16.5q-9 25 -24.5 57.5t-34 67t-40.5 69t-45 62.5h-107v-278h-80zM174 359h110q26 0 48.5 5.5
t39 19.5t25.5 39.5t9 64.5t-8 64t-23.5 40t-39.5 20.5t-56 5.5q-34 0 -61 -2t-44 -5v-252zM357 -90q0 -19 -8 -36t-22 -36l-27 -37h-41q-8 0 -11.5 4t-3.5 9q0 2 1 5t7 12l25 40q-18 5 -26 13.5t-8 26.5q0 25 15 35.5t41 10.5t42 -10.5t16 -36.5z" />
    <glyph glyph-name="rcommaaccent" unicode="&#x157;" horiz-adv-x="351" 
d="M292 512q20 0 27 -6.5t7 -17.5v-67q-7 1 -14 1h-13q-41 0 -74.5 -13t-62.5 -44v-365h-77q-24 0 -24 23v486h61q13 0 19 -5.5t9 -19.5l4 -44q23 28 59 50t79 22zM170 -90q0 -19 -8 -36t-22 -36l-27 -37h-41q-8 0 -11.5 4t-3.5 9q0 2 1 5t7 12l25 40q-18 5 -26 13.5
t-8 26.5q0 25 15 35.5t41 10.5t42 -10.5t16 -36.5z" />
    <glyph glyph-name="Rcaron" unicode="&#x158;" horiz-adv-x="567" 
d="M94 0q-24 0 -24 23v658q44 8 99 13.5t111 5.5q120 0 174 -52.5t54 -158.5q0 -75 -34.5 -122t-91.5 -67q24 -29 48.5 -68t46 -80t39 -81t27.5 -71h-87q-14 0 -20.5 5.5t-10.5 16.5q-9 25 -24.5 57.5t-34 67t-40.5 69t-45 62.5h-107v-278h-80zM174 359h110q26 0 48.5 5.5
t39 19.5t25.5 39.5t9 64.5t-8 64t-23.5 40t-39.5 20.5t-56 5.5q-34 0 -61 -2t-44 -5v-252zM385 883q11 0 14 -6.5t-2 -15.5q-18 -32 -38.5 -61t-40.5 -55h-72q-10 0 -15 3t-13 14q-17 25 -35.5 54.5t-39.5 66.5h56q11 0 16.5 -3.5t13.5 -14.5l46 -62l59 80h51z" />
    <glyph glyph-name="rcaron" unicode="&#x159;" horiz-adv-x="351" 
d="M292 512q20 0 27 -6.5t7 -17.5v-67q-7 1 -14 1h-13q-41 0 -74.5 -13t-62.5 -44v-365h-77q-24 0 -24 23v486h61q13 0 19 -5.5t9 -19.5l4 -44q23 28 59 50t79 22zM285 721q10 0 13.5 -6.5t-1.5 -15.5q-17 -33 -35 -63t-41 -63h-68q-10 0 -15 3.5t-12 14.5q-17 27 -36 61
t-37 69h53q11 0 16.5 -3.5t12.5 -14.5l45 -70l56 88h49z" />
    <glyph glyph-name="Sacute" unicode="&#x15a;" horiz-adv-x="515" 
d="M48 512q0 95 54 143t167 48q42 0 84 -5.5t65 -13.5q16 -7 19.5 -15.5t3.5 -19.5v-46q-37 5 -76 8.5t-80 3.5q-39 0 -65 -6.5t-41.5 -18.5t-22 -30t-6.5 -42q0 -27 7 -44.5t23.5 -30.5t43 -23.5t65.5 -24.5q40 -15 72.5 -30t56 -37.5t36 -55t12.5 -82.5q0 -108 -58 -154.5
t-168 -46.5q-48 0 -93 6.5t-70 15.5q-13 5 -18 13t-5 20v50q35 -5 77.5 -10t90.5 -5q42 0 69.5 7.5t43 21t21.5 33.5t6 45q0 28 -6.5 46t-22.5 30.5t-42.5 23.5t-66.5 25q-42 15 -74.5 31t-55 38.5t-34.5 54t-12 77.5zM217 745q-22 0 -14 22q2 6 8.5 19t16 29.5t20 34.5
t21.5 33h83q18 0 18 -14q0 -12 -12 -25l-87 -99h-54z" />
    <glyph glyph-name="sacute" unicode="&#x15b;" horiz-adv-x="442" 
d="M45 83q32 -4 71 -7.5t76 -3.5q66 0 89 17t23 54q0 17 -4.5 28.5t-16.5 20t-32.5 15.5t-52.5 15q-35 9 -64.5 18.5t-50.5 25.5t-32.5 40.5t-11.5 63.5q0 81 47 115.5t132 34.5q17 0 37 -1.5t39 -4t35.5 -6t27.5 -7.5q11 -5 15.5 -11t4.5 -19v-43q-45 5 -78.5 7.5
t-60.5 2.5q-57 0 -79.5 -15t-22.5 -48q0 -18 6 -29.5t19 -19.5t34 -14.5t50 -13.5q34 -9 63 -18.5t50 -25t32.5 -41t11.5 -65.5q0 -44 -13.5 -74.5t-38.5 -49.5t-59.5 -27t-76.5 -8q-18 0 -39.5 1.5t-42.5 4.5t-39 6.5t-28 7.5q-12 5 -16 12.5t-4 18.5v43zM181 573
q-10 0 -14 6.5t1 16.5q14 34 29 65t32 60h82q17 0 17 -13q0 -7 -4 -14t-10 -15l-82 -106h-51z" />
    <glyph glyph-name="Scircumflex" unicode="&#x15c;" horiz-adv-x="515" 
d="M48 512q0 95 54 143t167 48q42 0 84 -5.5t65 -13.5q16 -7 19.5 -15.5t3.5 -19.5v-46q-37 5 -76 8.5t-80 3.5q-39 0 -65 -6.5t-41.5 -18.5t-22 -30t-6.5 -42q0 -27 7 -44.5t23.5 -30.5t43 -23.5t65.5 -24.5q40 -15 72.5 -30t56 -37.5t36 -55t12.5 -82.5q0 -108 -58 -154.5
t-168 -46.5q-48 0 -93 6.5t-70 15.5q-13 5 -18 13t-5 20v50q35 -5 77.5 -10t90.5 -5q42 0 69.5 7.5t43 21t21.5 33.5t6 45q0 28 -6.5 46t-22.5 30.5t-42.5 23.5t-66.5 25q-42 15 -74.5 31t-55 38.5t-34.5 54t-12 77.5zM144 745q-14 0 -15 8.5t4 18.5q3 6 11.5 18.5
t19.5 28.5t23 33t23 31h72q11 0 17.5 -4t11.5 -11q7 -9 17.5 -24t21.5 -32.5t21.5 -35t18.5 -31.5h-60q-11 0 -16.5 3.5t-13.5 14.5l-46 61l-60 -79h-50z" />
    <glyph glyph-name="scircumflex" unicode="&#x15d;" horiz-adv-x="442" 
d="M45 83q32 -4 71 -7.5t76 -3.5q66 0 89 17t23 54q0 17 -4.5 28.5t-16.5 20t-32.5 15.5t-52.5 15q-35 9 -64.5 18.5t-50.5 25.5t-32.5 40.5t-11.5 63.5q0 81 47 115.5t132 34.5q17 0 37 -1.5t39 -4t35.5 -6t27.5 -7.5q11 -5 15.5 -11t4.5 -19v-43q-45 5 -78.5 7.5
t-60.5 2.5q-57 0 -79.5 -15t-22.5 -48q0 -18 6 -29.5t19 -19.5t34 -14.5t50 -13.5q34 -9 63 -18.5t50 -25t32.5 -41t11.5 -65.5q0 -44 -13.5 -74.5t-38.5 -49.5t-59.5 -27t-76.5 -8q-18 0 -39.5 1.5t-42.5 4.5t-39 6.5t-28 7.5q-12 5 -16 12.5t-4 18.5v43zM108 573
q-11 0 -14 6.5t2 16.5q17 33 36 62.5t42 62.5h69q16 0 27 -19q7 -12 17 -28t20 -33t19.5 -35t16.5 -33h-54q-11 0 -16.5 3.5t-12.5 14.5l-45 68l-57 -86h-50z" />
    <glyph glyph-name="Scedilla" unicode="&#x15e;" horiz-adv-x="515" 
d="M48 512q0 95 54 143t167 48q42 0 84 -5.5t65 -13.5q16 -7 19.5 -15.5t3.5 -19.5v-46q-37 5 -76 8.5t-80 3.5q-39 0 -65 -6.5t-41.5 -18.5t-22 -30t-6.5 -42q0 -27 7 -44.5t23.5 -30.5t43 -23.5t65.5 -24.5q40 -15 72.5 -30t56 -37.5t36 -55t12.5 -82.5q0 -100 -49 -146.5
t-144 -53.5l-18 -45l14 -3q35 -8 50.5 -23.5t15.5 -45.5q0 -15 -4.5 -28t-16.5 -23t-32.5 -15.5t-52.5 -5.5q-13 0 -22.5 1t-18.5 4q-13 4 -13 18v26h32q34 0 46 5t12 21q0 14 -8.5 19.5t-29.5 10.5l-9 2q-11 2 -15.5 5.5t-4.5 13.5q0 5 2 11.5t10 26.5l9 24q-42 2 -81 8
t-61 14q-13 5 -18 13t-5 20v50q35 -5 77.5 -10t90.5 -5q42 0 69.5 7.5t43 21t21.5 33.5t6 45q0 28 -6.5 46t-22.5 30.5t-42.5 23.5t-66.5 25q-42 15 -74.5 31t-55 38.5t-34.5 54t-12 77.5z" />
    <glyph glyph-name="scedilla" unicode="&#x15f;" horiz-adv-x="442" 
d="M45 83q32 -4 71 -7.5t76 -3.5q66 0 89 17t23 54q0 17 -4.5 28.5t-16.5 20t-32.5 15.5t-52.5 15q-35 9 -64.5 18.5t-50.5 25.5t-32.5 40.5t-11.5 63.5q0 81 47 115.5t132 34.5q17 0 37 -1.5t39 -4t35.5 -6t27.5 -7.5q11 -5 15.5 -11t4.5 -19v-43q-45 5 -78.5 7.5
t-60.5 2.5q-57 0 -79.5 -15t-22.5 -48q0 -18 6 -29.5t19 -19.5t34 -14.5t50 -13.5q34 -9 63 -18.5t50 -25t32.5 -41t11.5 -65.5q0 -42 -12 -71.5t-34.5 -48t-54 -28t-69.5 -10.5l-17 -45l14 -3q35 -8 50.5 -23.5t15.5 -45.5q0 -15 -4.5 -28t-16.5 -23t-32.5 -15.5
t-52.5 -5.5q-13 0 -22.5 1t-18.5 4q-13 4 -13 18v26h32q34 0 46 5t12 22q0 13 -8.5 18.5t-29.5 10.5l-9 2q-11 2 -15.5 5.5t-4.5 12.5q0 6 2 12t10 27l10 25q-16 1 -33 3t-32.5 4.5t-28.5 5.5t-21 6q-12 5 -16 12.5t-4 18.5v43z" />
    <glyph glyph-name="Scaron" unicode="&#x160;" horiz-adv-x="515" 
d="M48 512q0 95 54 143t167 48q42 0 84 -5.5t65 -13.5q16 -7 19.5 -15.5t3.5 -19.5v-46q-37 5 -76 8.5t-80 3.5q-39 0 -65 -6.5t-41.5 -18.5t-22 -30t-6.5 -42q0 -27 7 -44.5t23.5 -30.5t43 -23.5t65.5 -24.5q40 -15 72.5 -30t56 -37.5t36 -55t12.5 -82.5q0 -108 -58 -154.5
t-168 -46.5q-48 0 -93 6.5t-70 15.5q-13 5 -18 13t-5 20v50q35 -5 77.5 -10t90.5 -5q42 0 69.5 7.5t43 21t21.5 33.5t6 45q0 28 -6.5 46t-22.5 30.5t-42.5 23.5t-66.5 25q-42 15 -74.5 31t-55 38.5t-34.5 54t-12 77.5zM364 883q11 0 14 -6.5t-2 -15.5q-18 -32 -38.5 -61
t-40.5 -55h-72q-10 0 -15 3t-13 14q-17 25 -35.5 54.5t-39.5 66.5h56q11 0 16.5 -3.5t13.5 -14.5l46 -62l59 80h51z" />
    <glyph glyph-name="scaron" unicode="&#x161;" horiz-adv-x="442" 
d="M45 83q32 -4 71 -7.5t76 -3.5q66 0 89 17t23 54q0 17 -4.5 28.5t-16.5 20t-32.5 15.5t-52.5 15q-35 9 -64.5 18.5t-50.5 25.5t-32.5 40.5t-11.5 63.5q0 81 47 115.5t132 34.5q17 0 37 -1.5t39 -4t35.5 -6t27.5 -7.5q11 -5 15.5 -11t4.5 -19v-43q-45 5 -78.5 7.5
t-60.5 2.5q-57 0 -79.5 -15t-22.5 -48q0 -18 6 -29.5t19 -19.5t34 -14.5t50 -13.5q34 -9 63 -18.5t50 -25t32.5 -41t11.5 -65.5q0 -44 -13.5 -74.5t-38.5 -49.5t-59.5 -27t-76.5 -8q-18 0 -39.5 1.5t-42.5 4.5t-39 6.5t-28 7.5q-12 5 -16 12.5t-4 18.5v43zM319 721
q10 0 13.5 -6.5t-1.5 -15.5q-17 -33 -35 -63t-41 -63h-68q-10 0 -15 3.5t-12 14.5q-17 27 -36 61t-37 69h53q11 0 16.5 -3.5t12.5 -14.5l45 -70l56 88h49z" />
    <glyph glyph-name="uni0162" unicode="&#x162;" horiz-adv-x="525" 
d="M210 605h-159q-24 0 -24 23v65h448q11 0 17.5 -6t6.5 -17v-65h-184v-605h-21l-22 -55l14 -3q35 -8 50.5 -23.5t15.5 -45.5q0 -15 -4.5 -28t-16.5 -23t-32.5 -15.5t-52.5 -5.5q-13 0 -22.5 1t-18.5 4q-13 4 -13 18v26h32q34 0 46 5t12 21q0 14 -8.5 19.5t-29.5 10.5l-9 2
q-11 2 -15.5 5.5t-4.5 13.5q0 5 2 11.5t10 26.5l14 35h-7q-24 0 -24 23v582z" />
    <glyph glyph-name="uni0163" unicode="&#x163;" horiz-adv-x="349" 
d="M128 -149q47 0 68.5 3t21.5 26q0 9 -5 14.5t-19 9.5q-22 8 -32.5 8.5t-10.5 14.5q0 10 8 30l16 39q-29 7 -46 20t-26 32.5t-11.5 45.5t-2.5 59v276h-35q-24 0 -24 23v57h61l5 132h70q24 0 24 -25v-107h98q24 0 24 -24v-56h-122v-300q0 -32 10.5 -44.5t33.5 -12.5
q11 0 26.5 0.5t25.5 0.5q26 0 26 -23v-47q-23 -6 -43 -9t-42 -3l-18 -45l14 -3q35 -8 50 -23t15 -41q0 -15 -4 -28.5t-15 -24t-29.5 -17t-47.5 -6.5q-40 0 -52 5t-12 18v25z" />
    <glyph glyph-name="Tcaron" unicode="&#x164;" horiz-adv-x="525" 
d="M210 605h-159q-24 0 -24 23v65h448q11 0 17.5 -6t6.5 -17v-65h-184v-605h-81q-24 0 -24 23v582zM373 883q11 0 14 -6.5t-2 -15.5q-18 -32 -38.5 -61t-40.5 -55h-72q-10 0 -15 3t-13 14q-17 25 -35.5 54.5t-39.5 66.5h56q11 0 16.5 -3.5t13.5 -14.5l46 -62l59 80h51z" />
    <glyph glyph-name="tcaron" unicode="&#x165;" horiz-adv-x="356" 
d="M313 3q-23 -6 -43.5 -9t-42.5 -3q-72 0 -104.5 32t-32.5 101v305h-35q-24 0 -24 23v57h61l5 132h70q24 0 24 -23v-109h98q11 0 17.5 -6t6.5 -17v-57h-122v-300q0 -27 9 -42t36 -15q17 0 28.5 0.5t21.5 0.5q27 0 27 -23v-47zM267 562q-20 0 -20 19v146h69q12 0 16.5 -5
t4.5 -15q0 -8 -2.5 -24.5t-6 -36.5t-8.5 -42.5t-9 -41.5h-44z" />
    <glyph glyph-name="Tbar" unicode="&#x166;" horiz-adv-x="525" 
d="M210 293h-94q-22 0 -22 22v51h116v239h-159q-24 0 -24 23v65h448q11 0 17.5 -6t6.5 -17v-65h-184v-239h94q22 0 22 -21v-52h-116v-293h-81q-24 0 -24 23v270z" />
    <glyph glyph-name="tbar" unicode="&#x167;" horiz-adv-x="353" 
d="M192 129q0 -27 11.5 -42t50.5 -15q10 0 18.5 0.5t15.5 0.5q27 0 27 -23v-47q-23 -6 -43 -9t-43 -3q-72 0 -104.5 32t-32.5 101v108h-37q-22 0 -22 21v44h59v132h-35q-24 0 -24 23v57h65v132h71q23 0 23 -23v-109h99q24 0 24 -23v-57h-123v-132h101q22 0 22 -21v-44h-123
v-103z" />
    <glyph glyph-name="Utilde" unicode="&#x168;" horiz-adv-x="594" 
d="M528 245q0 -132 -53.5 -194t-175.5 -62q-56 0 -99.5 12.5t-73 42t-45 78.5t-15.5 123v448h81q24 0 24 -23v-436q0 -36 5.5 -65t19.5 -49.5t38.5 -31t63.5 -10.5q38 0 62 10.5t38 30.5t19.5 49t5.5 67v458h81q11 0 17.5 -6t6.5 -17v-425zM450 848q0 -43 -20 -70.5
t-64 -27.5q-28 0 -46.5 10t-34.5 22q-12 9 -20 14.5t-13 8.5t-9.5 4t-10.5 1q-10 0 -15 -5t-7.5 -13t-3 -18.5t-0.5 -21.5h-44q-11 0 -14.5 5.5t-3.5 18.5q0 43 20 70.5t64 27.5q28 0 46.5 -10t34.5 -22q12 -9 20 -14.5t13 -8.5t9.5 -4t10.5 -1q19 0 22.5 18t3.5 40h44
q11 0 14.5 -5.5t3.5 -18.5z" />
    <glyph glyph-name="utilde" unicode="&#x169;" horiz-adv-x="524" 
d="M439 509q24 0 24 -23v-486h-61q-11 0 -18.5 5t-9.5 20l-4 31q-62 -67 -159 -67q-41 0 -70 12.5t-47 35t-26.5 55t-8.5 71.5v346h77q11 0 17.5 -6t6.5 -17v-315q0 -52 22 -74.5t64 -22.5q41 0 70 16.5t46 33.5v385h77zM414 678q0 -43 -20 -70.5t-64 -27.5q-28 0 -46.5 10
t-34.5 22q-12 9 -20 14.5t-13 8.5t-9.5 4t-10.5 1q-10 0 -15 -5t-7.5 -13t-3 -18.5t-0.5 -21.5h-45q-11 0 -14 5.5t-3 18.5q0 43 20 70.5t64 27.5q28 0 46.5 -10t34.5 -22q12 -9 20 -14.5t13 -8.5t9.5 -4t10.5 -1q19 0 22.5 18t3.5 40h45q11 0 14 -5.5t3 -18.5z" />
    <glyph glyph-name="Umacron" unicode="&#x16a;" horiz-adv-x="594" 
d="M528 245q0 -132 -53.5 -194t-175.5 -62q-56 0 -99.5 12.5t-73 42t-45 78.5t-15.5 123v448h81q24 0 24 -23v-436q0 -36 5.5 -65t19.5 -49.5t38.5 -31t63.5 -10.5q38 0 62 10.5t38 30.5t19.5 49t5.5 67v458h81q11 0 17.5 -6t6.5 -17v-425zM400 848q24 0 24 -23v-53h-230
q-24 0 -24 23v53h230z" />
    <glyph glyph-name="umacron" unicode="&#x16b;" horiz-adv-x="524" 
d="M439 509q24 0 24 -23v-486h-61q-11 0 -18.5 5t-9.5 20l-4 31q-62 -67 -159 -67q-41 0 -70 12.5t-47 35t-26.5 55t-8.5 71.5v346h77q11 0 17.5 -6t6.5 -17v-315q0 -52 22 -74.5t64 -22.5q41 0 70 16.5t46 33.5v385h77zM364 679q24 0 24 -23v-53h-230q-24 0 -24 23v53h230z
" />
    <glyph glyph-name="Ubreve" unicode="&#x16c;" horiz-adv-x="594" 
d="M528 245q0 -132 -53.5 -194t-175.5 -62q-56 0 -99.5 12.5t-73 42t-45 78.5t-15.5 123v448h81q24 0 24 -23v-436q0 -36 5.5 -65t19.5 -49.5t38.5 -31t63.5 -10.5q38 0 62 10.5t38 30.5t19.5 49t5.5 67v458h81q11 0 17.5 -6t6.5 -17v-425zM243 862q1 -11 3.5 -20.5t8.5 -17
t16 -11.5t26 -4q26 0 39.5 15t16.5 57h48q11 0 14 -5.5t3 -13.5q0 -55 -32 -85.5t-92 -30.5q-53 0 -85 29.5t-34 105.5h49q12 0 15 -5.5t4 -13.5z" />
    <glyph glyph-name="ubreve" unicode="&#x16d;" horiz-adv-x="524" 
d="M439 509q24 0 24 -23v-486h-61q-11 0 -18.5 5t-9.5 20l-4 31q-62 -67 -159 -67q-41 0 -70 12.5t-47 35t-26.5 55t-8.5 71.5v346h77q11 0 17.5 -6t6.5 -17v-315q0 -52 22 -74.5t64 -22.5q41 0 70 16.5t46 33.5v385h77zM207 691q4 -29 16.5 -41t37.5 -12q26 0 39.5 14.5
t16.5 56.5h48q11 0 14.5 -5t2.5 -13q-4 -60 -34 -88.5t-87 -28.5t-88.5 29.5t-33.5 105.5h49q11 0 14 -4t5 -14z" />
    <glyph glyph-name="Uring" unicode="&#x16e;" horiz-adv-x="594" 
d="M528 245q0 -132 -53.5 -194t-175.5 -62q-56 0 -99.5 12.5t-73 42t-45 78.5t-15.5 123v448h81q24 0 24 -23v-436q0 -36 5.5 -65t19.5 -49.5t38.5 -31t63.5 -10.5q38 0 62 10.5t38 30.5t19.5 49t5.5 67v458h81q11 0 17.5 -6t6.5 -17v-425zM297 773q50 0 50 50q0 49 -50 49
t-50 -49q0 -50 50 -50zM297 726q-52 0 -77 26.5t-25 70.5q0 43 25 69.5t77 26.5t77 -26.5t25 -69.5q0 -44 -25 -70.5t-77 -26.5z" />
    <glyph glyph-name="uring" unicode="&#x16f;" horiz-adv-x="524" 
d="M439 509q24 0 24 -23v-486h-61q-11 0 -18.5 5t-9.5 20l-4 31q-62 -67 -159 -67q-41 0 -70 12.5t-47 35t-26.5 55t-8.5 71.5v346h77q11 0 17.5 -6t6.5 -17v-315q0 -52 22 -74.5t64 -22.5q41 0 70 16.5t46 33.5v385h77zM261 615q50 0 50 50q0 49 -50 49t-50 -49
q0 -50 50 -50zM260 568q-51 0 -76 27t-25 72q0 42 25 68t78 26q51 0 76 -27t25 -66q0 -48 -25 -74t-78 -26z" />
    <glyph glyph-name="Uhungarumlaut" unicode="&#x170;" horiz-adv-x="594" 
d="M528 245q0 -132 -53.5 -194t-175.5 -62q-56 0 -99.5 12.5t-73 42t-45 78.5t-15.5 123v448h81q24 0 24 -23v-436q0 -36 5.5 -65t19.5 -49.5t38.5 -31t63.5 -10.5q38 0 62 10.5t38 30.5t19.5 49t5.5 67v458h81q11 0 17.5 -6t6.5 -17v-425zM191 735q-21 0 -14 23
q1 5 7.5 19.5t15.5 33t18.5 38t18.5 34.5h70q10 0 15 -4.5t2 -14.5q-2 -5 -5.5 -11t-7.5 -12l-70 -106h-50zM337 735q-21 0 -14 23q1 5 7.5 19.5t15.5 33t18.5 38t18.5 34.5h70q10 0 15 -4.5t2 -14.5q-2 -5 -5.5 -11t-7.5 -12l-70 -106h-50z" />
    <glyph glyph-name="uhungarumlaut" unicode="&#x171;" horiz-adv-x="524" 
d="M439 509q24 0 24 -23v-486h-61q-11 0 -18.5 5t-9.5 20l-4 31q-62 -67 -159 -67q-41 0 -70 12.5t-47 35t-26.5 55t-8.5 71.5v346h77q11 0 17.5 -6t6.5 -17v-315q0 -52 22 -74.5t64 -22.5q41 0 70 16.5t46 33.5v385h77zM162 573q-21 0 -14 23q1 5 7.5 19.5t15.5 33t18.5 38
t18.5 34.5h70q10 0 15 -4.5t2 -14.5q-2 -5 -5.5 -11t-7.5 -12l-70 -106h-50zM308 573q-21 0 -14 23q1 5 7.5 19.5t15.5 33t18.5 38t18.5 34.5h70q10 0 15 -4.5t2 -14.5q-2 -5 -5.5 -11t-7.5 -12l-70 -106h-50z" />
    <glyph glyph-name="Uogonek" unicode="&#x172;" horiz-adv-x="594" 
d="M310 -8q-10 -1 -21.5 -1h-13.5q-42 2 -80 12.5t-66.5 38t-45.5 76t-17 127.5v448h81q24 0 24 -23v-436q0 -36 5 -65t19.5 -49t39 -31t63.5 -11q38 0 62 10.5t38 30.5t19.5 49t5.5 67v458h81q11 0 17.5 -6t6.5 -17v-392q0 -69 -7 -114t-20 -73.5t-32 -45.5t-42 -32
q-12 -8 -30 -18.5t-35 -24.5t-29 -30.5t-12 -34.5q0 -17 10.5 -22.5t27.5 -5.5q11 0 16.5 1t9.5 1q11 0 13.5 -5.5t2.5 -14.5v-34q-12 -4 -27.5 -6.5t-33.5 -2.5q-42 0 -67 17t-25 56q0 32 16.5 56t45.5 47z" />
    <glyph glyph-name="uogonek" unicode="&#x173;" horiz-adv-x="524" 
d="M370 56q-30 -32 -70 -49.5t-89 -17.5q-77 0 -114.5 44.5t-37.5 129.5v346h76q24 0 24 -23v-315q0 -51 23 -74t65 -23q39 0 68.5 16.5t46.5 33.5v385h77q23 0 23 -23v-485q-45 -35 -61 -56.5t-16 -38.5q0 -19 11 -24t30 -5q7 0 13.5 1t9.5 1q11 0 13.5 -5.5t2.5 -14.5v-34
q-13 -4 -27.5 -6.5t-34.5 -2.5q-40 0 -65.5 17t-25.5 58q0 31 20 58t52 54q-8 9 -10 22.5t-4 30.5z" />
    <glyph glyph-name="Wcircumflex" unicode="&#x174;" horiz-adv-x="793" 
d="M429 637q11 0 17.5 -6.5t8.5 -17.5l104 -489q34 138 59.5 282t36.5 287h78q23 0 21 -25q-1 -14 -2.5 -28t-3.5 -33q-8 -63 -20.5 -138.5t-29.5 -155.5t-38 -160t-45 -153h-88q-12 0 -18 6t-9 19l-103 471l-109 -496h-85q-14 0 -19.5 5t-10.5 17q-23 69 -45 153t-40 173.5
t-31.5 178t-20.5 166.5h85q21 0 23 -25q11 -132 35.5 -268t56.5 -275l112 512h81zM286 745q-14 0 -15 8.5t4 18.5q3 6 11.5 18.5t19.5 28.5t23 33t23 31h72q11 0 17.5 -4t11.5 -11q7 -9 17.5 -24t21.5 -32.5t21.5 -35t18.5 -31.5h-60q-11 0 -16.5 3.5t-13.5 14.5l-46 61
l-60 -79h-50z" />
    <glyph glyph-name="wcircumflex" unicode="&#x175;" horiz-adv-x="700" 
d="M368 467q16 0 23 -5t12 -22l90 -334q13 44 25 96.5t22 106.5t17 106t12 94h73q14 0 18 -6.5t3 -17.5q-1 -12 -3 -26.5t-4 -29.5q-15 -100 -43 -211.5t-70 -217.5h-78q-11 0 -16.5 5.5t-8.5 16.5l-90 328l-96 -350h-76q-14 0 -19 5.5t-9 16.5q-22 57 -40.5 118
t-33.5 123.5t-26 124.5t-17 121h79q22 0 24 -23q4 -41 10.5 -89t16 -98.5t21 -100t24.5 -92.5l98 361h62zM243 573q-11 0 -14 6.5t2 16.5q17 33 36 62.5t42 62.5h69q16 0 27 -19q7 -12 17 -28t20 -33t19.5 -35t16.5 -33h-54q-11 0 -16.5 3.5t-12.5 14.5l-45 68l-57 -86h-50z
" />
    <glyph glyph-name="Ycircumflex" unicode="&#x176;" horiz-adv-x="525" 
d="M234 0q-24 0 -24 23v240q-34 57 -62 109.5t-51 105t-42.5 105.5t-35.5 110h91q15 0 19.5 -6.5t8.5 -20.5q9 -32 22 -69t28.5 -77.5t34.5 -83t42 -84.5q23 43 44.5 91.5t39 95t30.5 87t18 67.5h78q14 0 20 -9.5t1 -23.5q-18 -57 -37 -107t-41 -97.5t-47.5 -94.5t-55.5 -98
v-263h-81zM153 745q-14 0 -15 8.5t4 18.5q3 6 11.5 18.5t19.5 28.5t23 33t23 31h72q11 0 17.5 -4t11.5 -11q7 -9 17.5 -24t21.5 -32.5t21.5 -35t18.5 -31.5h-60q-11 0 -16.5 3.5t-13.5 14.5l-46 61l-60 -79h-50z" />
    <glyph glyph-name="ycircumflex" unicode="&#x177;" horiz-adv-x="480" 
d="M133 486q10 -58 19 -101t21 -85t30 -90t46 -114q38 91 62.5 196t38.5 217h75q13 0 17 -5.5t4 -13.5q0 -9 -2.5 -25t-4.5 -29q-17 -100 -43 -186.5t-52 -150.5q-33 -83 -63 -135.5t-59.5 -83.5t-59 -42.5t-60.5 -11.5q-12 0 -27 1.5t-22 5.5q-17 8 -17 27v46q12 -1 21 -1
h17q25 0 43.5 6.5t32.5 19t26 32t26 45.5q-33 57 -61 119.5t-50.5 127t-39 128.5t-24.5 126h81q15 0 19 -7.5t6 -15.5zM134 573q-11 0 -14 6.5t2 16.5q17 33 36 62.5t42 62.5h69q16 0 27 -19q7 -12 17 -28t20 -33t19.5 -35t16.5 -33h-54q-11 0 -16.5 3.5t-12.5 14.5l-45 68
l-57 -86h-50z" />
    <glyph glyph-name="Ydieresis" unicode="&#x178;" horiz-adv-x="525" 
d="M234 0q-24 0 -24 23v240q-34 57 -62 109.5t-51 105t-42.5 105.5t-35.5 110h91q15 0 19.5 -6.5t8.5 -20.5q9 -32 22 -69t28.5 -77.5t34.5 -83t42 -84.5q23 43 44.5 91.5t39 95t30.5 87t18 67.5h78q14 0 20 -9.5t1 -23.5q-18 -57 -37 -107t-41 -97.5t-47.5 -94.5t-55.5 -98
v-263h-81zM227 812q0 -29 -13.5 -41.5t-43.5 -12.5q-31 0 -44.5 12.5t-13.5 41.5t13.5 41.5t44.5 12.5q30 0 43.5 -12.5t13.5 -41.5zM414 812q0 -29 -13.5 -41.5t-43.5 -12.5q-31 0 -44.5 12.5t-13.5 41.5t13.5 41.5t44.5 12.5q30 0 43.5 -12.5t13.5 -41.5z" />
    <glyph glyph-name="Zacute" unicode="&#x179;" horiz-adv-x="524" 
d="M478 608q-47 -69 -93 -140t-88 -138.5t-78.5 -129t-64.5 -112.5h308q24 0 24 -23v-65h-424q-24 0 -24 23v59q31 55 70 121t82 135t87 138t86 129h-293q-24 0 -24 23v65h409q23 0 23 -23v-62zM225 745q-22 0 -14 22q2 6 8.5 19t16 29.5t20 34.5t21.5 33h83q18 0 18 -14
q0 -12 -12 -25l-87 -99h-54z" />
    <glyph glyph-name="zacute" unicode="&#x17a;" horiz-adv-x="457" 
d="M46 509h340q28 0 28 -29v-46q-37 -46 -73.5 -94t-70.5 -94t-64 -88.5t-54 -77.5h242q11 0 17.5 -6t6.5 -17v-57h-354q-24 0 -24 23v49q25 39 57 84.5t66.5 92.5t70 93t68.5 87h-233q-23 0 -23 23v57zM194 573q-10 0 -14 6.5t1 16.5q14 34 29 65t32 60h82q17 0 17 -13
q0 -7 -4 -14t-10 -15l-82 -106h-51z" />
    <glyph glyph-name="Zdotaccent" unicode="&#x17b;" horiz-adv-x="524" 
d="M478 608q-47 -69 -93 -140t-88 -138.5t-78.5 -129t-64.5 -112.5h308q24 0 24 -23v-65h-424q-24 0 -24 23v59q31 55 70 121t82 135t87 138t86 129h-293q-24 0 -24 23v65h409q23 0 23 -23v-62zM323 814q0 -31 -14.5 -44t-46.5 -13t-47 13t-15 44q0 30 15 43t47 13t46.5 -13
t14.5 -43z" />
    <glyph glyph-name="zdotaccent" unicode="&#x17c;" horiz-adv-x="457" 
d="M46 509h340q28 0 28 -29v-46q-37 -46 -73.5 -94t-70.5 -94t-64 -88.5t-54 -77.5h242q11 0 17.5 -6t6.5 -17v-57h-354q-24 0 -24 23v49q25 39 57 84.5t66.5 92.5t70 93t68.5 87h-233q-23 0 -23 23v57zM228 589q-33 0 -47.5 12.5t-14.5 42.5q0 29 14.5 42t47.5 13
q32 0 47 -13t15 -42q0 -30 -15 -42.5t-47 -12.5z" />
    <glyph glyph-name="Zcaron" unicode="&#x17d;" horiz-adv-x="524" 
d="M478 608q-47 -69 -93 -140t-88 -138.5t-78.5 -129t-64.5 -112.5h308q24 0 24 -23v-65h-424q-24 0 -24 23v59q31 55 70 121t82 135t87 138t86 129h-293q-24 0 -24 23v65h409q23 0 23 -23v-62zM372 883q11 0 14 -6.5t-2 -15.5q-18 -32 -38.5 -61t-40.5 -55h-72q-10 0 -15 3
t-13 14q-17 25 -35.5 54.5t-39.5 66.5h56q11 0 16.5 -3.5t13.5 -14.5l46 -62l59 80h51z" />
    <glyph glyph-name="zcaron" unicode="&#x17e;" horiz-adv-x="457" 
d="M46 509h340q28 0 28 -29v-46q-37 -46 -73.5 -94t-70.5 -94t-64 -88.5t-54 -77.5h242q11 0 17.5 -6t6.5 -17v-57h-354q-24 0 -24 23v49q25 39 57 84.5t66.5 92.5t70 93t68.5 87h-233q-23 0 -23 23v57zM333 721q10 0 13.5 -6.5t-1.5 -15.5q-17 -33 -35 -63t-41 -63h-68
q-10 0 -15 3.5t-12 14.5q-17 27 -36 61t-37 69h53q11 0 16.5 -3.5t12.5 -14.5l45 -70l56 88h49z" />
    <glyph glyph-name="longs" unicode="&#x17f;" horiz-adv-x="227" 
d="M162 0h-77q-24 0 -24 23v557q0 75 29.5 112t96.5 37q15 0 35 -2t36 -9q17 -8 17 -29v-44q-21 2 -30.5 3t-24.5 1q-39 0 -48.5 -19.5t-9.5 -54.5v-575z" />
    <glyph glyph-name="florin" unicode="&#x192;" horiz-adv-x="342" 
d="M28 -95q22 0 34.5 4.5t18.5 13.5t7.5 21.5t1.5 27.5v457h-35q-23 0 -23 23v57h58v71q0 74 32 111.5t108 37.5q16 0 39 -2.5t38 -8.5q11 -5 15 -12.5t4 -17.5v-44q-25 3 -38.5 4t-31.5 1q-22 0 -35 -5t-19.5 -15t-8.5 -23.5t-2 -31.5v-65h102q23 0 23 -23v-57h-125v-462
q0 -68 -30 -104.5t-106 -36.5q-17 0 -35.5 2t-32.5 8q-17 7 -17 26v45q23 -2 34.5 -2h23.5z" />
    <glyph glyph-name="Scommaaccent" unicode="&#x218;" horiz-adv-x="515" 
d="M48 512q0 95 54 143t167 48q42 0 84 -5.5t65 -13.5q16 -7 19.5 -15.5t3.5 -19.5v-46q-37 5 -76 8.5t-80 3.5q-39 0 -65 -6.5t-41.5 -18.5t-22 -30t-6.5 -42q0 -27 7 -44.5t23.5 -30.5t43 -23.5t65.5 -24.5q40 -15 72.5 -30t56 -37.5t36 -55t12.5 -82.5q0 -108 -58 -154.5
t-168 -46.5q-48 0 -93 6.5t-70 15.5q-13 5 -18 13t-5 20v50q35 -5 77.5 -10t90.5 -5q42 0 69.5 7.5t43 21t21.5 33.5t6 45q0 28 -6.5 46t-22.5 30.5t-42.5 23.5t-66.5 25q-42 15 -74.5 31t-55 38.5t-34.5 54t-12 77.5zM311 -90q0 -19 -8 -36t-22 -36l-27 -37h-41
q-8 0 -11.5 4t-3.5 9q0 2 1 5t7 12l25 40q-18 5 -26 13.5t-8 26.5q0 25 15 35.5t41 10.5t42 -10.5t16 -36.5z" />
    <glyph glyph-name="scommaaccent" unicode="&#x219;" horiz-adv-x="442" 
d="M45 83q32 -4 71 -7.5t76 -3.5q66 0 89 17t23 54q0 17 -4.5 28.5t-16.5 20t-32.5 15.5t-52.5 15q-35 9 -64.5 18.5t-50.5 25.5t-32.5 40.5t-11.5 63.5q0 81 47 115.5t132 34.5q17 0 37 -1.5t39 -4t35.5 -6t27.5 -7.5q11 -5 15.5 -11t4.5 -19v-43q-45 5 -78.5 7.5
t-60.5 2.5q-57 0 -79.5 -15t-22.5 -48q0 -18 6 -29.5t19 -19.5t34 -14.5t50 -13.5q34 -9 63 -18.5t50 -25t32.5 -41t11.5 -65.5q0 -44 -13.5 -74.5t-38.5 -49.5t-59.5 -27t-76.5 -8q-18 0 -39.5 1.5t-42.5 4.5t-39 6.5t-28 7.5q-12 5 -16 12.5t-4 18.5v43zM274 -90
q0 -19 -8 -36t-22 -36l-27 -37h-41q-8 0 -11.5 4t-3.5 9q0 2 1 5t7 12l25 40q-18 5 -26 13.5t-8 26.5q0 25 15 35.5t41 10.5t42 -10.5t16 -36.5z" />
    <glyph glyph-name="uni021A" unicode="&#x21a;" horiz-adv-x="525" 
d="M210 605h-159q-24 0 -24 23v65h448q11 0 17.5 -6t6.5 -17v-65h-184v-605h-81q-24 0 -24 23v582zM320 -90q0 -19 -8 -36t-22 -36l-27 -37h-41q-8 0 -11.5 4t-3.5 9q0 2 1 5t7 12l25 40q-18 5 -26 13.5t-8 26.5q0 25 15 35.5t41 10.5t42 -10.5t16 -36.5z" />
    <glyph glyph-name="uni021B" unicode="&#x21b;" horiz-adv-x="349" 
d="M313 3q-23 -6 -43.5 -9t-42.5 -3q-72 0 -104.5 32t-32.5 101v305h-35q-24 0 -24 23v57h61l5 132h70q24 0 24 -23v-109h98q11 0 17.5 -6t6.5 -17v-57h-122v-300q0 -27 9 -42t36 -15q17 0 28.5 0.5t21.5 0.5q27 0 27 -23v-47zM252 -90q0 -19 -8 -36t-22 -36l-27 -37h-41
q-8 0 -11.5 4t-3.5 9q0 2 1 5t7 12l25 40q-18 5 -26 13.5t-8 26.5q0 25 15 35.5t41 10.5t42 -10.5t16 -36.5z" />
    <glyph glyph-name="dotlessj" unicode="&#x237;" horiz-adv-x="227" 
d="M164 -56q0 -55 -29.5 -86.5t-92.5 -31.5q-14 0 -30 1.5t-25 6.5q-5 2 -10.5 9t-5.5 18v45q12 -1 22.5 -1h21.5q26 0 37 13t11 40v551h77q24 0 24 -23v-542z" />
    <glyph glyph-name="circumflex" unicode="&#x2c6;" horiz-adv-x="434" 
d="M110 573q-11 0 -14 6.5t2 16.5q17 33 36 62.5t42 62.5h69q16 0 27 -19q7 -12 17 -28t20 -33t19.5 -35t16.5 -33h-54q-11 0 -16.5 3.5t-12.5 14.5l-45 68l-57 -86h-50z" />
    <glyph glyph-name="caron" unicode="&#x2c7;" horiz-adv-x="434" 
d="M322 721q10 0 13.5 -6.5t-1.5 -15.5q-17 -33 -35 -63t-41 -63h-68q-10 0 -15 3.5t-12 14.5q-17 27 -36 61t-37 69h53q11 0 16.5 -3.5t12.5 -14.5l45 -70l56 88h49z" />
    <glyph glyph-name="uni02C9" unicode="&#x2c9;" horiz-adv-x="434" 
d="M320 679q24 0 24 -23v-53h-230q-24 0 -24 23v53h230z" />
    <glyph glyph-name="breve" unicode="&#x2d8;" horiz-adv-x="434" 
d="M163 691q4 -29 16.5 -41t37.5 -12q26 0 39.5 14.5t16.5 56.5h48q11 0 14.5 -5t2.5 -13q-4 -60 -34 -88.5t-87 -28.5t-88.5 29.5t-33.5 105.5h49q11 0 14 -4t5 -14z" />
    <glyph glyph-name="dotaccent" unicode="&#x2d9;" horiz-adv-x="434" 
d="M217 589q-33 0 -47.5 12.5t-14.5 42.5q0 29 14.5 42t47.5 13q32 0 47 -13t15 -42q0 -30 -15 -42.5t-47 -12.5z" />
    <glyph glyph-name="ring" unicode="&#x2da;" horiz-adv-x="434" 
d="M217 615q50 0 50 50q0 49 -50 49t-50 -49q0 -50 50 -50zM216 568q-51 0 -76 27t-25 72q0 42 25 68t78 26q51 0 76 -27t25 -66q0 -48 -25 -74t-78 -26z" />
    <glyph glyph-name="ogonek" unicode="&#x2db;" horiz-adv-x="434" 
d="M288 1q-23 -18 -38 -32t-23.5 -25t-12 -20t-3.5 -18q0 -19 10.5 -24t29.5 -5q7 0 13.5 1t10.5 1q10 0 13 -5.5t3 -14.5v-34q-14 -4 -28.5 -6.5t-33.5 -2.5q-41 0 -66 17t-25 58q0 30 19.5 58t48.5 52h82z" />
    <glyph glyph-name="tilde" unicode="&#x2dc;" horiz-adv-x="434" 
d="M370 678q0 -43 -20 -70.5t-64 -27.5q-28 0 -46.5 10t-34.5 22q-12 9 -20 14.5t-13 8.5t-9.5 4t-10.5 1q-10 0 -15 -5t-7.5 -13t-3 -18.5t-0.5 -21.5h-45q-11 0 -14 5.5t-3 18.5q0 43 20 70.5t64 27.5q28 0 46.5 -10t34.5 -22q12 -9 20 -14.5t13 -8.5t9.5 -4t10.5 -1
q19 0 22.5 18t3.5 40h45q11 0 14 -5.5t3 -18.5z" />
    <glyph glyph-name="hungarumlaut" unicode="&#x2dd;" horiz-adv-x="434" 
d="M119 573q-21 0 -14 23q1 5 7.5 19.5t15.5 33t18.5 38t18.5 34.5h70q10 0 15 -4.5t2 -14.5q-2 -5 -5.5 -11t-7.5 -12l-70 -106h-50zM265 573q-21 0 -14 23q1 5 7.5 19.5t15.5 33t18.5 38t18.5 34.5h70q10 0 15 -4.5t2 -14.5q-2 -5 -5.5 -11t-7.5 -12l-70 -106h-50z" />
    <glyph glyph-name="uni0394" unicode="&#x394;" horiz-adv-x="552" 
d="M53 0q-23 0 -21 25q2 16 5 32t6 33q30 166 76 322.5t97 280.5h99q14 0 19 -6t10 -15q25 -65 51.5 -143t50.5 -165t44 -179t34 -185h-471zM274 601q-55 -148 -85.5 -278.5t-46.5 -236.5h263q-16 106 -46.5 236.5t-84.5 278.5z" />
    <glyph glyph-name="Omega" unicode="&#x3a9;" horiz-adv-x="618" 
d="M535 85q13 0 21.5 -6t8.5 -20v-59h-177q-13 0 -21 6t-8 21v60q24 27 41.5 56.5t29 64t17 74.5t5.5 90q0 79 -11 127.5t-30 74t-45 34t-57 8.5t-57 -8.5t-45.5 -34t-30.5 -74t-11 -127.5q0 -48 5.5 -87.5t16 -72.5t27 -61.5t37.5 -54.5q8 -9 8 -23v-73h-176q-14 0 -22 6
t-8 21v58h114q-27 29 -47 59t-33.5 64.5t-20.5 75t-7 90.5q0 76 11.5 137.5t40 104t76.5 65.5t122 23q73 0 121.5 -23t77 -65.5t40 -104t11.5 -137.5q0 -50 -7 -90.5t-20.5 -75t-33.5 -64.5t-47 -59h84z" />
    <glyph glyph-name="uni03BC" unicode="&#x3bc;" horiz-adv-x="526" 
d="M85 -170q-24 0 -24 23v656h77q11 0 17.5 -6t6.5 -17v-315q0 -51 22 -74t64 -23q41 0 70 16.5t46 33.5v385h77q24 0 24 -23v-486h-61q-12 0 -19 5.5t-9 19.5l-4 31q-20 -22 -53 -42t-85 -20q-14 0 -34.5 4.5t-37.5 21.5v-190h-77z" />
    <glyph glyph-name="pi" unicode="&#x3c0;" horiz-adv-x="562" 
d="M506 509q11 0 17.5 -6t6.5 -17v-57h-59v-429h-74q-24 0 -24 23v406h-183v-429h-75q-23 0 -23 23v406h-35q-24 0 -24 23v57h473z" />
    <glyph glyph-name="Wgrave" unicode="&#x1e80;" horiz-adv-x="793" 
d="M429 637q11 0 17.5 -6.5t8.5 -17.5l104 -489q34 138 59.5 282t36.5 287h78q23 0 21 -25q-1 -14 -2.5 -28t-3.5 -33q-8 -63 -20.5 -138.5t-29.5 -155.5t-38 -160t-45 -153h-88q-12 0 -18 6t-9 19l-103 471l-109 -496h-85q-14 0 -19.5 5t-10.5 17q-23 69 -45 153t-40 173.5
t-31.5 178t-20.5 166.5h85q21 0 23 -25q11 -132 35.5 -268t56.5 -275l112 512h81zM266 883h99q14 0 20 -6t16 -23q14 -24 27.5 -51.5t24.5 -57.5h-60q-11 0 -17.5 4t-13.5 13z" />
    <glyph glyph-name="wgrave" unicode="&#x1e81;" horiz-adv-x="700" 
d="M368 467q16 0 23 -5t12 -22l90 -334q13 44 25 96.5t22 106.5t17 106t12 94h73q14 0 18 -6.5t3 -17.5q-1 -12 -3 -26.5t-4 -29.5q-15 -100 -43 -211.5t-70 -217.5h-78q-11 0 -16.5 5.5t-8.5 16.5l-90 328l-96 -350h-76q-14 0 -19 5.5t-9 16.5q-22 57 -40.5 118
t-33.5 123.5t-26 124.5t-17 121h79q22 0 24 -23q4 -41 10.5 -89t16 -98.5t21 -100t24.5 -92.5l98 361h62zM225 721h93q13 0 20 -4.5t12 -17.5q25 -60 51 -126h-55q-20 0 -31 18z" />
    <glyph glyph-name="Wacute" unicode="&#x1e82;" horiz-adv-x="793" 
d="M429 637q11 0 17.5 -6.5t8.5 -17.5l104 -489q34 138 59.5 282t36.5 287h78q23 0 21 -25q-1 -14 -2.5 -28t-3.5 -33q-8 -63 -20.5 -138.5t-29.5 -155.5t-38 -160t-45 -153h-88q-12 0 -18 6t-9 19l-103 471l-109 -496h-85q-14 0 -19.5 5t-10.5 17q-23 69 -45 153t-40 173.5
t-31.5 178t-20.5 166.5h85q21 0 23 -25q11 -132 35.5 -268t56.5 -275l112 512h81zM359 745q-22 0 -14 22q2 6 8.5 19t16 29.5t20 34.5t21.5 33h83q18 0 18 -14q0 -12 -12 -25l-87 -99h-54z" />
    <glyph glyph-name="wacute" unicode="&#x1e83;" horiz-adv-x="700" 
d="M368 467q16 0 23 -5t12 -22l90 -334q13 44 25 96.5t22 106.5t17 106t12 94h73q14 0 18 -6.5t3 -17.5q-1 -12 -3 -26.5t-4 -29.5q-15 -100 -43 -211.5t-70 -217.5h-78q-11 0 -16.5 5.5t-8.5 16.5l-90 328l-96 -350h-76q-14 0 -19 5.5t-9 16.5q-22 57 -40.5 118
t-33.5 123.5t-26 124.5t-17 121h79q22 0 24 -23q4 -41 10.5 -89t16 -98.5t21 -100t24.5 -92.5l98 361h62zM316 573q-10 0 -14 6.5t1 16.5q14 34 29 65t32 60h82q17 0 17 -13q0 -7 -4 -14t-10 -15l-82 -106h-51z" />
    <glyph glyph-name="Wdieresis" unicode="&#x1e84;" horiz-adv-x="793" 
d="M429 637q11 0 17.5 -6.5t8.5 -17.5l104 -489q34 138 59.5 282t36.5 287h78q23 0 21 -25q-1 -14 -2.5 -28t-3.5 -33q-8 -63 -20.5 -138.5t-29.5 -155.5t-38 -160t-45 -153h-88q-12 0 -18 6t-9 19l-103 471l-109 -496h-85q-14 0 -19.5 5t-10.5 17q-23 69 -45 153t-40 173.5
t-31.5 178t-20.5 166.5h85q21 0 23 -25q11 -132 35.5 -268t56.5 -275l112 512h81zM360 812q0 -29 -13.5 -41.5t-43.5 -12.5q-31 0 -44.5 12.5t-13.5 41.5t13.5 41.5t44.5 12.5q30 0 43.5 -12.5t13.5 -41.5zM547 812q0 -29 -13.5 -41.5t-43.5 -12.5q-31 0 -44.5 12.5
t-13.5 41.5t13.5 41.5t44.5 12.5q30 0 43.5 -12.5t13.5 -41.5z" />
    <glyph glyph-name="wdieresis" unicode="&#x1e85;" horiz-adv-x="700" 
d="M368 467q16 0 23 -5t12 -22l90 -334q13 44 25 96.5t22 106.5t17 106t12 94h73q14 0 18 -6.5t3 -17.5q-1 -12 -3 -26.5t-4 -29.5q-15 -100 -43 -211.5t-70 -217.5h-78q-11 0 -16.5 5.5t-8.5 16.5l-90 328l-96 -350h-76q-14 0 -19 5.5t-9 16.5q-22 57 -40.5 118
t-33.5 123.5t-26 124.5t-17 121h79q22 0 24 -23q4 -41 10.5 -89t16 -98.5t21 -100t24.5 -92.5l98 361h62zM314 644q0 -29 -13.5 -41.5t-43.5 -12.5q-31 0 -44.5 12.5t-13.5 41.5t13.5 41.5t44.5 12.5q30 0 43.5 -12.5t13.5 -41.5zM501 644q0 -29 -13.5 -41.5t-43.5 -12.5
q-31 0 -44.5 12.5t-13.5 41.5t13.5 41.5t44.5 12.5q30 0 43.5 -12.5t13.5 -41.5z" />
    <glyph glyph-name="Ygrave" unicode="&#x1ef2;" horiz-adv-x="525" 
d="M234 0q-24 0 -24 23v240q-34 57 -62 109.5t-51 105t-42.5 105.5t-35.5 110h91q15 0 19.5 -6.5t8.5 -20.5q9 -32 22 -69t28.5 -77.5t34.5 -83t42 -84.5q23 43 44.5 91.5t39 95t30.5 87t18 67.5h78q14 0 20 -9.5t1 -23.5q-18 -57 -37 -107t-41 -97.5t-47.5 -94.5t-55.5 -98
v-263h-81zM133 883h99q14 0 20 -6t16 -23q14 -24 27.5 -51.5t24.5 -57.5h-60q-11 0 -17.5 4t-13.5 13z" />
    <glyph glyph-name="ygrave" unicode="&#x1ef3;" horiz-adv-x="480" 
d="M133 486q10 -58 19 -101t21 -85t30 -90t46 -114q38 91 62.5 196t38.5 217h75q13 0 17 -5.5t4 -13.5q0 -9 -2.5 -25t-4.5 -29q-17 -100 -43 -186.5t-52 -150.5q-33 -83 -63 -135.5t-59.5 -83.5t-59 -42.5t-60.5 -11.5q-12 0 -27 1.5t-22 5.5q-17 8 -17 27v46q12 -1 21 -1
h17q25 0 43.5 6.5t32.5 19t26 32t26 45.5q-33 57 -61 119.5t-50.5 127t-39 128.5t-24.5 126h81q15 0 19 -7.5t6 -15.5zM116 721h93q13 0 20 -4.5t12 -17.5q25 -60 51 -126h-55q-20 0 -31 18z" />
    <glyph glyph-name="endash" unicode="&#x2013;" horiz-adv-x="504" 
d="M504 357v-84h-504v84h504z" />
    <glyph glyph-name="emdash" unicode="&#x2014;" horiz-adv-x="1003" 
d="M1003 357v-84h-1003v84h1003z" />
    <glyph glyph-name="quoteleft" unicode="&#x2018;" horiz-adv-x="217" 
d="M44 521q0 21 10 48.5t26 58.5l33 66h41q16 0 16 -14q0 -6 -3 -15l-37 -89q24 -6 33.5 -19.5t9.5 -34.5q0 -32 -14.5 -46.5t-49.5 -14.5t-50 14.5t-15 45.5z" />
    <glyph glyph-name="quoteright" unicode="&#x2019;" horiz-adv-x="217" 
d="M173 636q0 -21 -10 -48.5t-26 -58.5l-33 -66h-41q-16 0 -16 14q0 6 3 15l37 89q-24 6 -33.5 19.5t-9.5 34.5q0 32 14.5 46.5t49.5 14.5t50 -14.5t15 -45.5z" />
    <glyph glyph-name="quotesinglbase" unicode="&#x201a;" horiz-adv-x="217" 
d="M173 62q0 -21 -10 -48.5t-26 -58.5l-33 -66h-41q-16 0 -16 14q0 6 3 15l37 89q-24 6 -33.5 19.5t-9.5 34.5q0 32 14.5 46.5t49.5 14.5t50 -14.5t15 -45.5z" />
    <glyph glyph-name="quotedblleft" unicode="&#x201c;" horiz-adv-x="393" 
d="M44 521q0 21 10 48.5t26 58.5l33 66h41q16 0 16 -14q0 -6 -3 -15l-37 -89q24 -6 33.5 -19.5t9.5 -34.5q0 -32 -14.5 -46.5t-49.5 -14.5t-50 14.5t-15 45.5zM220 521q0 21 10 48.5t26 58.5l33 66h41q16 0 16 -14q0 -6 -3 -15l-37 -89q24 -6 33.5 -19.5t9.5 -34.5
q0 -32 -14.5 -46.5t-49.5 -14.5t-50 14.5t-15 45.5z" />
    <glyph glyph-name="quotedblright" unicode="&#x201d;" horiz-adv-x="393" 
d="M173 636q0 -21 -10 -48.5t-26 -58.5l-33 -66h-41q-16 0 -16 14q0 6 3 15l37 89q-24 6 -33.5 19.5t-9.5 34.5q0 32 14.5 46.5t49.5 14.5t50 -14.5t15 -45.5zM349 636q0 -21 -10 -48.5t-26 -58.5l-33 -66h-41q-16 0 -16 14q0 6 3 15l37 89q-24 6 -33.5 19.5t-9.5 34.5
q0 32 14.5 46.5t49.5 14.5t50 -14.5t15 -45.5z" />
    <glyph glyph-name="quotedblbase" unicode="&#x201e;" horiz-adv-x="393" 
d="M173 62q0 -21 -10 -48.5t-26 -58.5l-33 -66h-41q-16 0 -16 14q0 6 3 15l37 89q-24 6 -33.5 19.5t-9.5 34.5q0 32 14.5 46.5t49.5 14.5t50 -14.5t15 -45.5zM349 62q0 -21 -10 -48.5t-26 -58.5l-33 -66h-41q-16 0 -16 14q0 6 3 15l37 89q-24 6 -33.5 19.5t-9.5 34.5
q0 32 14.5 46.5t49.5 14.5t50 -14.5t15 -45.5z" />
    <glyph glyph-name="dagger" unicode="&#x2020;" horiz-adv-x="482" 
d="M288 216q0 -38 -0.5 -78.5t-2 -80t-3 -75.5t-3.5 -65h-54q-23 0 -23 24q-2 25 -3.5 55.5t-2.5 63.5t-1.5 67t-0.5 66v229h-117q-16 0 -20 10t-4 27v49h141v185h71q23 0 23 -24v-161h117q24 0 24 -23v-63h-141v-206z" />
    <glyph glyph-name="daggerdbl" unicode="&#x2021;" horiz-adv-x="482" 
d="M194 422h-117q-24 0 -24 23v63h141v185h71q23 0 23 -24v-161h117q24 0 24 -23v-63h-141v-234h117q24 0 24 -23v-63h-141v-185h-71q-23 0 -23 24v161h-117q-24 0 -24 23v63h141v234z" />
    <glyph glyph-name="bullet" unicode="&#x2022;" horiz-adv-x="417" 
d="M72 346q0 71 34.5 102.5t102.5 31.5q67 0 101.5 -31.5t34.5 -102.5t-34.5 -102.5t-101.5 -31.5q-68 0 -102.5 31.5t-34.5 102.5z" />
    <glyph glyph-name="ellipsis" unicode="&#x2026;" horiz-adv-x="749" 
d="M192 58q0 -35 -16 -49.5t-51 -14.5q-36 0 -51.5 14.5t-15.5 49.5q0 34 16 48.5t51 14.5t51 -14.5t16 -48.5zM442 58q0 -35 -16 -49.5t-51 -14.5q-36 0 -51.5 14.5t-15.5 49.5q0 34 16 48.5t51 14.5t51 -14.5t16 -48.5zM691 58q0 -35 -16 -49.5t-51 -14.5
q-36 0 -51.5 14.5t-15.5 49.5q0 34 16 48.5t51 14.5t51 -14.5t16 -48.5z" />
    <glyph glyph-name="perthousand" unicode="&#x2030;" horiz-adv-x="1118" 
d="M117 501q0 -64 14 -93.5t52 -29.5q39 0 52.5 29.5t13.5 93.5t-13.5 93.5t-52.5 29.5q-38 0 -52 -29.5t-14 -93.5zM328 501q0 -53 -11 -88.5t-30 -57.5t-46 -31.5t-58 -9.5q-32 0 -58 9.5t-45.5 31.5t-30 57.5t-10.5 88.5q0 52 10.5 88t30 58t45.5 31.5t58 9.5
q31 0 58 -9.5t46 -31.5t30 -58t11 -88zM553 677h56q19 0 19 -17q0 -7 -4 -14l-394 -646h-56q-20 0 -20 17q0 6 5 14zM535 177q0 -64 14 -93.5t52 -29.5q39 0 52.5 29.5t13.5 93.5t-13.5 93.5t-52.5 29.5q-38 0 -52 -29.5t-14 -93.5zM746 177q0 -53 -11 -88.5t-30 -57.5
t-46 -31.5t-58 -9.5q-32 0 -58 9.5t-45.5 31.5t-30 57.5t-10.5 88.5q0 52 10.5 88t30 58t45.5 31.5t58 9.5q31 0 58 -9.5t46 -31.5t30 -58t11 -88zM869 177q0 -64 14 -93.5t52 -29.5q39 0 52.5 29.5t13.5 93.5t-13.5 93.5t-52.5 29.5q-38 0 -52 -29.5t-14 -93.5zM1080 177
q0 -53 -11 -88.5t-30 -57.5t-46 -31.5t-58 -9.5q-32 0 -58 9.5t-45.5 31.5t-30 57.5t-10.5 88.5q0 52 10.5 88t30 58t45.5 31.5t58 9.5q31 0 58 -9.5t46 -31.5t30 -58t11 -88z" />
    <glyph glyph-name="guilsinglleft" unicode="&#x2039;" horiz-adv-x="255" 
d="M217 69h-69q-18 0 -26.5 17t-15.5 32l-66 141l93 190h62q10 0 14 -7t1 -16l-5 -12.5t-6 -13.5q-17 -35 -32 -70.5t-32 -70.5z" />
    <glyph glyph-name="guilsinglright" unicode="&#x203a;" horiz-adv-x="255" 
d="M40 449h69q9 0 15.5 -5t11 -12t8 -16t7.5 -16l66 -141l-93 -190h-62q-10 0 -14 7t-1 16l5 12.5t6 13.5q17 35 32 70.5t32 70.5z" />
    <glyph glyph-name="fraction" unicode="&#x2044;" horiz-adv-x="158" 
d="M241 677h56q19 0 19 -17q0 -7 -4 -14l-394 -646h-56q-20 0 -20 17q0 6 5 14z" />
    <glyph glyph-name="zerosuperior" unicode="&#x2070;" 
d="M189 338q43 0 57.5 31.5t14.5 110.5q0 78 -14.5 109.5t-57.5 31.5q-22 0 -36 -7.5t-22 -24t-11 -43.5t-3 -66t3 -66.5t11 -44t22 -24t36 -7.5zM189 274q-35 0 -63 8.5t-48 31.5t-30.5 63t-10.5 103q0 62 10.5 102t30.5 63t48 31.5t63 8.5t63 -8.5t47.5 -31.5t30 -63
t10.5 -102q0 -63 -10.5 -103t-30 -63t-47.5 -31.5t-63 -8.5z" />
    <glyph glyph-name="foursuperior" unicode="&#x2074;" 
d="M275 677q22 0 22 -21v-227h21q21 0 21 -21v-36h-42v-91h-49q-22 0 -22 21v70h-169q-22 0 -22 21v35q9 27 25.5 60t39.5 67t52 65.5t63 56.5h60zM226 429v182q-46 -39 -78.5 -88t-47.5 -94h126z" />
    <glyph glyph-name="fivesuperior" unicode="&#x2075;" 
d="M313 614h-172l-6 -92h42q80 0 115.5 -31t35.5 -88q0 -67 -42.5 -98t-110.5 -31q-9 0 -22 0.5t-26.5 2t-26 3.5t-21.5 5q-14 5 -18 11t-4 15v35q10 -2 40.5 -5.5t61.5 -3.5q53 0 71.5 16t18.5 48q0 38 -21 50.5t-64 12.5h-74q-15 0 -19.5 8.5t-3.5 23.5l11 181h213
q22 0 22 -21v-42z" />
    <glyph glyph-name="sixsuperior" unicode="&#x2076;" 
d="M225 622q-26 0 -44.5 -5t-31 -17t-18.5 -33.5t-7 -54.5q15 8 36 13.5t50 5.5q63 0 95.5 -30t32.5 -94q0 -60 -32 -96.5t-109 -36.5q-81 0 -115 47t-34 152q0 61 10.5 102t31.5 65.5t52 34.5t72 10q42 0 71 -9t29 -29v-32q-22 3 -45.5 5t-43.5 2zM196 474q-20 0 -38 -4.5
t-35 -12.5q0 -65 15 -94.5t60 -29.5q35 0 50.5 18t15.5 55q0 29 -13.5 48.5t-54.5 19.5z" />
    <glyph glyph-name="sevensuperior" unicode="&#x2077;" 
d="M108 304q0 14 11 49q20 65 54 132t67 127h-171q-22 0 -22 21v44h251q11 0 18 -4.5t7 -17.5v-32q-48 -85 -82.5 -167t-58.5 -175h-51q-23 0 -23 23z" />
    <glyph glyph-name="eightsuperior" unicode="&#x2078;" 
d="M188 274q-71 0 -110 29t-39 89q0 32 15 57t47 39q-26 15 -38 38t-12 50q0 52 34.5 80.5t103.5 28.5t104 -28.5t35 -79.5q0 -29 -12.5 -52t-38.5 -37q33 -15 48 -39.5t15 -56.5q0 -60 -40 -89t-112 -29zM189 331q35 0 55 14.5t20 47.5q0 24 -14.5 41.5t-60.5 17.5
t-60.5 -17.5t-14.5 -41.5q0 -33 20 -47.5t55 -14.5zM189 516q22 0 36 5t21 13.5t9.5 18.5t2.5 20q0 31 -16.5 46t-52.5 15q-69 0 -69 -60q0 -11 2.5 -21t9.5 -18.5t20.5 -13.5t36.5 -5z" />
    <glyph glyph-name="ninesuperior" unicode="&#x2079;" 
d="M154 337q26 0 44.5 4.5t30.5 17.5t18 34.5t7 56.5q-17 -8 -37.5 -13.5t-49.5 -5.5q-63 0 -94.5 30t-31.5 93q0 29 7.5 53t24 41.5t43.5 27t65 9.5q81 0 115 -47t34 -154q0 -61 -10 -101.5t-31 -64.5t-52.5 -34t-74.5 -10q-42 0 -72 9t-30 29v32q23 -3 48.5 -5t45.5 -2z
M182 488q21 0 39.5 5t33.5 13q0 63 -15.5 91.5t-58.5 28.5q-36 0 -51 -18t-15 -53q0 -29 13 -48t54 -19z" />
    <glyph glyph-name="zeroinferior" unicode="&#x2080;" 
d="M189 58q43 0 57.5 31.5t14.5 110.5q0 78 -14.5 109.5t-57.5 31.5q-22 0 -36 -7.5t-22 -24t-11 -43.5t-3 -66t3 -66.5t11 -44t22 -24t36 -7.5zM189 -6q-35 0 -63 8.5t-48 31.5t-30.5 63t-10.5 103q0 62 10.5 102t30.5 63t48 31.5t63 8.5t63 -8.5t47.5 -31.5t30 -63
t10.5 -102q0 -63 -10.5 -103t-30 -63t-47.5 -31.5t-63 -8.5z" />
    <glyph glyph-name="oneinferior" unicode="&#x2081;" 
d="M192 1q-10 0 -16 6t-6 15v295l-71 -26q-10 -4 -20 -4q-7 0 -12 4.5t-5 13.5v42l42 17q31 13 51 21l32.5 13t20.5 7t17 2q15 0 20.5 -9.5t5.5 -20.5v-376h-59z" />
    <glyph glyph-name="twoinferior" unicode="&#x2082;" 
d="M82 333q-14 0 -18.5 6t-4.5 16v31q19 7 51.5 12.5t65.5 5.5q25 0 51 -4.5t47 -16.5t34.5 -32.5t13.5 -52.5q0 -35 -16 -60t-48 -47q-20 -14 -42 -27t-41.5 -28t-32.5 -32.5t-15 -39.5h175q23 0 23 -20v-43h-250q-10 0 -16.5 6t-6.5 15v22q0 30 8.5 53.5t23 43t34 35.5
t41.5 30q18 11 33.5 20.5t27 19t18.5 21t7 26.5q0 22 -16 35t-60 13q-29 0 -51 -4t-36 -4z" />
    <glyph glyph-name="threeinferior" unicode="&#x2083;" 
d="M134 173q-23 0 -23 21v41h56q21 0 34 5.5t20 13.5t9.5 18t2.5 19q0 26 -17.5 38t-57.5 12q-25 0 -49 -3t-35 -3q-14 0 -18.5 5.5t-4.5 15.5v31q19 7 50 12t66 5q75 0 108.5 -28t33.5 -77q0 -32 -13 -53.5t-39 -35.5q32 -16 46.5 -39t14.5 -58q0 -60 -39 -89.5t-114 -29.5
q-10 0 -23.5 0.5t-27 2t-26 3.5t-21.5 5q-14 5 -18 11t-4 15v35q26 -4 52.5 -6.5t50.5 -2.5q56 0 74 16t18 43q0 32 -19 44.5t-59 12.5h-28z" />
    <glyph glyph-name="fourinferior" unicode="&#x2084;" 
d="M275 397q22 0 22 -21v-227h21q21 0 21 -21v-36h-42v-91h-49q-22 0 -22 21v70h-169q-22 0 -22 21v35q9 27 25.5 60t39.5 67t52 65.5t63 56.5h60zM226 149v182q-46 -39 -78.5 -88t-47.5 -94h126z" />
    <glyph glyph-name="fiveinferior" unicode="&#x2085;" 
d="M313 334h-172l-6 -92h42q80 0 115.5 -31t35.5 -88q0 -67 -42.5 -98t-110.5 -31q-9 0 -22 0.5t-26.5 2t-26 3.5t-21.5 5q-14 5 -18 11t-4 15v35q10 -2 40.5 -5.5t61.5 -3.5q53 0 71.5 16t18.5 48q0 38 -21 50.5t-64 12.5h-74q-15 0 -19.5 8.5t-3.5 23.5l11 181h213
q22 0 22 -21v-42z" />
    <glyph glyph-name="sixinferior" unicode="&#x2086;" 
d="M225 342q-26 0 -44.5 -5t-31 -17t-18.5 -33.5t-7 -54.5q15 8 36 13.5t50 5.5q63 0 95.5 -30t32.5 -94q0 -60 -32 -96.5t-109 -36.5q-81 0 -115 47t-34 152q0 61 10.5 102t31.5 65.5t52 34.5t72 10q42 0 71 -9t29 -29v-32q-22 3 -45.5 5t-43.5 2zM196 194q-20 0 -38 -4.5
t-35 -12.5q0 -65 15 -94.5t60 -29.5q35 0 50.5 18t15.5 55q0 29 -13.5 48.5t-54.5 19.5z" />
    <glyph glyph-name="seveninferior" unicode="&#x2087;" 
d="M108 24q0 14 11 49q20 65 54 132t67 127h-171q-22 0 -22 21v44h251q11 0 18 -4.5t7 -17.5v-32q-48 -85 -82.5 -167t-58.5 -175h-51q-23 0 -23 23z" />
    <glyph glyph-name="eightinferior" unicode="&#x2088;" 
d="M188 -6q-71 0 -110 29t-39 89q0 32 15 57t47 39q-26 15 -38 38t-12 50q0 52 34.5 80.5t103.5 28.5t104 -28.5t35 -79.5q0 -29 -12.5 -52t-38.5 -37q33 -15 48 -39.5t15 -56.5q0 -60 -40 -89t-112 -29zM189 51q35 0 55 14.5t20 47.5q0 24 -14.5 41.5t-60.5 17.5
t-60.5 -17.5t-14.5 -41.5q0 -33 20 -47.5t55 -14.5zM189 236q22 0 36 5t21 13.5t9.5 18.5t2.5 20q0 31 -16.5 46t-52.5 15q-69 0 -69 -60q0 -11 2.5 -21t9.5 -18.5t20.5 -13.5t36.5 -5z" />
    <glyph glyph-name="nineinferior" unicode="&#x2089;" 
d="M154 57q26 0 44.5 4.5t30.5 17.5t18 34.5t7 56.5q-17 -8 -37.5 -13.5t-49.5 -5.5q-63 0 -94.5 30t-31.5 93q0 29 7.5 53t24 41.5t43.5 27t65 9.5q81 0 115 -47t34 -154q0 -61 -10 -101.5t-31 -64.5t-52.5 -34t-74.5 -10q-42 0 -72 9t-30 29v32q23 -3 48.5 -5t45.5 -2z
M182 208q21 0 39.5 5t33.5 13q0 63 -15.5 91.5t-58.5 28.5q-36 0 -51 -18t-15 -53q0 -29 13 -48t54 -19z" />
    <glyph glyph-name="Euro" unicode="&#x20ac;" horiz-adv-x="536" 
d="M106 307q-1 11 -1 23v25v22t1 22h-42q-22 0 -22 22v44h70q7 64 25 109t48 73.5t72.5 42t98.5 13.5q25 0 51.5 -2t48 -8t35 -16.5t13.5 -26.5v-46q-29 4 -63.5 7.5t-71.5 3.5t-64.5 -7.5t-46.5 -25t-30.5 -46t-17.5 -71.5h181q22 0 22 -21v-45h-207q-1 -11 -1 -22v-22v-25
t1 -23h185q22 0 22 -21v-45h-202q6 -47 19.5 -77t33 -47t45.5 -23t58 -6q43 0 72.5 5t46.5 5q24 0 24 -24v-48q-28 -11 -68 -19t-92 -8q-108 0 -165.5 57t-72.5 185h-48q-22 0 -22 22v44h64z" />
    <glyph glyph-name="uni20B9" unicode="&#x20b9;" horiz-adv-x="536" 
d="M217 264q28 -26 60.5 -59t64 -68.5t58 -71t41.5 -65.5h-99q-14 0 -19 6t-13 16q-30 39 -61.5 75t-60 65.5t-51 51.5t-34.5 33q-10 10 -13 16t-3 18v44h67q26 0 50.5 4t43.5 15.5t32 33t17 56.5h-223q-22 0 -22 21v46h245q-5 33 -17.5 54t-31.5 33t-44 16.5t-53 4.5h-77
q-22 0 -22 19v49h414q22 0 22 -21v-47h-152q51 -38 61 -108h69q22 0 22 -22v-45h-90q-3 -42 -18 -72t-39 -50t-55.5 -31.5t-68.5 -16.5z" />
    <glyph glyph-name="afii61289" unicode="&#x2113;" horiz-adv-x="433" 
d="M307 544q0 63 -14 85t-43 22q-26 0 -40.5 -18t-14.5 -70v-243q34 19 56 43.5t34.5 53t17 60.5t4.5 67zM61 187q-10 -5 -17.5 -1.5t-7.5 15.5v50l69 35v247q0 92 32 144t110 52q42 0 68.5 -15t41.5 -40.5t20.5 -59.5t5.5 -72q0 -57 -11 -101t-33.5 -79t-58.5 -64.5
t-85 -56.5v-50q0 -33 4 -55.5t13.5 -36.5t25.5 -20t41 -6q26 0 45.5 4t31.5 4q13 0 17 -6.5t4 -16.5v-45q-22 -8 -52 -15t-65 -7q-44 0 -73.5 12t-47.5 38.5t-26 67.5t-8 99z" />
    <glyph glyph-name="trademark" unicode="&#x2122;" horiz-adv-x="730" 
d="M128 632h-87q-19 0 -19 18v43h261q20 0 20 -18v-43h-103v-312h-52q-20 0 -20 18v294zM616 338q-1 67 -3 139.5t-4 141.5l-76 -206h-37q-11 0 -15 4t-6 12l-70 190q-2 -33 -2.5 -68t-1.5 -70q-2 -41 -2.5 -82t-0.5 -79h-47q-20 0 -20 18q1 78 5 162t11 193h68q16 0 22 -17
l72 -194l79 211h60q10 0 14.5 -5t4.5 -13q6 -79 10.5 -171t5.5 -184h-48q-19 0 -19 18z" />
    <glyph glyph-name="uni2126" unicode="&#x2126;" horiz-adv-x="618" 
d="M535 85q13 0 21.5 -6t8.5 -20v-59h-177q-13 0 -21 6t-8 21v60q24 27 41.5 56.5t29 64t17 74.5t5.5 90q0 79 -11 127.5t-30 74t-45 34t-57 8.5t-57 -8.5t-45.5 -34t-30.5 -74t-11 -127.5q0 -48 5.5 -87.5t16 -72.5t27 -61.5t37.5 -54.5q8 -9 8 -23v-73h-176q-14 0 -22 6
t-8 21v58h114q-27 29 -47 59t-33.5 64.5t-20.5 75t-7 90.5q0 76 11.5 137.5t40 104t76.5 65.5t122 23q73 0 121.5 -23t77 -65.5t40 -104t11.5 -137.5q0 -50 -7 -90.5t-20.5 -75t-33.5 -64.5t-47 -59h84z" />
    <glyph glyph-name="estimated" unicode="&#x212e;" horiz-adv-x="621" 
d="M165 262v-181q59 -59 145 -59q63 0 109 28.5t84 91.5l35 -21q-23 -36 -46.5 -61.5t-51 -42t-59.5 -24t-71 -7.5q-59 0 -106.5 21.5t-81.5 59t-52 87.5t-18 108t18 108.5t52 87.5t81.5 58.5t106.5 21.5q58 0 105.5 -20.5t81.5 -57t53 -87t19 -111.5h-404zM456 298v145
q-63 60 -147 60t-144 -60v-145h291z" />
    <glyph glyph-name="onethird" unicode="&#x2153;" horiz-adv-x="901" 
d="M584 677h56q19 0 19 -17q0 -7 -4 -14l-394 -646h-56q-20 0 -20 17q0 6 5 14zM192 281q-10 0 -16 6t-6 15v295l-71 -26q-10 -4 -20 -4q-7 0 -12 4.5t-5 13.5v42l42 17q31 13 51 21l32.5 13t20.5 7t17 2q15 0 20.5 -9.5t5.5 -20.5v-376h-59zM657 173q-23 0 -23 21v41h56
q21 0 34 5.5t20 13.5t9.5 18t2.5 19q0 26 -17.5 38t-57.5 12q-25 0 -49 -3t-35 -3q-14 0 -18.5 5.5t-4.5 15.5v31q19 7 50 12t66 5q75 0 108.5 -28t33.5 -77q0 -32 -13 -53.5t-39 -35.5q32 -16 46.5 -39t14.5 -58q0 -60 -39 -89.5t-114 -29.5q-10 0 -23.5 0.5t-27 2t-26 3.5
t-21.5 5q-14 5 -18 11t-4 15v35q26 -4 52.5 -6.5t50.5 -2.5q56 0 74 16t18 43q0 32 -19 44.5t-59 12.5h-28z" />
    <glyph glyph-name="twothirds" unicode="&#x2154;" horiz-adv-x="901" 
d="M613 677h56q19 0 19 -17q0 -7 -4 -14l-394 -646h-56q-20 0 -20 17q0 6 5 14zM82 613q-14 0 -18.5 6t-4.5 16v31q19 7 51.5 12.5t65.5 5.5q25 0 51 -4.5t47 -16.5t34.5 -32.5t13.5 -52.5q0 -35 -16 -60t-48 -47q-20 -14 -42 -27t-41.5 -28t-32.5 -32.5t-15 -39.5h175
q23 0 23 -20v-43h-250q-10 0 -16.5 6t-6.5 15v22q0 30 8.5 53.5t23 43t34 35.5t41.5 30q18 11 33.5 20.5t27 19t18.5 21t7 26.5q0 22 -16 35t-60 13q-29 0 -51 -4t-36 -4zM657 173q-23 0 -23 21v41h56q21 0 34 5.5t20 13.5t9.5 18t2.5 19q0 26 -17.5 38t-57.5 12
q-25 0 -49 -3t-35 -3q-14 0 -18.5 5.5t-4.5 15.5v31q19 7 50 12t66 5q75 0 108.5 -28t33.5 -77q0 -32 -13 -53.5t-39 -35.5q32 -16 46.5 -39t14.5 -58q0 -60 -39 -89.5t-114 -29.5q-10 0 -23.5 0.5t-27 2t-26 3.5t-21.5 5q-14 5 -18 11t-4 15v35q26 -4 52.5 -6.5t50.5 -2.5
q56 0 74 16t18 43q0 32 -19 44.5t-59 12.5h-28z" />
    <glyph glyph-name="onefifth" unicode="&#x2155;" horiz-adv-x="901" 
d="M587 677h56q19 0 19 -17q0 -7 -4 -14l-394 -646h-56q-20 0 -20 17q0 6 5 14zM192 281q-10 0 -16 6t-6 15v295l-71 -26q-10 -4 -20 -4q-7 0 -12 4.5t-5 13.5v42l42 17q31 13 51 21l32.5 13t20.5 7t17 2q15 0 20.5 -9.5t5.5 -20.5v-376h-59zM836 334h-172l-6 -92h42
q80 0 115.5 -31t35.5 -88q0 -67 -42.5 -98t-110.5 -31q-9 0 -22 0.5t-26.5 2t-26 3.5t-21.5 5q-14 5 -18 11t-4 15v35q10 -2 40.5 -5.5t61.5 -3.5q53 0 71.5 16t18.5 48q0 38 -21 50.5t-64 12.5h-74q-15 0 -19.5 8.5t-3.5 23.5l11 181h213q22 0 22 -21v-42z" />
    <glyph glyph-name="twofifths" unicode="&#x2156;" horiz-adv-x="901" 
d="M623 677h56q19 0 19 -17q0 -7 -4 -14l-394 -646h-56q-20 0 -20 17q0 6 5 14zM82 613q-14 0 -18.5 6t-4.5 16v31q19 7 51.5 12.5t65.5 5.5q25 0 51 -4.5t47 -16.5t34.5 -32.5t13.5 -52.5q0 -35 -16 -60t-48 -47q-20 -14 -42 -27t-41.5 -28t-32.5 -32.5t-15 -39.5h175
q23 0 23 -20v-43h-250q-10 0 -16.5 6t-6.5 15v22q0 30 8.5 53.5t23 43t34 35.5t41.5 30q18 11 33.5 20.5t27 19t18.5 21t7 26.5q0 22 -16 35t-60 13q-29 0 -51 -4t-36 -4zM836 334h-172l-6 -92h42q80 0 115.5 -31t35.5 -88q0 -67 -42.5 -98t-110.5 -31q-9 0 -22 0.5t-26.5 2
t-26 3.5t-21.5 5q-14 5 -18 11t-4 15v35q10 -2 40.5 -5.5t61.5 -3.5q53 0 71.5 16t18.5 48q0 38 -21 50.5t-64 12.5h-74q-15 0 -19.5 8.5t-3.5 23.5l11 181h213q22 0 22 -21v-42z" />
    <glyph glyph-name="threefifths" unicode="&#x2157;" horiz-adv-x="901" 
d="M605 677h56q19 0 19 -17q0 -7 -4 -14l-394 -646h-56q-20 0 -20 17q0 6 5 14zM836 334h-172l-6 -92h42q80 0 115.5 -31t35.5 -88q0 -67 -42.5 -98t-110.5 -31q-9 0 -22 0.5t-26.5 2t-26 3.5t-21.5 5q-14 5 -18 11t-4 15v35q10 -2 40.5 -5.5t61.5 -3.5q53 0 71.5 16
t18.5 48q0 38 -21 50.5t-64 12.5h-74q-15 0 -19.5 8.5t-3.5 23.5l11 181h213q22 0 22 -21v-42zM134 453q-23 0 -23 21v41h56q21 0 34 5.5t20 13.5t9.5 18t2.5 19q0 26 -17.5 38t-57.5 12q-25 0 -49 -3t-35 -3q-14 0 -18.5 5.5t-4.5 15.5v31q19 7 50 12t66 5q75 0 108.5 -28
t33.5 -77q0 -32 -13 -53.5t-39 -35.5q32 -16 46.5 -39t14.5 -58q0 -60 -39 -89.5t-114 -29.5q-10 0 -23.5 0.5t-27 2t-26 3.5t-21.5 5q-14 5 -18 11t-4 15v35q26 -4 52.5 -6.5t50.5 -2.5q56 0 74 16t18 43q0 32 -19 44.5t-59 12.5h-28z" />
    <glyph glyph-name="fourfifths" unicode="&#x2158;" horiz-adv-x="901" 
d="M613 677h56q19 0 19 -17q0 -7 -4 -14l-394 -646h-56q-20 0 -20 17q0 6 5 14zM836 334h-172l-6 -92h42q80 0 115.5 -31t35.5 -88q0 -67 -42.5 -98t-110.5 -31q-9 0 -22 0.5t-26.5 2t-26 3.5t-21.5 5q-14 5 -18 11t-4 15v35q10 -2 40.5 -5.5t61.5 -3.5q53 0 71.5 16
t18.5 48q0 38 -21 50.5t-64 12.5h-74q-15 0 -19.5 8.5t-3.5 23.5l11 181h213q22 0 22 -21v-42zM275 677q22 0 22 -21v-227h21q21 0 21 -21v-36h-42v-91h-49q-22 0 -22 21v70h-169q-22 0 -22 21v35q9 27 25.5 60t39.5 67t52 65.5t63 56.5h60zM226 429v182q-46 -39 -78.5 -88
t-47.5 -94h126z" />
    <glyph glyph-name="onesixth" unicode="&#x2159;" horiz-adv-x="901" 
d="M588 677h56q19 0 19 -17q0 -7 -4 -14l-394 -646h-56q-20 0 -20 17q0 6 5 14zM192 281q-10 0 -16 6t-6 15v295l-71 -26q-10 -4 -20 -4q-7 0 -12 4.5t-5 13.5v42l42 17q31 13 51 21l32.5 13t20.5 7t17 2q15 0 20.5 -9.5t5.5 -20.5v-376h-59zM748 342q-26 0 -44.5 -5
t-31 -17t-18.5 -33.5t-7 -54.5q15 8 36 13.5t50 5.5q63 0 95.5 -30t32.5 -94q0 -60 -32 -96.5t-109 -36.5q-81 0 -115 47t-34 152q0 61 10.5 102t31.5 65.5t52 34.5t72 10q42 0 71 -9t29 -29v-32q-22 3 -45.5 5t-43.5 2zM719 194q-20 0 -38 -4.5t-35 -12.5q0 -65 15 -94.5
t60 -29.5q35 0 50.5 18t15.5 55q0 29 -13.5 48.5t-54.5 19.5z" />
    <glyph glyph-name="fivesixths" unicode="&#x215a;" horiz-adv-x="901" 
d="M613 677h56q19 0 19 -17q0 -7 -4 -14l-394 -646h-56q-20 0 -20 17q0 6 5 14zM748 342q-26 0 -44.5 -5t-31 -17t-18.5 -33.5t-7 -54.5q15 8 36 13.5t50 5.5q63 0 95.5 -30t32.5 -94q0 -60 -32 -96.5t-109 -36.5q-81 0 -115 47t-34 152q0 61 10.5 102t31.5 65.5t52 34.5
t72 10q42 0 71 -9t29 -29v-32q-22 3 -45.5 5t-43.5 2zM719 194q-20 0 -38 -4.5t-35 -12.5q0 -65 15 -94.5t60 -29.5q35 0 50.5 18t15.5 55q0 29 -13.5 48.5t-54.5 19.5zM313 614h-172l-6 -92h42q80 0 115.5 -31t35.5 -88q0 -67 -42.5 -98t-110.5 -31q-9 0 -22 0.5t-26.5 2
t-26 3.5t-21.5 5q-14 5 -18 11t-4 15v35q10 -2 40.5 -5.5t61.5 -3.5q53 0 71.5 16t18.5 48q0 38 -21 50.5t-64 12.5h-74q-15 0 -19.5 8.5t-3.5 23.5l11 181h213q22 0 22 -21v-42z" />
    <glyph glyph-name="oneeighth" unicode="&#x215b;" horiz-adv-x="901" 
d="M587 677h56q19 0 19 -17q0 -7 -4 -14l-394 -646h-56q-20 0 -20 17q0 6 5 14zM192 281q-10 0 -16 6t-6 15v295l-71 -26q-10 -4 -20 -4q-7 0 -12 4.5t-5 13.5v42l42 17q31 13 51 21l32.5 13t20.5 7t17 2q15 0 20.5 -9.5t5.5 -20.5v-376h-59zM711 -6q-71 0 -110 29t-39 89
q0 32 15 57t47 39q-26 15 -38 38t-12 50q0 52 34.5 80.5t103.5 28.5t104 -28.5t35 -79.5q0 -29 -12.5 -52t-38.5 -37q33 -15 48 -39.5t15 -56.5q0 -60 -40 -89t-112 -29zM712 51q35 0 55 14.5t20 47.5q0 24 -14.5 41.5t-60.5 17.5t-60.5 -17.5t-14.5 -41.5q0 -33 20 -47.5
t55 -14.5zM712 236q22 0 36 5t21 13.5t9.5 18.5t2.5 20q0 31 -16.5 46t-52.5 15q-69 0 -69 -60q0 -11 2.5 -21t9.5 -18.5t20.5 -13.5t36.5 -5z" />
    <glyph glyph-name="threeeighths" unicode="&#x215c;" horiz-adv-x="901" 
d="M610 677h56q19 0 19 -17q0 -7 -4 -14l-394 -646h-56q-20 0 -20 17q0 6 5 14zM711 -6q-71 0 -110 29t-39 89q0 32 15 57t47 39q-26 15 -38 38t-12 50q0 52 34.5 80.5t103.5 28.5t104 -28.5t35 -79.5q0 -29 -12.5 -52t-38.5 -37q33 -15 48 -39.5t15 -56.5q0 -60 -40 -89
t-112 -29zM712 51q35 0 55 14.5t20 47.5q0 24 -14.5 41.5t-60.5 17.5t-60.5 -17.5t-14.5 -41.5q0 -33 20 -47.5t55 -14.5zM712 236q22 0 36 5t21 13.5t9.5 18.5t2.5 20q0 31 -16.5 46t-52.5 15q-69 0 -69 -60q0 -11 2.5 -21t9.5 -18.5t20.5 -13.5t36.5 -5zM134 453
q-23 0 -23 21v41h56q21 0 34 5.5t20 13.5t9.5 18t2.5 19q0 26 -17.5 38t-57.5 12q-25 0 -49 -3t-35 -3q-14 0 -18.5 5.5t-4.5 15.5v31q19 7 50 12t66 5q75 0 108.5 -28t33.5 -77q0 -32 -13 -53.5t-39 -35.5q32 -16 46.5 -39t14.5 -58q0 -60 -39 -89.5t-114 -29.5
q-10 0 -23.5 0.5t-27 2t-26 3.5t-21.5 5q-14 5 -18 11t-4 15v35q26 -4 52.5 -6.5t50.5 -2.5q56 0 74 16t18 43q0 32 -19 44.5t-59 12.5h-28z" />
    <glyph glyph-name="fiveeighths" unicode="&#x215d;" horiz-adv-x="901" 
d="M613 677h56q19 0 19 -17q0 -7 -4 -14l-394 -646h-56q-20 0 -20 17q0 6 5 14zM313 614h-172l-6 -92h42q80 0 115.5 -31t35.5 -88q0 -67 -42.5 -98t-110.5 -31q-9 0 -22 0.5t-26.5 2t-26 3.5t-21.5 5q-14 5 -18 11t-4 15v35q10 -2 40.5 -5.5t61.5 -3.5q53 0 71.5 16
t18.5 48q0 38 -21 50.5t-64 12.5h-74q-15 0 -19.5 8.5t-3.5 23.5l11 181h213q22 0 22 -21v-42zM711 -6q-71 0 -110 29t-39 89q0 32 15 57t47 39q-26 15 -38 38t-12 50q0 52 34.5 80.5t103.5 28.5t104 -28.5t35 -79.5q0 -29 -12.5 -52t-38.5 -37q33 -15 48 -39.5t15 -56.5
q0 -60 -40 -89t-112 -29zM712 51q35 0 55 14.5t20 47.5q0 24 -14.5 41.5t-60.5 17.5t-60.5 -17.5t-14.5 -41.5q0 -33 20 -47.5t55 -14.5zM712 236q22 0 36 5t21 13.5t9.5 18.5t2.5 20q0 31 -16.5 46t-52.5 15q-69 0 -69 -60q0 -11 2.5 -21t9.5 -18.5t20.5 -13.5t36.5 -5z
" />
    <glyph glyph-name="seveneighths" unicode="&#x215e;" horiz-adv-x="901" 
d="M577 677h56q19 0 19 -17q0 -7 -4 -14l-394 -646h-56q-20 0 -20 17q0 6 5 14zM711 -6q-71 0 -110 29t-39 89q0 32 15 57t47 39q-26 15 -38 38t-12 50q0 52 34.5 80.5t103.5 28.5t104 -28.5t35 -79.5q0 -29 -12.5 -52t-38.5 -37q33 -15 48 -39.5t15 -56.5q0 -60 -40 -89
t-112 -29zM712 51q35 0 55 14.5t20 47.5q0 24 -14.5 41.5t-60.5 17.5t-60.5 -17.5t-14.5 -41.5q0 -33 20 -47.5t55 -14.5zM712 236q22 0 36 5t21 13.5t9.5 18.5t2.5 20q0 31 -16.5 46t-52.5 15q-69 0 -69 -60q0 -11 2.5 -21t9.5 -18.5t20.5 -13.5t36.5 -5zM108 304
q0 14 11 49q20 65 54 132t67 127h-171q-22 0 -22 21v44h251q11 0 18 -4.5t7 -17.5v-32q-48 -85 -82.5 -167t-58.5 -175h-51q-23 0 -23 23z" />
    <glyph glyph-name="partialdiff" unicode="&#x2202;" horiz-adv-x="520" 
d="M217 620q-38 0 -65.5 -5t-41.5 -5t-17.5 6t-3.5 16v46q26 10 62 17t80 7q63 0 108.5 -18.5t74 -59t42 -104.5t13.5 -155q0 -84 -12 -153.5t-40 -119.5t-73.5 -77.5t-111.5 -27.5q-184 0 -184 212q0 52 12 100.5t38 85.5t66 59t96 22q38 0 66.5 -8.5t42.5 -17.5
q-2 57 -14 92t-32.5 54.5t-47.5 26.5t-58 7zM237 68q42 0 68 23.5t40.5 63.5t19.5 94t5 114q-18 10 -40 16t-48 6q-36 0 -61.5 -13.5t-42 -37.5t-24 -58t-7.5 -74q0 -68 21 -101t69 -33z" />
    <glyph glyph-name="Delta" unicode="&#x2206;" horiz-adv-x="552" 
d="M53 0q-23 0 -21 25q2 16 5 32t6 33q30 166 76 322.5t97 280.5h99q14 0 19 -6t10 -15q25 -65 51.5 -143t50.5 -165t44 -179t34 -185h-471zM274 601q-55 -148 -85.5 -278.5t-46.5 -236.5h263q-16 106 -46.5 236.5t-84.5 278.5z" />
    <glyph glyph-name="product" unicode="&#x220f;" horiz-adv-x="601" 
d="M426 605h-251v-701h-81q-24 0 -24 23v766h437q24 0 24 -23v-766h-81q-11 0 -17.5 6t-6.5 17v678z" />
    <glyph glyph-name="summation" unicode="&#x2211;" horiz-adv-x="506" 
d="M56 590q-3 5 -7.5 13.5t-4.5 19.5v70h399q23 0 23 -23v-65h-304l182 -297q-55 -82 -100.5 -160t-84.5 -156h296q23 0 23 -23v-65h-412q-24 0 -24 23v57q45 88 94.5 172t93.5 152z" />
    <glyph glyph-name="minus" unicode="&#x2212;" horiz-adv-x="536" 
d="M445 384q23 0 23 -23v-61h-376q-24 0 -24 23v61h377z" />
    <glyph glyph-name="uni2215" unicode="&#x2215;" horiz-adv-x="158" 
d="M241 677h56q19 0 19 -17q0 -7 -4 -14l-394 -646h-56q-20 0 -20 17q0 6 5 14z" />
    <glyph glyph-name="uni2219" unicode="&#x2219;" horiz-adv-x="250" 
d="M192 340q0 -34 -16 -48.5t-51 -14.5q-36 0 -51.5 14.5t-15.5 48.5t16 49t51 15t51 -15t16 -49z" />
    <glyph glyph-name="radical" unicode="&#x221a;" horiz-adv-x="544" 
d="M139 424q9 3 14.5 4t10.5 1q17 0 23 -19l90 -282l172 640h61q11 0 16.5 -6t2.5 -17l-202 -745h-76q-18 0 -26 16.5t-13 30.5l-98 288l-55 -15q-6 -2 -12 -2q-13 0 -13 16v59z" />
    <glyph glyph-name="infinity" unicode="&#x221e;" horiz-adv-x="585" 
d="M110 325q0 -75 58 -75q26 0 44 15.5t44 58.5q-26 43 -44 59.5t-44 16.5q-58 0 -58 -75zM475 325q0 75 -58 75q-26 0 -44 -16t-44 -58q26 -44 44 -60t44 -16q58 0 58 75zM291 267q-12 -17 -23.5 -32.5t-26 -27t-33.5 -18.5t-45 -7q-69 0 -97.5 39.5t-28.5 103.5
q0 67 30 105t96 38q24 0 43 -6.5t34 -17.5t28 -27t26 -34q11 17 23 32.5t27 27t34 18.5t44 7q69 0 97.5 -39.5t28.5 -103.5q0 -66 -30 -104.5t-96 -38.5q-45 0 -73.5 20.5t-57.5 64.5z" />
    <glyph glyph-name="integral" unicode="&#x222b;" horiz-adv-x="295" 
d="M23 -15q0 -1 6.5 -1.5t14.5 -0.5h14.5h7.5q22 0 35 3.5t19.5 10.5t8 17.5t1.5 24.5q0 19 -1.5 35.5t-4.5 41.5l-51 426q-3 20 -4 33.5t-2 22.5t-1 14.5v10.5q0 28 6 52t20 41.5t37.5 27.5t58.5 10q14 0 33.5 -2t33.5 -7q11 -5 14.5 -12.5t3.5 -17.5v-42q-11 1 -25.5 1.5
t-23.5 0.5q-39 0 -48.5 -14.5t-9.5 -43.5q0 -17 1.5 -34.5t4.5 -40.5l51 -426q1 -9 4 -31.5t3 -48.5q0 -29 -6 -53t-20 -41.5t-37.5 -27.5t-58.5 -10q-14 0 -33.5 2t-33.5 7q-11 5 -14.5 12t-3.5 17v43z" />
    <glyph glyph-name="approxequal" unicode="&#x2248;" horiz-adv-x="536" 
d="M257 403q-29 19 -43.5 26.5t-33.5 7.5q-27 0 -35 -19t-8 -52h-56q-14 0 -18 6.5t-4 15.5q0 62 27.5 95t85.5 33q35 0 61 -13t47 -27q28 -18 43 -26t34 -8q26 0 34 19t8 52h56q14 0 18.5 -6.5t4.5 -15.5q0 -62 -27.5 -95t-86.5 -33q-35 0 -61 13t-46 27zM257 202
q-29 19 -43.5 26.5t-33.5 7.5q-27 0 -35 -19t-8 -52h-56q-14 0 -18 6.5t-4 15.5q0 62 27.5 95t85.5 33q35 0 61 -13t47 -27q28 -20 43 -27t34 -7q26 0 34 19t8 52h56q14 0 18.5 -6.5t4.5 -15.5q0 -62 -27.5 -95t-86.5 -33q-35 0 -61 13t-46 27z" />
    <glyph glyph-name="notequal" unicode="&#x2260;" horiz-adv-x="536" 
d="M213 280l40 118h-157q-24 0 -24 23v58h209l43 128h44q11 0 14.5 -6t-0.5 -15l-36 -107h95q24 0 24 -23v-58h-146l-40 -118h162q24 0 24 -23v-59h-213l-43 -127h-45q-11 0 -13.5 6.5t0.5 15.5l35 105h-90q-24 0 -24 23v59h141z" />
    <glyph glyph-name="lessequal" unicode="&#x2264;" horiz-adv-x="536" 
d="M426 252q14 -6 16 -14.5t2 -21.5v-64l-335 161q-14 7 -18.5 12.5t-4.5 18.5v53l323 161q7 5 17 5q18 0 18 -19v-60l-259 -124zM422 82q24 0 24 -23v-59h-338q-24 0 -24 23v59h338z" />
    <glyph glyph-name="greaterequal" unicode="&#x2265;" horiz-adv-x="536" 
d="M428 82q11 0 17.5 -6t6.5 -17v-59h-339q-11 0 -17.5 6t-6.5 17v59h339zM110 468q-14 6 -16 14.5t-2 21.5v64l334 -161q14 -7 18.5 -12.5t4.5 -18.5v-53l-322 -161q-8 -5 -17 -5q-18 0 -18 19v60l259 124z" />
    <glyph glyph-name="lozenge" unicode="&#x25ca;" horiz-adv-x="509" 
d="M229 0q-12 0 -16.5 4t-9.5 13l-173 322l182 338h67q13 0 17.5 -4t9.5 -13l172 -321l-181 -339h-68zM255 580l-125 -241l125 -243l123 243z" />
    <glyph glyph-name="fi" unicode="&#xf001;" horiz-adv-x="528" 
d="M464 0h-77q-11 0 -17.5 6t-6.5 17v406h-173v-429h-77q-23 0 -23 23v406h-35q-16 0 -20 9t-4 26v45h59v51q0 40 5.5 71.5t20 53.5t38.5 33t62 11q11 0 25.5 -1t27.5 -5.5t22 -12.5t9 -22v-43q-20 2 -30.5 3t-22.5 1q-38 0 -47.5 -19.5t-9.5 -54.5v-66h250q24 0 24 -23
v-486zM414 589q-33 0 -47.5 12.5t-14.5 42.5q0 29 14.5 42t47.5 13q32 0 47 -13t15 -42q0 -30 -15 -42.5t-47 -12.5z" />
    <glyph glyph-name="fl" unicode="&#xf002;" horiz-adv-x="564" 
d="M464 118q0 -27 9 -35t32 -9q16 -1 24.5 -5t8.5 -19v-46q-17 -5 -34 -7.5t-37 -2.5q-59 0 -81.5 37t-22.5 112v286h-173v-429h-77q-23 0 -23 23v406h-35q-24 0 -24 23v57h59v51q0 40 5.5 71.5t20 53.5t38.5 33t62 11q10 0 24 -1t27.5 -5t23 -12.5t9.5 -22.5v-43
q-20 2 -30.5 3t-22.5 1q-38 0 -47.5 -19.5t-9.5 -54.5v-66h173v209h77q24 0 24 -23v-577z" />
    <glyph glyph-name="oneseventh" unicode="&#xf506;" horiz-adv-x="901" 
d="M578 677h56q19 0 19 -17q0 -7 -4 -14l-394 -646h-56q-20 0 -20 17q0 6 5 14zM192 281q-10 0 -16 6t-6 15v295l-71 -26q-10 -4 -20 -4q-7 0 -12 4.5t-5 13.5v42l42 17q31 13 51 21l32.5 13t20.5 7t17 2q15 0 20.5 -9.5t5.5 -20.5v-376h-59zM631 24q0 14 11 49
q20 65 54 132t67 127h-171q-22 0 -22 21v44h251q11 0 18 -4.5t7 -17.5v-32q-48 -85 -82.5 -167t-58.5 -175h-51q-23 0 -23 23z" />
    <glyph glyph-name="twosevenths" unicode="&#xf507;" horiz-adv-x="901" 
d="M610 677h56q19 0 19 -17q0 -7 -4 -14l-394 -646h-56q-20 0 -20 17q0 6 5 14zM82 613q-14 0 -18.5 6t-4.5 16v31q19 7 51.5 12.5t65.5 5.5q25 0 51 -4.5t47 -16.5t34.5 -32.5t13.5 -52.5q0 -35 -16 -60t-48 -47q-20 -14 -42 -27t-41.5 -28t-32.5 -32.5t-15 -39.5h175
q23 0 23 -20v-43h-250q-10 0 -16.5 6t-6.5 15v22q0 30 8.5 53.5t23 43t34 35.5t41.5 30q18 11 33.5 20.5t27 19t18.5 21t7 26.5q0 22 -16 35t-60 13q-29 0 -51 -4t-36 -4zM631 24q0 14 11 49q20 65 54 132t67 127h-171q-22 0 -22 21v44h251q11 0 18 -4.5t7 -17.5v-32
q-48 -85 -82.5 -167t-58.5 -175h-51q-23 0 -23 23z" />
    <glyph glyph-name="threesevenths" unicode="&#xf508;" horiz-adv-x="901" 
d="M598 677h56q19 0 19 -17q0 -7 -4 -14l-394 -646h-56q-20 0 -20 17q0 6 5 14zM631 24q0 14 11 49q20 65 54 132t67 127h-171q-22 0 -22 21v44h251q11 0 18 -4.5t7 -17.5v-32q-48 -85 -82.5 -167t-58.5 -175h-51q-23 0 -23 23zM134 453q-23 0 -23 21v41h56q21 0 34 5.5
t20 13.5t9.5 18t2.5 19q0 26 -17.5 38t-57.5 12q-25 0 -49 -3t-35 -3q-14 0 -18.5 5.5t-4.5 15.5v31q19 7 50 12t66 5q75 0 108.5 -28t33.5 -77q0 -32 -13 -53.5t-39 -35.5q32 -16 46.5 -39t14.5 -58q0 -60 -39 -89.5t-114 -29.5q-10 0 -23.5 0.5t-27 2t-26 3.5t-21.5 5
q-14 5 -18 11t-4 15v35q26 -4 52.5 -6.5t50.5 -2.5q56 0 74 16t18 43q0 32 -19 44.5t-59 12.5h-28z" />
    <glyph glyph-name="foursevenths" unicode="&#xf509;" horiz-adv-x="901" 
d="M601 677h56q19 0 19 -17q0 -7 -4 -14l-394 -646h-56q-20 0 -20 17q0 6 5 14zM275 677q22 0 22 -21v-227h21q21 0 21 -21v-36h-42v-91h-49q-22 0 -22 21v70h-169q-22 0 -22 21v35q9 27 25.5 60t39.5 67t52 65.5t63 56.5h60zM226 429v182q-46 -39 -78.5 -88t-47.5 -94h126z
M631 24q0 14 11 49q20 65 54 132t67 127h-171q-22 0 -22 21v44h251q11 0 18 -4.5t7 -17.5v-32q-48 -85 -82.5 -167t-58.5 -175h-51q-23 0 -23 23z" />
    <glyph glyph-name="fivesevenths" unicode="&#xf50a;" horiz-adv-x="901" 
d="M598 677h56q19 0 19 -17q0 -7 -4 -14l-394 -646h-56q-20 0 -20 17q0 6 5 14zM313 614h-172l-6 -92h42q80 0 115.5 -31t35.5 -88q0 -67 -42.5 -98t-110.5 -31q-9 0 -22 0.5t-26.5 2t-26 3.5t-21.5 5q-14 5 -18 11t-4 15v35q10 -2 40.5 -5.5t61.5 -3.5q53 0 71.5 16
t18.5 48q0 38 -21 50.5t-64 12.5h-74q-15 0 -19.5 8.5t-3.5 23.5l11 181h213q22 0 22 -21v-42zM631 24q0 14 11 49q20 65 54 132t67 127h-171q-22 0 -22 21v44h251q11 0 18 -4.5t7 -17.5v-32q-48 -85 -82.5 -167t-58.5 -175h-51q-23 0 -23 23z" />
    <glyph glyph-name="sixsevenths" unicode="&#xf50b;" horiz-adv-x="901" 
d="M599 677h56q19 0 19 -17q0 -7 -4 -14l-394 -646h-56q-20 0 -20 17q0 6 5 14zM225 622q-26 0 -44.5 -5t-31 -17t-18.5 -33.5t-7 -54.5q15 8 36 13.5t50 5.5q63 0 95.5 -30t32.5 -94q0 -60 -32 -96.5t-109 -36.5q-81 0 -115 47t-34 152q0 61 10.5 102t31.5 65.5t52 34.5
t72 10q42 0 71 -9t29 -29v-32q-22 3 -45.5 5t-43.5 2zM196 474q-20 0 -38 -4.5t-35 -12.5q0 -65 15 -94.5t60 -29.5q35 0 50.5 18t15.5 55q0 29 -13.5 48.5t-54.5 19.5zM631 24q0 14 11 49q20 65 54 132t67 127h-171q-22 0 -22 21v44h251q11 0 18 -4.5t7 -17.5v-32
q-48 -85 -82.5 -167t-58.5 -175h-51q-23 0 -23 23z" />
    <glyph glyph-name="oneninth" unicode="&#xf50c;" horiz-adv-x="901" 
d="M587 677h56q19 0 19 -17q0 -7 -4 -14l-394 -646h-56q-20 0 -20 17q0 6 5 14zM192 281q-10 0 -16 6t-6 15v295l-71 -26q-10 -4 -20 -4q-7 0 -12 4.5t-5 13.5v42l42 17q31 13 51 21l32.5 13t20.5 7t17 2q15 0 20.5 -9.5t5.5 -20.5v-376h-59zM677 57q26 0 44.5 4.5
t30.5 17.5t18 34.5t7 56.5q-17 -8 -37.5 -13.5t-49.5 -5.5q-63 0 -94.5 30t-31.5 93q0 29 7.5 53t24 41.5t43.5 27t65 9.5q81 0 115 -47t34 -154q0 -61 -10 -101.5t-31 -64.5t-52.5 -34t-74.5 -10q-42 0 -72 9t-30 29v32q23 -3 48.5 -5t45.5 -2zM705 208q21 0 39.5 5
t33.5 13q0 63 -15.5 91.5t-58.5 28.5q-36 0 -51 -18t-15 -53q0 -29 13 -48t54 -19z" />
    <glyph glyph-name="twoninths" unicode="&#xf50d;" horiz-adv-x="901" 
d="M617 677h56q19 0 19 -17q0 -7 -4 -14l-394 -646h-56q-20 0 -20 17q0 6 5 14zM82 613q-14 0 -18.5 6t-4.5 16v31q19 7 51.5 12.5t65.5 5.5q25 0 51 -4.5t47 -16.5t34.5 -32.5t13.5 -52.5q0 -35 -16 -60t-48 -47q-20 -14 -42 -27t-41.5 -28t-32.5 -32.5t-15 -39.5h175
q23 0 23 -20v-43h-250q-10 0 -16.5 6t-6.5 15v22q0 30 8.5 53.5t23 43t34 35.5t41.5 30q18 11 33.5 20.5t27 19t18.5 21t7 26.5q0 22 -16 35t-60 13q-29 0 -51 -4t-36 -4zM677 57q26 0 44.5 4.5t30.5 17.5t18 34.5t7 56.5q-17 -8 -37.5 -13.5t-49.5 -5.5q-63 0 -94.5 30
t-31.5 93q0 29 7.5 53t24 41.5t43.5 27t65 9.5q81 0 115 -47t34 -154q0 -61 -10 -101.5t-31 -64.5t-52.5 -34t-74.5 -10q-42 0 -72 9t-30 29v32q23 -3 48.5 -5t45.5 -2zM705 208q21 0 39.5 5t33.5 13q0 63 -15.5 91.5t-58.5 28.5q-36 0 -51 -18t-15 -53q0 -29 13 -48t54 -19
z" />
    <glyph glyph-name="fourninths" unicode="&#xf50e;" horiz-adv-x="901" 
d="M613 677h56q19 0 19 -17q0 -7 -4 -14l-394 -646h-56q-20 0 -20 17q0 6 5 14zM275 677q22 0 22 -21v-227h21q21 0 21 -21v-36h-42v-91h-49q-22 0 -22 21v70h-169q-22 0 -22 21v35q9 27 25.5 60t39.5 67t52 65.5t63 56.5h60zM226 429v182q-46 -39 -78.5 -88t-47.5 -94h126z
M677 57q26 0 44.5 4.5t30.5 17.5t18 34.5t7 56.5q-17 -8 -37.5 -13.5t-49.5 -5.5q-63 0 -94.5 30t-31.5 93q0 29 7.5 53t24 41.5t43.5 27t65 9.5q81 0 115 -47t34 -154q0 -61 -10 -101.5t-31 -64.5t-52.5 -34t-74.5 -10q-42 0 -72 9t-30 29v32q23 -3 48.5 -5t45.5 -2z
M705 208q21 0 39.5 5t33.5 13q0 63 -15.5 91.5t-58.5 28.5q-36 0 -51 -18t-15 -53q0 -29 13 -48t54 -19z" />
    <glyph glyph-name="fiveninths" unicode="&#xf50f;" horiz-adv-x="901" 
d="M611 677h56q19 0 19 -17q0 -7 -4 -14l-394 -646h-56q-20 0 -20 17q0 6 5 14zM313 614h-172l-6 -92h42q80 0 115.5 -31t35.5 -88q0 -67 -42.5 -98t-110.5 -31q-9 0 -22 0.5t-26.5 2t-26 3.5t-21.5 5q-14 5 -18 11t-4 15v35q10 -2 40.5 -5.5t61.5 -3.5q53 0 71.5 16
t18.5 48q0 38 -21 50.5t-64 12.5h-74q-15 0 -19.5 8.5t-3.5 23.5l11 181h213q22 0 22 -21v-42zM677 57q26 0 44.5 4.5t30.5 17.5t18 34.5t7 56.5q-17 -8 -37.5 -13.5t-49.5 -5.5q-63 0 -94.5 30t-31.5 93q0 29 7.5 53t24 41.5t43.5 27t65 9.5q81 0 115 -47t34 -154
q0 -61 -10 -101.5t-31 -64.5t-52.5 -34t-74.5 -10q-42 0 -72 9t-30 29v32q23 -3 48.5 -5t45.5 -2zM705 208q21 0 39.5 5t33.5 13q0 63 -15.5 91.5t-58.5 28.5q-36 0 -51 -18t-15 -53q0 -29 13 -48t54 -19z" />
    <glyph glyph-name="sevenninths" unicode="&#xf510;" horiz-adv-x="901" 
d="M575 677h56q19 0 19 -17q0 -7 -4 -14l-394 -646h-56q-20 0 -20 17q0 6 5 14zM677 57q26 0 44.5 4.5t30.5 17.5t18 34.5t7 56.5q-17 -8 -37.5 -13.5t-49.5 -5.5q-63 0 -94.5 30t-31.5 93q0 29 7.5 53t24 41.5t43.5 27t65 9.5q81 0 115 -47t34 -154q0 -61 -10 -101.5
t-31 -64.5t-52.5 -34t-74.5 -10q-42 0 -72 9t-30 29v32q23 -3 48.5 -5t45.5 -2zM705 208q21 0 39.5 5t33.5 13q0 63 -15.5 91.5t-58.5 28.5q-36 0 -51 -18t-15 -53q0 -29 13 -48t54 -19zM108 304q0 14 11 49q20 65 54 132t67 127h-171q-22 0 -22 21v44h251q11 0 18 -4.5
t7 -17.5v-32q-48 -85 -82.5 -167t-58.5 -175h-51q-23 0 -23 23z" />
    <glyph glyph-name="eightninths" unicode="&#xf511;" horiz-adv-x="901" 
d="M613 677h56q19 0 19 -17q0 -7 -4 -14l-394 -646h-56q-20 0 -20 17q0 6 5 14zM677 57q26 0 44.5 4.5t30.5 17.5t18 34.5t7 56.5q-17 -8 -37.5 -13.5t-49.5 -5.5q-63 0 -94.5 30t-31.5 93q0 29 7.5 53t24 41.5t43.5 27t65 9.5q81 0 115 -47t34 -154q0 -61 -10 -101.5
t-31 -64.5t-52.5 -34t-74.5 -10q-42 0 -72 9t-30 29v32q23 -3 48.5 -5t45.5 -2zM705 208q21 0 39.5 5t33.5 13q0 63 -15.5 91.5t-58.5 28.5q-36 0 -51 -18t-15 -53q0 -29 13 -48t54 -19zM188 274q-71 0 -110 29t-39 89q0 32 15 57t47 39q-26 15 -38 38t-12 50
q0 52 34.5 80.5t103.5 28.5t104 -28.5t35 -79.5q0 -29 -12.5 -52t-38.5 -37q33 -15 48 -39.5t15 -56.5q0 -60 -40 -89t-112 -29zM189 331q35 0 55 14.5t20 47.5q0 24 -14.5 41.5t-60.5 17.5t-60.5 -17.5t-14.5 -41.5q0 -33 20 -47.5t55 -14.5zM189 516q22 0 36 5t21 13.5
t9.5 18.5t2.5 20q0 31 -16.5 46t-52.5 15q-69 0 -69 -60q0 -11 2.5 -21t9.5 -18.5t20.5 -13.5t36.5 -5z" />
    <glyph glyph-name="zero.alt" unicode="&#xf800;" horiz-adv-x="552" 
d="M155 341q0 -74 5 -125t18.5 -82.5t37 -45t60.5 -13.5t60.5 13.5t37 45t18.5 82.5t5 126q0 74 -5 125t-18.5 82t-37 44.5t-60.5 13.5t-60.5 -13.5t-37 -45t-18.5 -82t-5 -125.5zM51 341q0 106 15.5 174.5t45 108t71 54.5t93.5 15t93.5 -14.5t70.5 -53.5t45 -107.5
t16 -176.5t-16 -176.5t-45 -107.5t-70.5 -53.5t-93.5 -14.5t-93.5 14.5t-71 53.5t-45 107.5t-15.5 176.5z" />
    <glyph glyph-name="one.alt" unicode="&#xf801;" horiz-adv-x="384" 
d="M204 0q-24 0 -24 23v558l-116 -45q-10 -4 -15.5 -5t-8.5 -1q-18 0 -18 18v58l47 21q83 36 126.5 51t62.5 15q14 0 19.5 -6.5t5.5 -16.5v-670h-79z" />
    <glyph glyph-name="two.alt" unicode="&#xf802;" horiz-adv-x="486" 
d="M304 303q-26 -20 -53 -41.5t-49.5 -47.5t-37.5 -57.5t-17 -70.5h272q23 0 23 -23v-63h-374q-11 0 -18.5 6.5t-7.5 18.5v37q0 51 13.5 92.5t36 75t52.5 61.5t64 53q34 26 59 45.5t41.5 37.5t24 37t7.5 44q0 47 -30 72.5t-104 25.5q-48 0 -82 -5.5t-47 -5.5
q-14 0 -19.5 6.5t-5.5 17.5v45q30 11 75.5 20t102.5 9q109 0 161 -47t52 -131q0 -39 -11 -69t-30 -55t-44.5 -46t-53.5 -42z" />
    <glyph glyph-name="three.alt" unicode="&#xf803;" horiz-adv-x="486" 
d="M165 307q-24 0 -24 23v63h64q38 0 61.5 10.5t36.5 26.5t17.5 35t4.5 37q0 53 -29.5 78.5t-102.5 25.5q-45 0 -76 -5.5t-49 -5.5q-14 0 -19 6.5t-5 17.5v44q29 11 72.5 20.5t100.5 9.5q107 0 157.5 -49t50.5 -131q0 -109 -98 -156q60 -20 86 -62t26 -102
q0 -101 -59 -152.5t-172 -51.5q-13 0 -32.5 1.5t-41 4t-42 6t-33.5 8.5q-14 5 -18.5 12.5t-4.5 17.5v51q29 -5 71 -9t80 -4q43 0 72 8t46 23.5t24.5 38t7.5 50.5q0 61 -33 85.5t-101 24.5h-38z" />
    <glyph glyph-name="four.alt" unicode="&#xf804;" horiz-adv-x="526" 
d="M403 677q24 0 24 -23v-405h38q24 0 24 -23v-59h-62v-167h-74q-24 0 -24 23v144h-268q-24 0 -24 23v62q16 55 43 114.5t62.5 115.5t77.5 106.5t88 88.5h95zM329 249v340q-37 -32 -69 -73t-58 -86.5t-46 -92t-33 -88.5h206z" />
    <glyph glyph-name="five.alt" unicode="&#xf805;" horiz-adv-x="488" 
d="M217 -11q-13 0 -32 1.5t-39.5 4t-40 6t-32.5 8.5q-14 5 -18.5 12.5t-4.5 17.5v51q29 -5 69 -9t83 -4q81 0 113 30.5t32 94.5q0 36 -9 60.5t-26.5 38.5t-44 20t-61.5 6h-117q-11 0 -18.5 5.5t-6.5 21.5l19 323h323q23 0 23 -23v-63h-260l-11 -181h70q60 0 102 -14
t68.5 -41t38.5 -65t12 -86q0 -57 -15.5 -97.5t-45.5 -66.5t-73 -38.5t-98 -12.5z" />
    <glyph glyph-name="six.alt" unicode="&#xf806;" horiz-adv-x="531" 
d="M278 343q-33 0 -65.5 -9t-59.5 -28q0 -62 5.5 -106t20 -72.5t38.5 -42t60 -13.5q60 0 86 35t26 105q0 29 -5 53t-17.5 41.5t-34 27t-54.5 9.5zM321 607q-45 0 -76.5 -11t-51 -37t-29.5 -69t-11 -107q26 18 60.5 30.5t84.5 12.5q92 0 140.5 -52.5t48.5 -160.5
q0 -50 -11.5 -91.5t-37 -71t-65.5 -45.5t-97 -16q-64 0 -106.5 21.5t-68.5 63.5t-37 104.5t-11 145.5q0 105 16.5 176t47.5 113.5t76 60.5t102 18q37 0 72 -5t58 -14q16 -6 19.5 -15t3.5 -20v-41q-37 5 -66 7.5t-61 2.5z" />
    <glyph glyph-name="seven.alt" unicode="&#xf807;" horiz-adv-x="452" 
d="M130 96q16 61 40 128t50.5 132.5t54 126t52.5 107.5h-282q-24 0 -24 23v64h382q12 0 19.5 -5t7.5 -19v-54q-77 -152 -131 -301.5t-84 -297.5h-75q-24 0 -24 27q0 24 14 69z" />
    <glyph glyph-name="eight.alt" unicode="&#xf808;" horiz-adv-x="541" 
d="M272 -11q-108 0 -166.5 48t-58.5 148q0 57 22.5 100.5t79.5 69.5q-45 23 -64.5 65t-19.5 90q0 88 51.5 135.5t154.5 47.5t154.5 -47.5t51.5 -135.5q0 -48 -19.5 -90t-64.5 -65q57 -26 79.5 -69t22.5 -101q0 -100 -57.5 -148t-165.5 -48zM271 72q60 0 92 27.5t32 91.5
q0 25 -5 47.5t-18.5 38.5t-38 25.5t-62.5 9.5t-62.5 -9.5t-38 -25.5t-18.5 -38.5t-5 -47.5q0 -64 32 -91.5t92 -27.5zM271 393q36 0 58 9.5t33.5 25t15 36t3.5 41.5q0 56 -26.5 82t-83.5 26t-83.5 -26t-26.5 -82q0 -21 3.5 -41.5t15 -36t33.5 -25t58 -9.5z" />
    <glyph glyph-name="nine.alt" unicode="&#xf809;" horiz-adv-x="531" 
d="M260 347q28 0 61 9t59 28q0 118 -27 172t-96 54q-59 0 -86 -34t-27 -99q0 -30 5 -54t18.5 -41t35.5 -26t57 -9zM211 75q46 0 77.5 11t51.5 37.5t29.5 71t10.5 112.5q-26 -17 -60.5 -30t-83.5 -13q-92 0 -141 52t-49 157q0 49 12 89.5t37.5 69.5t65.5 45t96 16
q64 0 106.5 -21t68.5 -63t37 -104.5t11 -144.5q0 -107 -15.5 -178.5t-46 -114t-77 -60t-108.5 -17.5q-38 0 -73.5 5t-58.5 14q-16 6 -19.5 15t-3.5 20v42q37 -5 66 -8t67 -3z" />
    <glyph glyph-name="zero.sups" unicode="&#xf80a;" 
d="M189 458q43 0 57.5 31.5t14.5 110.5q0 78 -14.5 109.5t-57.5 31.5q-22 0 -36 -7.5t-22 -24t-11 -43.5t-3 -66t3 -66.5t11 -44t22 -24t36 -7.5zM189 394q-35 0 -63 8.5t-48 31.5t-30.5 63t-10.5 103q0 62 10.5 102t30.5 63t48 31.5t63 8.5t63 -8.5t47.5 -31.5t30 -63
t10.5 -102q0 -63 -10.5 -103t-30 -63t-47.5 -31.5t-63 -8.5z" />
    <glyph glyph-name="one.sups" unicode="&#xf80b;" 
d="M192 401q-10 0 -16 6t-6 15v295l-71 -26q-10 -4 -20 -4q-7 0 -12 4.5t-5 13.5v42l42 17q31 13 51 21l32.5 13t20.5 7t17 2q15 0 20.5 -9.5t5.5 -20.5v-376h-59z" />
    <glyph glyph-name="two.sups" unicode="&#xf80c;" 
d="M82 733q-14 0 -18.5 6t-4.5 16v31q19 7 51.5 12.5t65.5 5.5q25 0 51 -4.5t47 -16.5t34.5 -32.5t13.5 -52.5q0 -35 -16 -60t-48 -47q-20 -14 -42 -27t-41.5 -28t-32.5 -32.5t-15 -39.5h175q23 0 23 -20v-43h-250q-10 0 -16.5 6t-6.5 15v22q0 30 8.5 53.5t23 43t34 35.5
t41.5 30q18 11 33.5 20.5t27 19t18.5 21t7 26.5q0 22 -16 35t-60 13q-29 0 -51 -4t-36 -4z" />
    <glyph glyph-name="three.sups" unicode="&#xf80d;" 
d="M134 573q-23 0 -23 21v41h56q21 0 34 5.5t20 13.5t9.5 18t2.5 19q0 26 -17.5 38t-57.5 12q-25 0 -49 -3t-35 -3q-14 0 -18.5 5.5t-4.5 15.5v31q19 7 50 12t66 5q75 0 108.5 -28t33.5 -77q0 -32 -13 -53.5t-39 -35.5q32 -16 46.5 -39t14.5 -58q0 -60 -39 -89.5t-114 -29.5
q-10 0 -23.5 0.5t-27 2t-26 3.5t-21.5 5q-14 5 -18 11t-4 15v35q26 -4 52.5 -6.5t50.5 -2.5q56 0 74 16t18 43q0 32 -19 44.5t-59 12.5h-28z" />
    <glyph glyph-name="four.sups" unicode="&#xf80e;" 
d="M275 797q22 0 22 -21v-227h21q21 0 21 -21v-36h-42v-91h-49q-22 0 -22 21v70h-169q-22 0 -22 21v35q9 27 25.5 60t39.5 67t52 65.5t63 56.5h60zM226 549v182q-46 -39 -78.5 -88t-47.5 -94h126z" />
    <glyph glyph-name="five.sups" unicode="&#xf80f;" 
d="M313 734h-172l-6 -92h42q80 0 115.5 -31t35.5 -88q0 -67 -42.5 -98t-110.5 -31q-9 0 -22 0.5t-26.5 2t-26 3.5t-21.5 5q-14 5 -18 11t-4 15v35q10 -2 40.5 -5.5t61.5 -3.5q53 0 71.5 16t18.5 48q0 38 -21 50.5t-64 12.5h-74q-15 0 -19.5 8.5t-3.5 23.5l11 181h213
q22 0 22 -21v-42z" />
    <glyph glyph-name="six.sups" unicode="&#xf810;" 
d="M225 742q-26 0 -44.5 -5t-31 -17t-18.5 -33.5t-7 -54.5q15 8 36 13.5t50 5.5q63 0 95.5 -30t32.5 -94q0 -60 -32 -96.5t-109 -36.5q-81 0 -115 47t-34 152q0 61 10.5 102t31.5 65.5t52 34.5t72 10q42 0 71 -9t29 -29v-32q-22 3 -45.5 5t-43.5 2zM196 594q-20 0 -38 -4.5
t-35 -12.5q0 -65 15 -94.5t60 -29.5q35 0 50.5 18t15.5 55q0 29 -13.5 48.5t-54.5 19.5z" />
    <glyph glyph-name="seven.sups" unicode="&#xf811;" 
d="M108 424q0 14 11 49q20 65 54 132t67 127h-171q-22 0 -22 21v44h251q11 0 18 -4.5t7 -17.5v-32q-48 -85 -82.5 -167t-58.5 -175h-51q-23 0 -23 23z" />
    <glyph glyph-name="eight.sups" unicode="&#xf812;" 
d="M188 394q-71 0 -110 29t-39 89q0 32 15 57t47 39q-26 15 -38 38t-12 50q0 52 34.5 80.5t103.5 28.5t104 -28.5t35 -79.5q0 -29 -12.5 -52t-38.5 -37q33 -15 48 -39.5t15 -56.5q0 -60 -40 -89t-112 -29zM189 451q35 0 55 14.5t20 47.5q0 24 -14.5 41.5t-60.5 17.5
t-60.5 -17.5t-14.5 -41.5q0 -33 20 -47.5t55 -14.5zM189 636q22 0 36 5t21 13.5t9.5 18.5t2.5 20q0 31 -16.5 46t-52.5 15q-69 0 -69 -60q0 -11 2.5 -21t9.5 -18.5t20.5 -13.5t36.5 -5z" />
    <glyph glyph-name="nine.sups" unicode="&#xf813;" 
d="M154 457q26 0 44.5 4.5t30.5 17.5t18 34.5t7 56.5q-17 -8 -37.5 -13.5t-49.5 -5.5q-63 0 -94.5 30t-31.5 93q0 29 7.5 53t24 41.5t43.5 27t65 9.5q81 0 115 -47t34 -154q0 -61 -10 -101.5t-31 -64.5t-52.5 -34t-74.5 -10q-42 0 -72 9t-30 29v32q23 -3 48.5 -5t45.5 -2z
M182 608q21 0 39.5 5t33.5 13q0 63 -15.5 91.5t-58.5 28.5q-36 0 -51 -18t-15 -53q0 -29 13 -48t54 -19z" />
    <glyph glyph-name="zero.sinf" unicode="&#xf814;" 
d="M189 -62q43 0 57.5 31.5t14.5 110.5q0 78 -14.5 109.5t-57.5 31.5q-22 0 -36 -7.5t-22 -24t-11 -43.5t-3 -66t3 -66.5t11 -44t22 -24t36 -7.5zM189 -126q-35 0 -63 8.5t-48 31.5t-30.5 63t-10.5 103q0 62 10.5 102t30.5 63t48 31.5t63 8.5t63 -8.5t47.5 -31.5t30 -63
t10.5 -102q0 -63 -10.5 -103t-30 -63t-47.5 -31.5t-63 -8.5z" />
    <glyph glyph-name="one.sinf" unicode="&#xf815;" 
d="M192 -119q-10 0 -16 6t-6 15v295l-71 -26q-10 -4 -20 -4q-7 0 -12 4.5t-5 13.5v42l42 17q31 13 51 21l32.5 13t20.5 7t17 2q15 0 20.5 -9.5t5.5 -20.5v-376h-59z" />
    <glyph glyph-name="two.sinf" unicode="&#xf816;" 
d="M82 213q-14 0 -18.5 6t-4.5 16v31q19 7 51.5 12.5t65.5 5.5q25 0 51 -4.5t47 -16.5t34.5 -32.5t13.5 -52.5q0 -35 -16 -60t-48 -47q-20 -14 -42 -27t-41.5 -28t-32.5 -32.5t-15 -39.5h175q23 0 23 -20v-43h-250q-10 0 -16.5 6t-6.5 15v22q0 30 8.5 53.5t23 43t34 35.5
t41.5 30q18 11 33.5 20.5t27 19t18.5 21t7 26.5q0 22 -16 35t-60 13q-29 0 -51 -4t-36 -4z" />
    <glyph glyph-name="three.sinf" unicode="&#xf817;" 
d="M134 53q-23 0 -23 21v41h56q21 0 34 5.5t20 13.5t9.5 18t2.5 19q0 26 -17.5 38t-57.5 12q-25 0 -49 -3t-35 -3q-14 0 -18.5 5.5t-4.5 15.5v31q19 7 50 12t66 5q75 0 108.5 -28t33.5 -77q0 -32 -13 -53.5t-39 -35.5q32 -16 46.5 -39t14.5 -58q0 -60 -39 -89.5t-114 -29.5
q-10 0 -23.5 0.5t-27 2t-26 3.5t-21.5 5q-14 5 -18 11t-4 15v35q26 -4 52.5 -6.5t50.5 -2.5q56 0 74 16t18 43q0 32 -19 44.5t-59 12.5h-28z" />
    <glyph glyph-name="four.sinf" unicode="&#xf818;" 
d="M275 277q22 0 22 -21v-227h21q21 0 21 -21v-36h-42v-91h-49q-22 0 -22 21v70h-169q-22 0 -22 21v35q9 27 25.5 60t39.5 67t52 65.5t63 56.5h60zM226 29v182q-46 -39 -78.5 -88t-47.5 -94h126z" />
    <glyph glyph-name="five.sinf" unicode="&#xf819;" 
d="M313 214h-172l-6 -92h42q80 0 115.5 -31t35.5 -88q0 -67 -42.5 -98t-110.5 -31q-9 0 -22 0.5t-26.5 2t-26 3.5t-21.5 5q-14 5 -18 11t-4 15v35q10 -2 40.5 -5.5t61.5 -3.5q53 0 71.5 16t18.5 48q0 38 -21 50.5t-64 12.5h-74q-15 0 -19.5 8.5t-3.5 23.5l11 181h213
q22 0 22 -21v-42z" />
    <glyph glyph-name="six.sinf" unicode="&#xf81a;" 
d="M225 222q-26 0 -44.5 -5t-31 -17t-18.5 -33.5t-7 -54.5q15 8 36 13.5t50 5.5q63 0 95.5 -30t32.5 -94q0 -60 -32 -96.5t-109 -36.5q-81 0 -115 47t-34 152q0 61 10.5 102t31.5 65.5t52 34.5t72 10q42 0 71 -9t29 -29v-32q-22 3 -45.5 5t-43.5 2zM196 74q-20 0 -38 -4.5
t-35 -12.5q0 -65 15 -94.5t60 -29.5q35 0 50.5 18t15.5 55q0 29 -13.5 48.5t-54.5 19.5z" />
    <glyph glyph-name="seven.sinf" unicode="&#xf81b;" 
d="M108 -96q0 14 11 49q20 65 54 132t67 127h-171q-22 0 -22 21v44h251q11 0 18 -4.5t7 -17.5v-32q-48 -85 -82.5 -167t-58.5 -175h-51q-23 0 -23 23z" />
    <glyph glyph-name="eight.sinf" unicode="&#xf81c;" 
d="M188 -126q-71 0 -110 29t-39 89q0 32 15 57t47 39q-26 15 -38 38t-12 50q0 52 34.5 80.5t103.5 28.5t104 -28.5t35 -79.5q0 -29 -12.5 -52t-38.5 -37q33 -15 48 -39.5t15 -56.5q0 -60 -40 -89t-112 -29zM189 -69q35 0 55 14.5t20 47.5q0 24 -14.5 41.5t-60.5 17.5
t-60.5 -17.5t-14.5 -41.5q0 -33 20 -47.5t55 -14.5zM189 116q22 0 36 5t21 13.5t9.5 18.5t2.5 20q0 31 -16.5 46t-52.5 15q-69 0 -69 -60q0 -11 2.5 -21t9.5 -18.5t20.5 -13.5t36.5 -5z" />
    <glyph glyph-name="nine.sinf" unicode="&#xf81d;" 
d="M154 -63q26 0 44.5 4.5t30.5 17.5t18 34.5t7 56.5q-17 -8 -37.5 -13.5t-49.5 -5.5q-63 0 -94.5 30t-31.5 93q0 29 7.5 53t24 41.5t43.5 27t65 9.5q81 0 115 -47t34 -154q0 -61 -10 -101.5t-31 -64.5t-52.5 -34t-74.5 -10q-42 0 -72 9t-30 29v32q23 -3 48.5 -5t45.5 -2z
M182 88q21 0 39.5 5t33.5 13q0 63 -15.5 91.5t-58.5 28.5q-36 0 -51 -18t-15 -53q0 -29 13 -48t54 -19z" />
    <glyph glyph-name="i.locl" horiz-adv-x="227" 
d="M164 0h-77q-24 0 -24 23v486h77q24 0 24 -23v-486zM114 589q-33 0 -47.5 12.5t-14.5 42.5q0 29 14.5 42t47.5 13q32 0 47 -13t15 -42q0 -30 -15 -42.5t-47 -12.5z" />
    <glyph glyph-name="kgreenlandic.case" horiz-adv-x="664" 
d="M509 652q-38 -63 -102.5 -141t-149.5 -152q36 -30 75 -71t76 -88t71.5 -98t61.5 -102h-98q-16 0 -23.5 8.5t-12.5 18.5q-54 83 -116 158.5t-116 126.5v-312h-81q-24 0 -24 23v670h81q24 0 24 -23v-275q31 29 63.5 63t64 72.5t61 79.5t55.5 83h76q21 0 21 -19q0 -8 -7 -22
zM533 521q0 21 10 48.5t26 58.5l33 66h41q16 0 16 -14q0 -6 -3 -15l-37 -89q24 -6 33.5 -19.5t9.5 -34.5q0 -32 -14.5 -46.5t-49.5 -14.5t-50 14.5t-15 45.5z" />
    <glyph glyph-name="napostrophe.case" horiz-adv-x="613" 
d="M543 0h-83q-17 0 -27 23q-16 34 -38 78t-47 92t-51 97.5t-50 94t-44 81t-33 59.5v-525h-76q-24 0 -24 23v670h84q11 0 17 -6.5t12 -16.5q13 -23 32.5 -58t43 -77t48.5 -89t49.5 -93.5t47 -90t39.5 -78.5v509h76q24 0 24 -23v-670zM17 679q0 -34 -28 -84l-29 -54h-40
q-15 0 -15 13q0 7 4 14l27 61q-38 9 -38 50q0 29 15 41.5t44 12.5q60 0 60 -54z" />
    <glyph glyph-name="apostrophe" horiz-adv-x="434" 
d="M261 679q0 -34 -28 -84l-29 -54h-40q-15 0 -15 13q0 7 4 14l27 61q-38 9 -38 50q0 29 15 41.5t44 12.5q60 0 60 -54z" />
    <glyph glyph-name="hungarumlaut.cap" horiz-adv-x="434" 
d="M119 735q-21 0 -14 23q1 5 7.5 19.5t15.5 33t18.5 38t18.5 34.5h70q10 0 15 -4.5t2 -14.5q-2 -5 -5.5 -11t-7.5 -12l-70 -106h-50zM265 735q-21 0 -14 23q1 5 7.5 19.5t15.5 33t18.5 38t18.5 34.5h70q10 0 15 -4.5t2 -14.5q-2 -5 -5.5 -11t-7.5 -12l-70 -106h-50z" />
    <glyph glyph-name="cedilla.cap" horiz-adv-x="434" 
d="M234 5l-24 -60l14 -3q35 -8 50.5 -23.5t15.5 -45.5q0 -15 -4.5 -28t-16.5 -23t-32.5 -15.5t-52.5 -5.5q-13 0 -22.5 1t-18.5 4q-13 4 -13 18v26h32q34 0 46 5t12 21q0 14 -8.5 19.5t-29.5 10.5l-9 2q-11 2 -15.5 5.5t-4.5 13.5q0 5 2 11.5t10 26.5l16 40h53z" />
    <glyph glyph-name="tilde.cap" horiz-adv-x="434" 
d="M370 848q0 -43 -20 -70.5t-64 -27.5q-28 0 -46.5 10t-34.5 22q-12 9 -20 14.5t-13 8.5t-9.5 4t-10.5 1q-10 0 -15 -5t-7.5 -13t-3 -18.5t-0.5 -21.5h-44q-11 0 -14.5 5.5t-3.5 18.5q0 43 20 70.5t64 27.5q28 0 46.5 -10t34.5 -22q12 -9 20 -14.5t13 -8.5t9.5 -4t10.5 -1
q19 0 22.5 18t3.5 40h44q11 0 14.5 -5.5t3.5 -18.5z" />
    <glyph glyph-name="ogonek.cap" horiz-adv-x="434" 
d="M288 1q-23 -18 -38 -32t-23.5 -25t-12 -20t-3.5 -18q0 -19 10.5 -24t27.5 -5q10 0 15.5 1t10.5 1q10 0 13 -5.5t3 -14.5v-34q-13 -4 -28.5 -6.5t-32.5 -2.5q-41 0 -66.5 17t-25.5 55q0 33 19 60t49 53h82z" />
    <glyph glyph-name="ring.cap" horiz-adv-x="434" 
d="M217 773q50 0 50 50q0 49 -50 49t-50 -49q0 -50 50 -50zM217 726q-52 0 -77 26.5t-25 70.5q0 43 25 69.5t77 26.5t77 -26.5t25 -69.5q0 -44 -25 -70.5t-77 -26.5z" />
    <glyph glyph-name="caron.cap" horiz-adv-x="434" 
d="M327 883q11 0 14 -6.5t-2 -15.5q-18 -32 -38.5 -61t-40.5 -55h-72q-10 0 -15 3t-13 14q-17 25 -35.5 54.5t-39.5 66.5h56q11 0 16.5 -3.5t13.5 -14.5l46 -62l59 80h51z" />
    <glyph glyph-name="macron.cap" horiz-adv-x="434" 
d="M320 848q24 0 24 -23v-53h-230q-24 0 -24 23v53h230z" />
    <glyph glyph-name="dieresis.cap" horiz-adv-x="434" 
d="M181 812q0 -29 -13.5 -41.5t-43.5 -12.5q-31 0 -44.5 12.5t-13.5 41.5t13.5 41.5t44.5 12.5q30 0 43.5 -12.5t13.5 -41.5zM368 812q0 -29 -13.5 -41.5t-43.5 -12.5q-31 0 -44.5 12.5t-13.5 41.5t13.5 41.5t44.5 12.5q30 0 43.5 -12.5t13.5 -41.5z" />
    <glyph glyph-name="dotaccent.cap" horiz-adv-x="434" 
d="M278 814q0 -31 -14.5 -44t-46.5 -13t-47 13t-15 44q0 30 15 43t47 13t46.5 -13t14.5 -43z" />
    <glyph glyph-name="circumflex.cap" horiz-adv-x="434" 
d="M107 745q-14 0 -15 8.5t4 18.5q3 6 11.5 18.5t19.5 28.5t23 33t23 31h72q11 0 17.5 -4t11.5 -11q7 -9 17.5 -24t21.5 -32.5t21.5 -35t18.5 -31.5h-60q-11 0 -16.5 3.5t-13.5 14.5l-46 61l-60 -79h-50z" />
    <glyph glyph-name="acute.cap" horiz-adv-x="434" 
d="M180 745q-22 0 -14 22q2 6 8.5 19t16 29.5t20 34.5t21.5 33h83q18 0 18 -14q0 -12 -12 -25l-87 -99h-54z" />
    <glyph glyph-name="grave.cap" horiz-adv-x="434" 
d="M87 883h99q14 0 20 -6t16 -23q14 -24 27.5 -51.5t24.5 -57.5h-60q-11 0 -17.5 4t-13.5 13z" />
    <glyph glyph-name="breve.cap" horiz-adv-x="434" 
d="M163 862q1 -11 3.5 -20.5t8.5 -17t16 -11.5t26 -4q26 0 39.5 15t16.5 57h48q11 0 14 -5.5t3 -13.5q0 -55 -32 -85.5t-92 -30.5q-53 0 -85 29.5t-34 105.5h49q12 0 15 -5.5t4 -13.5z" />
    <glyph glyph-name="commaaccent.cap" horiz-adv-x="434" 
d="M274 -90q0 -19 -8 -36t-22 -36l-27 -37h-41q-8 0 -11.5 4t-3.5 9q0 2 1 5t7 12l25 40q-18 5 -26 13.5t-8 26.5q0 25 15 35.5t41 10.5t42 -10.5t16 -36.5z" />
    <glyph glyph-name="caron.alt" horiz-adv-x="434" 
d="M194 558q-19 0 -19 18v146h67q20 0 20 -18q0 -8 -2.5 -24.5t-6.5 -37t-9 -43t-10 -41.5h-40z" />
    <glyph glyph-name="commaaccent" horiz-adv-x="434" 
d="M274 -90q0 -19 -8 -36t-22 -36l-27 -37h-41q-15 0 -15 11q0 4 1.5 7.5t6.5 11.5l25 40q-18 5 -26 13.5t-8 26.5q0 25 15 35.5t41 10.5t42 -10.5t16 -36.5z" />
    <glyph glyph-name="revcommaaccent" horiz-adv-x="434" 
d="M160 614q0 19 8 36t22 36l27 37h41q15 0 15 -11q0 -4 -1.5 -7.5t-6.5 -11.5l-25 -40q18 -5 26 -13.5t8 -26.5q0 -25 -15 -35.5t-41 -10.5t-42 10.5t-16 36.5z" />
    <glyph glyph-name="acute.asc" horiz-adv-x="434" 
d="M169 757q-22 0 -14 22q3 8 9.5 21t15.5 28.5t19 31t19 27.5h83q8 0 13 -2.5t5 -10.5q0 -7 -5.5 -14t-12.5 -15l-78 -88h-54z" />
    <glyph glyph-name="circumflex.asc" horiz-adv-x="434" 
d="M107 757q-11 0 -13.5 7.5t2.5 15.5q3 6 11 18t19 27t23 31.5t24 30.5h70q11 0 16 -3t12 -13q3 -5 12.5 -18t20.5 -29.5l23 -34.5t20 -32h-56q-11 0 -16.5 3.5t-13.5 13.5l-45 58l-58 -75h-51z" />
    <glyph glyph-name="caron.alt.short" horiz-adv-x="434" 
d="M195 562q-20 0 -20 19v146h69q12 0 16.5 -5t4.5 -15q0 -8 -2.5 -24.5t-6 -36.5t-8.5 -42.5t-9 -41.5h-44z" />
    <glyph glyph-name="Parenleft" horiz-adv-x="300" 
d="M179 -58q-61 95 -89 191.5t-28 209.5q0 118 30 219.5t101 205.5h53q8 0 14.5 -4.5t6.5 -14.5q0 -7 -4 -16q-25 -50 -43.5 -94.5t-31 -90t-18.5 -95t-6 -107.5t6 -109.5t20 -102.5t36 -103.5t54 -112.5h-64q-15 0 -22 6t-15 18z" />
    <glyph glyph-name="Parenright" horiz-adv-x="300" 
d="M120 744q59 -96 88.5 -192.5t29.5 -208.5q0 -59 -7 -113.5t-23 -106t-41 -102.5t-61 -103h-52q-9 0 -15 4.5t-6 14.5q0 7 4 16q25 49 43.5 94t30.5 90.5t18 94.5t6 108q0 58 -6 109.5t-19.5 102.5t-36 103.5t-54.5 112.5h65q15 0 21.5 -6t14.5 -18z" />
    <glyph glyph-name="Hyphen" horiz-adv-x="385" 
d="M317 388q24 0 24 -23v-67h-273q-24 0 -24 23v67h273z" />
    <glyph glyph-name="Slash" horiz-adv-x="367" 
d="M44 -83q-14 0 -17.5 9.5t-0.5 20.5l225 821h69q13 0 17.5 -8.5t0.5 -21.5l-225 -821h-69z" />
    <glyph glyph-name="At" horiz-adv-x="835" 
d="M532 125q-9 0 -16 5t-9 19l-4 29q-20 -24 -49.5 -41.5t-74.5 -17.5q-72 0 -103.5 49.5t-31.5 149.5q0 49 9.5 96t34 83t67.5 58t110 22q27 0 53.5 -3.5t47.5 -8.5q12 -3 21.5 -8.5t8.5 -25.5l-19 -334q37 0 62 17t40 47t21.5 69.5t6.5 84.5q0 139 -59 207t-196 68
q-63 0 -120.5 -16t-101.5 -56.5t-70.5 -110t-26.5 -176.5q0 -96 22.5 -160t65 -102t104.5 -54t142 -16q63 0 99 6t53 6q22 0 22 -25v-36q-25 -9 -76.5 -16.5t-114.5 -7.5q-83 0 -155.5 18.5t-126.5 64.5t-85.5 124.5t-31.5 198.5q0 125 33.5 208t89 132.5t128 70t150.5 20.5
q63 0 124 -14.5t108 -52.5t76 -105t29 -172q0 -65 -12.5 -119t-39 -93t-69 -60.5t-102.5 -21.5h-34zM452 503q-39 0 -63 -15.5t-37 -41.5t-17.5 -59t-4.5 -69q0 -70 16 -97.5t61 -27.5q29 0 50 10.5t37 29.5l14 264q-11 3 -27.5 4.5t-28.5 1.5z" />
    <glyph glyph-name="Bracketleft" horiz-adv-x="324" 
d="M273 768q24 0 24 -23v-56h-133v-693h109q24 0 24 -23v-56h-204q-24 0 -24 23v828h204z" />
    <glyph glyph-name="Backslash" horiz-adv-x="367" 
d="M93 768q13 0 19.5 -6t10.5 -21l226 -824h-76q-12 0 -18.5 6t-10.5 21l-226 824h75z" />
    <glyph glyph-name="Bracketright" horiz-adv-x="324" 
d="M51 -83q-24 0 -24 23v56h133v693h-109q-24 0 -24 23v56h204q24 0 24 -23v-828h-204z" />
    <glyph glyph-name="Braceleft" horiz-adv-x="338" 
d="M133 345q32 -16 43 -44t11 -60v-164q0 -44 11 -65t53 -21q11 0 23 0.5t15 0.5q14 0 18 -6.5t4 -16.5v-38q-10 -6 -22.5 -9.5t-25 -5.5t-24.5 -2.5t-21 -0.5q-39 0 -63.5 10t-38 28.5t-18.5 43.5t-5 55v194q0 27 -10.5 39t-25.5 16t-15 18v67q19 1 35 12.5t16 45.5v193
q0 30 5 55t18.5 43.5t38.5 28.5t64 10q17 0 37.5 -2t37.5 -8q11 -5 14 -12.5t3 -17.5v-40q-16 2 -34 2h-26q-42 0 -53 -21t-11 -66v-159q0 -32 -11 -60t-43 -43z" />
    </font>
</defs>
</svg>
