<svg xmlns="http://www.w3.org/2000/svg" width="24" height="24" viewBox="0 0 24 24"><rect width="24" height="24" fill="none"/><g transform="translate(2 -3.008)"><path d="M4.233,17.35H.69A.678.678,0,0,1,0,16.66V6.7a.678.678,0,0,1,.69-.69H15a.678.678,0,0,1,.69.69v3.75H14.31V7.388H1.38V15.97H4.233Z" transform="translate(0 0)" fill="#0171ad"/><path d="M90.9,106.123a.652.652,0,0,1-.506-.23l-3.083-3.382H81.148a.678.678,0,0,1-.69-.69V91.859a.678.678,0,0,1,.69-.69h14.31a.678.678,0,0,1,.69.69v9.962a.678.678,0,0,1-.69.69H92.283l-.713,3.083a.669.669,0,0,1-.506.506A.341.341,0,0,1,90.9,106.123Zm-9.065-4.992h5.775a.739.739,0,0,1,.506.23l2.393,2.646.529-2.324a.667.667,0,0,1,.667-.529h3.037v-8.6H81.838Z" transform="translate(-76.915 -81.411)" fill="#0171ad"/></g></svg>