<svg xmlns="http://www.w3.org/2000/svg" width="24" height="24" viewBox="0 0 24 24"><g transform="translate(-659 310)"><rect width="24" height="24" transform="translate(659 -310)" fill="none"/><path d="M18.924,25.353H13.342a5.473,5.473,0,0,0-3.3,1.075l-.183.131L9.7,26.428a5.608,5.608,0,0,0-3.329-1.075H.786A.772.772,0,0,0,0,26.139V40.346a.772.772,0,0,0,.786.786H6.369a4.178,4.178,0,0,1,2.411.76l.629.446a.71.71,0,0,0,.891,0l.629-.446a4.1,4.1,0,0,1,2.385-.76H18.9a.772.772,0,0,0,.786-.786V26.139A.736.736,0,0,0,18.924,25.353ZM6.369,39.559h-4.8V26.926h4.8a4.178,4.178,0,0,1,2.411.76l.288.21V40.241A5.655,5.655,0,0,0,6.369,39.559Zm11.769,0h-4.8a5.655,5.655,0,0,0-2.7.682V27.922l.315-.21a4.1,4.1,0,0,1,2.385-.76h4.8Z" transform="translate(661 -332.353)" fill="#0171ad"/></g></svg>