<svg xmlns="http://www.w3.org/2000/svg" width="24" height="24" viewBox="0 0 24 24"><rect width="24" height="24" fill="none"/><g transform="translate(-1286 -26.5)"><path d="M11.6,13.441a.734.734,0,0,1,.742-.728.689.689,0,0,1,.7.728v2.891A2.17,2.17,0,0,1,10.876,18.5H2.168A2.17,2.17,0,0,1,0,16.332V2.168A2.17,2.17,0,0,1,2.168,0h8.708a2.17,2.17,0,0,1,2.168,2.168V5.059a.7.7,0,0,1-.728.714c-.812-.023-.717-.714-.717-.714V2.168a.723.723,0,0,0-.723-.723H2.168a.724.724,0,0,0-.723.723V16.332a.724.724,0,0,0,.723.723h8.708a.723.723,0,0,0,.723-.723Z" transform="translate(1288 30)" fill="#0171ad"/><path d="M14.267,46.417l-4.3-4.3a.673.673,0,0,0-.951.951l3.156,3.156H.673a.673.673,0,1,0,0,1.345h11.5L9.012,50.722a.673.673,0,0,0,.951.951l4.3-4.3A.673.673,0,0,0,14.267,46.417Z" transform="translate(1293.59 -7.657)" fill="#0171ad"/></g></svg>